<svg width="14" height="14" viewBox="0 0 14 14" fill="none" xmlns="http://www.w3.org/2000/svg">
<path d="M8.75 8.36942C8.75 10.2082 7.9665 12.8332 7 12.8332C6.0335 12.8332 5.25 10.2082 5.25 8.36942C5.25 7.29083 6.0335 6.4165 7 6.4165C7.9665 6.4165 8.75 7.29083 8.75 8.36942Z" stroke="#6EB6FF" stroke-width="0.8"/>
<path d="M3.34784 4.9585C4.07995 4.9585 5.83333 5.61142 5.83333 6.41683C5.83333 7.22224 4.07995 7.87516 3.34784 7.87516C2.61572 7.87516 1.75 7.22224 1.75 6.41683C1.75 5.61142 2.61572 4.9585 3.34784 4.9585Z" stroke="#6EB6FF" stroke-width="0.8"/>
<path d="M10.652 4.9585C9.91989 4.9585 8.1665 5.61142 8.1665 6.41683C8.1665 7.22224 9.91989 7.87516 10.652 7.87516C11.3841 7.87516 12.2498 7.22224 12.2498 6.41683C12.2498 5.61142 11.3841 4.9585 10.652 4.9585Z" stroke="#6EB6FF" stroke-width="0.8"/>
<path d="M8.45817 4.08333C8.45817 3.27792 7.80525 2.625 6.99984 2.625C6.19442 2.625 5.5415 3.27792 5.5415 4.08333V4.95833C5.5415 5.76375 6.19442 6.41667 6.99984 6.41667C7.80525 6.41667 8.45817 5.76375 8.45817 4.95833V4.08333Z" stroke="#6EB6FF" stroke-width="0.8"/>
<path d="M8.1665 2.9165C8.1665 1.95001 8.95001 1.1665 9.9165 1.1665" stroke="#6EB6FF" stroke-width="0.8" stroke-linecap="round"/>
<path d="M6.12516 2.9165C6.12516 1.95001 5.21108 1.1665 4.0835 1.1665" stroke="#6EB6FF" stroke-width="0.8" stroke-linecap="round"/>
</svg>
