<svg width="20" height="20" viewBox="0 0 20 20" fill="none" xmlns="http://www.w3.org/2000/svg">
<g clip-path="url(#clip0_216_11807)">
<path d="M4.43336 12.3834L2.84169 14.775L1.25002 12.3834V2.84169C1.24892 2.63236 1.28933 2.42489 1.36893 2.23128C1.44853 2.03767 1.56573 1.86177 1.71375 1.71375C1.86177 1.56573 2.03767 1.44853 2.23128 1.36893C2.42489 1.28933 2.63236 1.24892 2.84169 1.25002C3.26383 1.25002 3.66867 1.41772 3.96717 1.71621C4.26566 2.01471 4.43336 2.41955 4.43336 2.84169V12.3834Z" stroke="#2A2A2A" stroke-opacity="0.25" stroke-miterlimit="10"/>
<path d="M17.1584 18.7502H6.81676C6.3953 18.748 5.99173 18.5796 5.69371 18.2816C5.39568 17.9836 5.22729 17.58 5.2251 17.1586V15.5669H15.5668V17.1586C15.569 17.58 15.7373 17.9836 16.0354 18.2816C16.3334 18.5796 16.737 18.748 17.1584 18.7502Z" stroke="#2A2A2A" stroke-opacity="0.25" stroke-miterlimit="10"/>
<path d="M18.7499 1.25V17.1583C18.7499 17.5805 18.5822 17.9853 18.2837 18.2838C17.9852 18.5823 17.5803 18.75 17.1582 18.75C16.7361 18.75 16.3312 18.5823 16.0327 18.2838C15.7342 17.9853 15.5665 17.5805 15.5665 17.1583V15.5667H8.4082V1.25H18.7499Z" stroke="#2A2A2A" stroke-opacity="0.25" stroke-miterlimit="10"/>
<path d="M10.7915 5.2251H16.3665" stroke="#2A2A2A" stroke-opacity="0.25" stroke-miterlimit="10"/>
<path d="M10.7915 8.4082H16.3665" stroke="#2A2A2A" stroke-opacity="0.25" stroke-miterlimit="10"/>
<path d="M10.7915 11.5918H16.3665" stroke="#2A2A2A" stroke-opacity="0.25" stroke-miterlimit="10"/>
</g>
<defs>
<clipPath id="clip0_216_11807">
<rect width="20" height="20" fill="white"/>
</clipPath>
</defs>
</svg>
