<svg width="17" height="17" viewBox="0 0 17 17" fill="none" xmlns="http://www.w3.org/2000/svg">
<path d="M15.9375 9.85303H1.0625V12.5589H15.9375V9.85303Z" stroke="#2A2A2A" stroke-width="1.5" stroke-miterlimit="10"/>
<path d="M1.0625 7.14697H13.9117C14.1807 7.14693 14.4471 7.20048 14.6952 7.3045C14.9433 7.40851 15.1682 7.56091 15.3568 7.75279C15.5454 7.94468 15.6939 8.1722 15.7936 8.42209C15.8933 8.67198 15.9422 8.93922 15.9375 9.20822V9.91656H1.0625V7.14697Z" stroke="#2A2A2A" stroke-width="1.5" stroke-miterlimit="10"/>
<path d="M4.44125 4.44141H2.41542C1.66822 4.44141 1.0625 5.04713 1.0625 5.79432C1.0625 6.54152 1.66822 7.14724 2.41542 7.14724H4.44125C5.18845 7.14724 5.79417 6.54152 5.79417 5.79432C5.79417 5.04713 5.18845 4.44141 4.44125 4.44141Z" stroke="#2A2A2A" stroke-width="1.5" stroke-miterlimit="10"/>
<path d="M7.14697 7.14697V9.85281" stroke="#2A2A2A" stroke-width="1.5" stroke-miterlimit="10"/>
<path d="M1.0625 1.73535V7.14702" stroke="#2A2A2A" stroke-width="1.5" stroke-miterlimit="10"/>
<path d="M1.0625 15.2644V12.5586" stroke="#2A2A2A" stroke-width="1.5" stroke-miterlimit="10"/>
<path d="M15.9375 15.2644V12.5586" stroke="#2A2A2A" stroke-width="1.5" stroke-miterlimit="10"/>
</svg>
