<svg width="20" height="20" viewBox="0 0 20 20" fill="none" xmlns="http://www.w3.org/2000/svg">
<g clip-path="url(#clip0_216_11215)">
<path d="M17.1583 12.3833V8.40833C17.1561 6.5105 16.4012 4.69103 15.0593 3.34906C13.7173 2.00709 11.8978 1.25221 10 1.25C8.10217 1.25221 6.2827 2.00709 4.94073 3.34906C3.59876 4.69103 2.84387 6.5105 2.84167 8.40833V12.3833L1.25 13.975V15.5667H18.75V13.975L17.1583 12.3833Z" stroke="#2A2A2A" stroke-width="1.5" stroke-miterlimit="10"/>
<path d="M12.2418 15.5667C12.3443 15.8321 12.3925 16.1155 12.3835 16.4C12.3835 17.0321 12.1324 17.6383 11.6854 18.0853C11.2384 18.5322 10.6322 18.7833 10.0001 18.7833C9.36803 18.7833 8.76182 18.5322 8.31486 18.0853C7.8679 17.6383 7.6168 17.0321 7.6168 16.4C7.60774 16.1155 7.65592 15.8321 7.75847 15.5667" stroke="#2A2A2A" stroke-width="1.5" stroke-miterlimit="10"/>
</g>
<defs>
<clipPath id="clip0_216_11215">
<rect width="20" height="20" fill="white"/>
</clipPath>
</defs>
</svg>
