<svg width="96" height="139" viewBox="0 0 96 139" fill="none" xmlns="http://www.w3.org/2000/svg">
<path d="M51.9055 0H19.4329C18.3953 0 17.4001 0.412195 16.6664 1.14591C15.9327 1.87962 15.5205 2.87474 15.5205 3.91237V16.0407C15.5205 17.0783 15.9327 18.0735 16.6664 18.8072C17.4001 19.5409 18.3953 19.9531 19.4329 19.9531H51.7099L55.8179 25.4304V3.91237C55.8179 2.87474 55.4057 1.87962 54.672 1.14591C53.9383 0.412195 52.9432 0 51.9055 0Z" fill="#263238"/>
<path d="M22.5907 13.3529H21.417V5.9194H22.5907V9.10016H23.9131V5.9194H25.0868V13.3529H23.9131V10.1721H22.5907V13.3529Z" fill="#6EB6FF"/>
<path d="M25.9512 5.93115H27.1249V13.3647H25.9512V5.93115Z" fill="#6EB6FF"/>
<path d="M29.2686 5.93115H32.8719V6.9914H31.6512V13.3529H30.4775V6.9914H29.2607L29.2686 5.93115Z" fill="#6EB6FF"/>
<path d="M34.5468 13.3529H33.373V5.9194H34.5468V9.10016H35.8652V5.9194H37.0389V13.3529H35.8652V10.1721H34.5389L34.5468 13.3529Z" fill="#6EB6FF"/>
<path d="M39.0731 9.05712H40.6733V10.1174H39.0731V12.2927H41.088V13.3529H37.9072V5.9194H41.088V6.97965H39.0731V9.05712Z" fill="#6EB6FF"/>
<path d="M44.245 13.3529C44.1494 13.0591 44.1135 12.7492 44.1394 12.4413V11.2676C44.1394 10.579 43.9086 10.3247 43.3569 10.3247H42.9657V13.3451H41.792V5.91159H43.5526C44.7615 5.91159 45.2818 6.47497 45.2818 7.61738V8.20033C45.2818 8.96324 45.0354 9.46402 44.4994 9.70659C45.0823 9.95307 45.2818 10.5125 45.2818 11.2715V12.4179C45.2607 12.7236 45.3047 13.0303 45.4109 13.3177L44.245 13.3529ZM42.9735 6.9914V9.27231H43.4313C43.8655 9.27231 44.1316 9.08061 44.1316 8.48984V7.75432C44.1316 7.22615 43.9516 6.97184 43.5369 6.97184L42.9735 6.9914Z" fill="#6EB6FF"/>
<path d="M47.2382 9.05712H48.8383V10.1174H47.2382V12.2927H49.2491V13.3529H46.0684V5.9194H49.2491V6.97965H47.2382V9.05712Z" fill="#6EB6FF"/>
<path d="M50.1213 11.7097L49.9727 9.02583V5.93115H51.1464V9.02583L50.9977 11.7097H50.1213ZM51.1151 12.2301V13.3529H49.9922V12.2301H51.1151Z" fill="#6EB6FF"/>
<path d="M57.2574 80.3053H51.2793V132.262H57.2574V80.3053Z" fill="#263238" stroke="#263238" stroke-linecap="round" stroke-linejoin="round"/>
<path d="M9.85449 99.1199V102.774H33.6808V99.1199H9.85449Z" fill="#263238" stroke="#263238" stroke-linecap="round" stroke-linejoin="round"/>
<path d="M12.3036 86.5064H8.64941V101.127H12.3036V86.5064Z" fill="#263238" stroke="#263238" stroke-linecap="round" stroke-linejoin="round"/>
<path d="M13.825 101.19C13.825 101.629 13.7384 102.064 13.57 102.471C13.4017 102.877 13.1549 103.246 12.8439 103.556C12.5329 103.867 12.1636 104.113 11.7574 104.281C11.3511 104.449 10.9157 104.535 10.476 104.535C10.3665 104.535 10.257 104.535 10.1513 104.535C9.54196 104.474 8.96078 104.248 8.47098 103.881C7.98118 103.513 7.6015 103.018 7.37323 102.45C7.14497 101.882 7.07685 101.262 7.17629 100.658C7.27573 100.054 7.53892 99.4884 7.93724 99.0234C8.33556 98.5583 8.85377 98.2113 9.4355 98.0202C10.0172 97.8291 10.6402 97.8011 11.2368 97.9393C11.8333 98.0775 12.3805 98.3767 12.8189 98.8042C13.2573 99.2316 13.5701 99.7712 13.7233 100.364C13.7901 100.634 13.8243 100.911 13.825 101.19Z" fill="white" stroke="#263238" stroke-linecap="round" stroke-linejoin="round"/>
<path d="M14.0723 88.7599C14.0702 89.6471 13.7166 90.4973 13.0889 91.1243C12.4612 91.7513 11.6105 92.104 10.7233 92.105C10.6138 92.105 10.5042 92.105 10.3947 92.105C9.78502 92.0466 9.20305 91.8221 8.71209 91.4559C8.22114 91.0898 7.83999 90.596 7.6101 90.0283C7.38022 89.4607 7.3104 88.8408 7.40826 88.2362C7.50611 87.6316 7.76788 87.0655 8.16509 86.5993C8.5623 86.1331 9.07975 85.7848 9.66114 85.5922C10.2425 85.3996 10.8656 85.3701 11.4626 85.507C12.0595 85.6438 12.6075 85.9418 13.047 86.3684C13.4864 86.795 13.8005 87.3339 13.9549 87.9266C14.0301 88.1981 14.0695 88.4782 14.0723 88.7599Z" fill="white" stroke="#263238" stroke-linecap="round" stroke-linejoin="round"/>
<path d="M20.0681 79.6831L15.1973 82.3058L16.2063 84.1797L21.0772 81.557L20.0681 79.6831Z" fill="#263238" stroke="#263238" stroke-linecap="round" stroke-linejoin="round"/>
<path d="M21.8851 81.7607L19.4868 83.0518L17.9531 80.2075L20.3553 78.9125C20.5438 78.8091 20.7511 78.7446 20.9649 78.7225C21.1787 78.7005 21.3948 78.7214 21.6004 78.7841C21.806 78.8468 21.9969 78.95 22.1621 79.0876C22.3272 79.2252 22.4631 79.3945 22.5619 79.5854C22.7582 79.9641 22.7973 80.4049 22.6705 80.8121C22.5438 81.2194 22.2616 81.5603 21.8851 81.7607Z" fill="white" stroke="#263238" stroke-linecap="round" stroke-linejoin="round"/>
<path d="M11.3727 69.6989L11.2006 79.6206L9.07617 79.5854L9.2444 69.6637L11.3727 69.6989Z" fill="#263238" stroke="#263238" stroke-linecap="round" stroke-linejoin="round"/>
<path d="M11.9475 69.1003L11.9045 71.8389L8.67285 71.7607L8.71589 69.022C8.71945 68.8098 8.76479 68.6004 8.8493 68.4057C8.93382 68.211 9.05585 68.0349 9.20845 67.8874C9.36104 67.7399 9.54119 67.6239 9.73862 67.546C9.93605 67.4682 10.1469 67.43 10.3591 67.4336C10.5735 67.4366 10.7851 67.4823 10.9816 67.5681C11.1781 67.6539 11.3555 67.7781 11.5034 67.9333C11.6513 68.0885 11.7668 68.2716 11.843 68.472C11.9193 68.6724 11.9548 68.886 11.9475 69.1003Z" fill="white" stroke="#263238" stroke-linecap="round" stroke-linejoin="round"/>
<path d="M19.3227 73.2982L14.6553 82.0541L12.7773 81.0565L17.4409 72.3006L19.3227 73.2982Z" fill="#263238" stroke="#263238" stroke-linecap="round" stroke-linejoin="round"/>
<path d="M20.1051 73.0283L18.8257 75.4344L15.9736 73.9203L17.2491 71.5103C17.4509 71.1331 17.7937 70.851 18.2027 70.7257C18.6117 70.6003 19.0537 70.6419 19.4322 70.8413C19.8111 71.0424 20.0947 71.3856 20.2209 71.7956C20.3471 72.2056 20.3054 72.649 20.1051 73.0283Z" fill="white" stroke="#263238" stroke-linecap="round" stroke-linejoin="round"/>
<path d="M3.83009 73.2591L8.45451 82.0385L6.57266 83.0322L1.94824 74.2528L3.83009 73.2591Z" fill="#263238" stroke="#263238" stroke-linecap="round" stroke-linejoin="round"/>
<path d="M8.16788 79.6245C8.09929 79.2185 7.91179 78.8419 7.6291 78.5424C7.3464 78.2429 6.98122 78.034 6.57977 77.9422C6.17832 77.8503 5.75865 77.8797 5.37386 78.0264C4.98907 78.1732 4.65647 78.4308 4.41814 78.7666C4.17981 79.1025 4.04647 79.5015 4.03499 79.9131C4.02351 80.3248 4.13441 80.7306 4.35366 81.0792C4.5729 81.4278 4.89064 81.7036 5.26665 81.8715C5.64266 82.0395 6.06005 82.0922 6.466 82.0228C7.00947 81.93 7.49391 81.6253 7.81298 81.1757C8.13206 80.726 8.25969 80.1682 8.16788 79.6245Z" fill="white" stroke="#263238" stroke-linecap="round" stroke-linejoin="round"/>
<path d="M10.2025 79.8984C11.352 79.8984 12.2839 78.9666 12.2839 77.817C12.2839 76.6675 11.352 75.7357 10.2025 75.7357C9.05296 75.7357 8.12109 76.6675 8.12109 77.817C8.12109 78.9666 9.05296 79.8984 10.2025 79.8984Z" fill="white" stroke="#263238" stroke-linecap="round" stroke-linejoin="round"/>
<path d="M16.994 79.0181C17.0566 78.6111 16.9972 78.1947 16.8231 77.8215C16.649 77.4484 16.3681 77.1352 16.016 76.9217C15.6639 76.7082 15.2563 76.604 14.8449 76.6222C14.4336 76.6404 14.0368 76.7802 13.7049 77.0239C13.373 77.2676 13.1209 77.6043 12.9804 77.9914C12.8399 78.3785 12.8173 78.7985 12.9156 79.1984C13.0139 79.5983 13.2286 79.96 13.5326 80.2378C13.8365 80.5156 14.216 80.6971 14.6231 80.7591C14.8931 80.8008 15.1688 80.7888 15.4341 80.7239C15.6995 80.6589 15.9495 80.5422 16.1697 80.3805C16.39 80.2188 16.5761 80.0152 16.7176 79.7814C16.859 79.5476 16.953 79.2883 16.994 79.0181Z" fill="white" stroke="#263238" stroke-linecap="round" stroke-linejoin="round"/>
<path d="M4.04459 72.4571L5.32003 74.8671L2.464 76.3812L1.18857 73.9673C1.08894 73.7798 1.02732 73.5746 1.00723 73.3633C0.987147 73.1519 1.00899 72.9388 1.07152 72.7359C1.13404 72.5331 1.23602 72.3446 1.37158 72.1812C1.50715 72.0179 1.67364 71.883 1.86149 71.7841C2.24045 71.5851 2.68281 71.5441 3.09188 71.6702C3.50096 71.7963 3.84348 72.0792 4.04459 72.4571Z" fill="white" stroke="#263238" stroke-linecap="round" stroke-linejoin="round"/>
<path d="M16.5956 83.6426C16.5956 85.199 15.9773 86.6917 14.8768 87.7922C13.7762 88.8928 12.2835 89.5111 10.7271 89.5111C10.5314 89.5111 10.3358 89.5111 10.1519 89.4876C9.08441 89.3818 8.0663 88.9854 7.20829 88.3415C6.35027 87.6975 5.68517 86.8308 5.28528 85.8353C4.88539 84.8399 4.76601 83.7538 4.9401 82.6953C5.1142 81.6368 5.57512 80.6462 6.27277 79.8313C6.97041 79.0163 7.87809 78.4082 8.89714 78.073C9.91619 77.7378 11.0076 77.6883 12.0528 77.93C13.098 78.1716 14.057 78.6952 14.8255 79.4436C15.594 80.1921 16.1426 81.137 16.4117 82.1754C16.5331 82.655 16.5948 83.1478 16.5956 83.6426Z" fill="white" stroke="#263238" stroke-linecap="round" stroke-linejoin="round"/>
<path d="M16.5959 83.6425C16.5959 85.199 15.9776 86.6917 14.877 87.7922C13.7765 88.8928 12.2838 89.5111 10.7273 89.5111C10.5317 89.5111 10.3361 89.5111 10.1522 89.4876C9.92737 88.6193 9.90456 87.711 10.0855 86.8325C10.2665 85.954 10.6464 85.1287 11.1961 84.42C11.7458 83.7112 12.4507 83.1379 13.2565 82.744C14.0624 82.3502 14.9478 82.1463 15.8447 82.148C16.0364 82.148 16.2359 82.148 16.4198 82.1754C16.5385 82.6554 16.5977 83.1481 16.5959 83.6425Z" fill="white" stroke="#263238" stroke-linecap="round" stroke-linejoin="round"/>
<path d="M46.1458 101.295C47.1422 97.037 44.498 92.7771 40.2396 91.7807C35.9813 90.7843 31.7215 93.4286 30.7251 97.6869C29.7287 101.945 32.3729 106.205 36.6313 107.201C40.8896 108.198 45.1494 105.554 46.1458 101.295Z" fill="white" stroke="#263238" stroke-linecap="round" stroke-linejoin="round"/>
<path d="M39.9073 103.032C41.8636 102.216 42.7881 99.9688 41.9721 98.0125C41.1562 96.0561 38.9088 95.1317 36.9524 95.9476C34.9961 96.7636 34.0716 99.011 34.8876 100.967C35.7035 102.924 37.9509 103.848 39.9073 103.032Z" fill="#263238" stroke="#263238" stroke-linecap="round" stroke-linejoin="round"/>
<path d="M37.0734 132.993H72.2064L72.7111 130.614C72.9135 129.664 72.7317 128.673 72.2054 127.856C71.6791 127.039 70.851 126.464 69.902 126.256C64.9216 125.137 54.1391 124.734 54.1391 124.734C51.5413 124.816 44.3112 125.125 39.3308 126.26C38.3884 126.475 37.5687 127.053 37.0488 127.867C36.529 128.682 36.3509 129.669 36.553 130.614L37.0734 132.993Z" fill="white" stroke="#263238" stroke-linecap="round" stroke-linejoin="round"/>
<path d="M63.094 125.313C58.5948 124.898 54.1503 124.734 54.1503 124.734C52.515 124.785 49.0408 124.93 45.4492 125.313C46.4977 128.893 50.0502 131.53 54.2716 131.53C58.4931 131.53 62.0455 128.881 63.094 125.313Z" fill="#6EB6FF" stroke="#263238" stroke-linecap="round" stroke-linejoin="round"/>
<path d="M90.967 116.217L93.1523 113.289L74.0564 99.0395L71.8711 101.968L90.967 116.217Z" fill="#263238" stroke="#263238" stroke-linecap="round" stroke-linejoin="round"/>
<path d="M81.4639 124.863L84.3926 127.048L93.1363 115.331L90.2076 113.145L81.4639 124.863Z" fill="#263238" stroke="#263238" stroke-linecap="round" stroke-linejoin="round"/>
<path d="M89.021 112.183C89.2844 111.83 89.6149 111.532 89.9935 111.307C90.372 111.082 90.7913 110.933 91.2273 110.87C91.6634 110.807 92.1076 110.83 92.5345 110.939C92.9615 111.047 93.363 111.239 93.7158 111.503L93.9701 111.71C94.4226 112.123 94.7533 112.651 94.9261 113.239C95.0989 113.827 95.1074 114.45 94.9505 115.042C94.7936 115.634 94.4773 116.172 94.0362 116.597C93.595 117.021 93.0458 117.317 92.4483 117.451C91.8508 117.586 91.2279 117.554 90.6474 117.359C90.0668 117.164 89.5508 116.814 89.1554 116.346C88.7601 115.878 88.5006 115.311 88.4052 114.706C88.3097 114.101 88.382 113.482 88.6141 112.915C88.7192 112.655 88.8558 112.409 89.021 112.183Z" fill="white" stroke="#263238" stroke-linecap="round" stroke-linejoin="round"/>
<path d="M81.3804 121.546C81.8764 120.809 82.6447 120.299 83.5164 120.129C84.388 119.959 85.2915 120.142 86.0283 120.638C86.1183 120.697 86.2043 120.763 86.2904 120.83C86.7628 121.219 87.1191 121.731 87.3208 122.31C87.5225 122.888 87.5617 123.511 87.4342 124.11C87.3066 124.709 87.0173 125.261 86.5976 125.707C86.1779 126.153 85.6439 126.476 85.0537 126.64C84.4635 126.803 83.8397 126.802 83.2502 126.636C82.6607 126.47 82.128 126.145 81.7101 125.697C81.2922 125.25 81.0052 124.696 80.8801 124.096C80.7551 123.497 80.7968 122.874 81.0009 122.297C81.0957 122.032 81.2231 121.779 81.3804 121.546Z" fill="white" stroke="#263238" stroke-linecap="round" stroke-linejoin="round"/>
<path d="M71.3245 125.737L76.8301 126.278L77.0381 124.16L71.5325 123.619L71.3245 125.737Z" fill="#263238" stroke="#263238" stroke-linecap="round" stroke-linejoin="round"/>
<path d="M70.9889 123.013L73.704 123.279L73.3871 126.495L70.672 126.229C70.2455 126.187 69.8531 125.978 69.5809 125.647C69.3087 125.316 69.179 124.891 69.2205 124.464C69.263 124.037 69.4731 123.645 69.8046 123.373C70.1361 123.101 70.562 122.971 70.9889 123.013Z" fill="white" stroke="#263238" stroke-linecap="round" stroke-linejoin="round"/>
<path d="M76.4274 124.382C76.8574 123.741 77.4096 123.192 78.0523 122.764C78.6951 122.337 79.4157 122.041 80.173 121.893C80.9304 121.745 81.7095 121.747 82.4659 121.9C83.2222 122.054 83.9409 122.354 84.5808 122.786C84.7412 122.895 84.8938 123.009 85.0425 123.13C85.8696 123.814 86.4935 124.711 86.8464 125.724C87.1992 126.738 87.2674 127.828 87.0436 128.878C86.8198 129.927 86.3126 130.895 85.5771 131.677C84.8415 132.458 83.9059 133.022 82.8718 133.309C81.8378 133.596 80.7449 133.593 79.7121 133.302C78.6793 133.011 77.7461 132.443 77.0139 131.658C76.2818 130.874 75.7787 129.904 75.5594 128.853C75.3401 127.803 75.413 126.712 75.7702 125.701C75.9322 125.235 76.153 124.792 76.4274 124.382Z" fill="white" stroke="#263238" stroke-linecap="round" stroke-linejoin="round"/>
<path d="M70.1045 130.477L77.3815 125.035L78.5513 126.596L71.2743 132.035L70.1045 130.477Z" fill="#263238" stroke="#263238" stroke-linecap="round" stroke-linejoin="round"/>
<path d="M69.35 130.395L71.3492 128.881L73.1254 131.229L71.1262 132.727C70.8123 132.962 70.4179 133.063 70.0298 133.007C69.6417 132.951 69.2916 132.744 69.0565 132.43C68.8311 132.119 68.7357 131.733 68.7905 131.353C68.8453 130.973 69.046 130.63 69.35 130.395Z" fill="white" stroke="#263238" stroke-linecap="round" stroke-linejoin="round"/>
<path d="M79.5023 126.714C79.5948 126.312 79.5658 125.892 79.4191 125.506C79.2724 125.121 79.0146 124.788 78.6783 124.55C78.3421 124.311 77.9425 124.178 77.5304 124.166C77.1182 124.155 76.7121 124.267 76.3634 124.487C76.0147 124.707 75.7392 125.025 75.5718 125.402C75.4044 125.779 75.3527 126.197 75.4233 126.603C75.4938 127.009 75.6834 127.386 75.968 127.684C76.2526 127.982 76.6194 128.189 77.0219 128.279C77.5582 128.398 78.1199 128.301 78.5846 128.007C79.0492 127.714 79.3791 127.249 79.5023 126.714Z" fill="white" stroke="#263238" stroke-linecap="round" stroke-linejoin="round"/>
<path d="M83.3604 135.947L84.4402 128.482L86.0403 128.709L84.9644 136.174L83.3604 135.947Z" fill="#263238" stroke="#263238" stroke-linecap="round" stroke-linejoin="round"/>
<path d="M82.8706 136.342L83.1641 134.288L85.5937 134.636L85.3002 136.686C85.2777 136.846 85.2238 137 85.1418 137.139C85.0598 137.278 84.9512 137.399 84.8222 137.496C84.6932 137.594 84.5464 137.664 84.3901 137.704C84.2338 137.745 84.0711 137.754 83.9113 137.731C83.5893 137.685 83.2989 137.512 83.1038 137.252C82.9087 136.991 82.8248 136.664 82.8706 136.342Z" fill="white" stroke="#263238" stroke-linecap="round" stroke-linejoin="round"/>
<path d="M86.6657 128.22C86.4815 127.933 86.2164 127.707 85.9038 127.571C85.5912 127.434 85.2453 127.394 84.9096 127.454C84.5739 127.514 84.2635 127.672 84.0177 127.908C83.7719 128.145 83.6016 128.449 83.5285 128.782C83.4553 129.115 83.4825 129.462 83.6066 129.78C83.7307 130.097 83.9461 130.371 84.2257 130.566C84.5053 130.762 84.8365 130.87 85.1775 130.877C85.5185 130.884 85.8539 130.79 86.1414 130.607C86.5271 130.359 86.7989 129.969 86.8972 129.522C86.9955 129.074 86.9122 128.606 86.6657 128.22Z" fill="white" stroke="#263238" stroke-linecap="round" stroke-linejoin="round"/>
<path d="M76.1572 134.953L81.0086 127.269L82.6557 128.302L77.8082 135.99L76.1572 134.953Z" fill="#263238" stroke="#263238" stroke-linecap="round" stroke-linejoin="round"/>
<path d="M75.4257 135.141L76.752 133.028L79.2599 134.593L77.9297 136.71C77.7203 137.041 77.3884 137.276 77.0065 137.363C76.6246 137.45 76.2237 137.383 75.8913 137.175C75.5604 136.967 75.3257 136.636 75.2384 136.254C75.1512 135.873 75.2185 135.473 75.4257 135.141Z" fill="white" stroke="#263238" stroke-linecap="round" stroke-linejoin="round"/>
<path d="M83.5951 128.075C83.5371 127.668 83.3594 127.287 83.0845 126.981C82.8096 126.674 82.45 126.457 82.0512 126.355C81.6524 126.253 81.2324 126.273 80.8445 126.41C80.4566 126.547 80.1183 126.797 79.8724 127.127C79.6266 127.457 79.4843 127.853 79.4636 128.264C79.4429 128.675 79.5447 129.083 79.7561 129.436C79.9676 129.789 80.2791 130.071 80.6513 130.247C81.0234 130.422 81.4393 130.484 81.8463 130.423C82.3891 130.342 82.8779 130.05 83.2057 129.61C83.5335 129.17 83.6735 128.618 83.5951 128.075Z" fill="white" stroke="#263238" stroke-linecap="round" stroke-linejoin="round"/>
<path d="M74.6075 106.287C78.2849 103.92 79.347 99.0198 76.9798 95.3425C74.6127 91.6651 69.7127 90.603 66.0353 92.9702C62.358 95.3373 61.2959 100.237 63.6631 103.915C66.0302 107.592 70.9302 108.654 74.6075 106.287Z" fill="white" stroke="#263238" stroke-linecap="round" stroke-linejoin="round"/>
<path d="M73.8136 101.232C74.6973 99.3049 73.8518 97.0266 71.9252 96.1428C69.9985 95.2591 67.7202 96.1046 66.8365 98.0313C65.9527 99.958 66.7982 102.236 68.7249 103.12C70.6516 104.004 72.9299 103.158 73.8136 101.232Z" fill="#263238" stroke="#263238" stroke-linecap="round" stroke-linejoin="round"/>
<path d="M54.2679 83.936C61.2925 83.936 66.9871 78.2414 66.9871 71.2168C66.9871 64.1923 61.2925 58.4977 54.2679 58.4977C47.2434 58.4977 41.5488 64.1923 41.5488 71.2168C41.5488 78.2414 47.2434 83.936 54.2679 83.936Z" fill="#6EB6FF" stroke="#263238" stroke-linecap="round" stroke-linejoin="round"/>
<path d="M72.4526 79.6871C75.1841 76.2625 76.8936 72.1365 77.3843 67.7835C77.8751 63.4305 77.1272 59.0274 75.2267 55.0805C73.3263 51.1337 70.3504 47.8034 66.6413 45.4728C62.9322 43.1421 58.6406 41.9056 54.26 41.9056C49.8795 41.9056 45.5879 43.1421 41.8788 45.4728C38.1697 47.8034 35.1938 51.1337 33.2933 55.0805C31.3929 59.0274 30.645 63.4305 31.1358 67.7835C31.6265 72.1365 33.336 76.2625 36.0675 79.6871H72.4526Z" fill="white" stroke="#263238" stroke-linecap="round" stroke-linejoin="round"/>
<path d="M68.5006 56.3929H39.4474C37.6799 56.3929 36.2471 57.8257 36.2471 59.5932V69.8906C36.2471 71.658 37.6799 73.0909 39.4474 73.0909H68.5006C70.2681 73.0909 71.701 71.658 71.701 69.8906V59.5932C71.701 57.8257 70.2681 56.3929 68.5006 56.3929Z" fill="#6EB6FF" stroke="#263238" stroke-linecap="round" stroke-linejoin="round"/>
<path d="M40.0811 64.065C40.4653 62.9892 41.1656 62.0546 42.0902 61.3836C43.0147 60.7126 44.1204 60.3367 45.2624 60.305C46.4043 60.2732 47.5292 60.5873 48.4896 61.2059C49.45 61.8245 50.2011 62.7188 50.6445 63.7716" stroke="#263238" stroke-width="5" stroke-linecap="round" stroke-linejoin="round"/>
<path d="M57.6055 64.065C57.9897 62.9892 58.69 62.0546 59.6146 61.3836C60.5391 60.7126 61.6449 60.3367 62.7868 60.305C63.9287 60.2732 65.0536 60.5873 66.014 61.2059C66.9744 61.8245 67.7255 62.7188 68.1689 63.7716" stroke="#263238" stroke-width="5" stroke-linecap="round" stroke-linejoin="round"/>
<path d="M51.2002 67.9344C51.2984 68.7102 51.6763 69.4236 52.263 69.9407C52.8496 70.4578 53.6048 70.7431 54.3868 70.7431C55.1688 70.7431 55.924 70.4578 56.5107 69.9407C57.0974 69.4236 57.4752 68.7102 57.5734 67.9344H51.2002Z" fill="white" stroke="#263238" stroke-linecap="round" stroke-linejoin="round"/>
<path d="M84.3778 69.2568C83.7324 69.2568 83.1135 69.0004 82.6571 68.544C82.2007 68.0876 81.9443 67.4687 81.9443 66.8233V61.2873C81.9438 60.9674 82.0064 60.6505 82.1285 60.3548C82.2505 60.0591 82.4297 59.7904 82.6557 59.564C82.8817 59.3376 83.1502 59.158 83.4457 59.0355C83.7412 58.9129 84.0579 58.8499 84.3778 58.8499C84.6977 58.8493 85.0146 58.9119 85.3103 59.034C85.606 59.156 85.8747 59.3352 86.1011 59.5612C86.3275 59.7873 86.5071 60.0557 86.6296 60.3512C86.7522 60.6467 86.8152 60.9635 86.8152 61.2834V66.8194C86.8158 67.1396 86.7531 67.4568 86.6308 67.7527C86.5084 68.0487 86.3289 68.3176 86.1025 68.544C85.8761 68.7704 85.6072 68.95 85.3112 69.0723C85.0152 69.1946 84.6981 69.2573 84.3778 69.2568Z" fill="#263238" stroke="#263238" stroke-linecap="round" stroke-linejoin="round"/>
<path d="M23.4931 69.2568C23.1732 69.2573 22.8563 69.1947 22.5606 69.0726C22.2649 68.9506 21.9962 68.7714 21.7698 68.5454C21.5434 68.3194 21.3638 68.0509 21.2413 67.7554C21.1187 67.4599 21.0557 67.1432 21.0557 66.8233V61.2873C21.0552 60.967 21.1178 60.6499 21.2402 60.3539C21.3625 60.0579 21.542 59.789 21.7684 59.5626C21.9949 59.3362 22.2638 59.1567 22.5597 59.0343C22.8557 58.912 23.1728 58.8493 23.4931 58.8499C23.8126 58.8499 24.1291 58.9128 24.4243 59.0351C24.7196 59.1574 24.9878 59.3366 25.2138 59.5626C25.4398 59.7886 25.619 60.0569 25.7413 60.3521C25.8636 60.6473 25.9266 60.9638 25.9266 61.2834V66.8194C25.9271 67.1392 25.8645 67.4561 25.7424 67.7518C25.6204 68.0475 25.4412 68.3162 25.2152 68.5426C24.9892 68.769 24.7207 68.9486 24.4252 69.0711C24.1297 69.1937 23.813 69.2568 23.4931 69.2568Z" fill="#263238" stroke="#263238" stroke-linecap="round" stroke-linejoin="round"/>
<path d="M31.2942 44.2763C29.1417 47.4568 27.9941 51.2105 28 55.0509V59.0729" stroke="#263238" stroke-width="14" stroke-linecap="round" stroke-linejoin="round"/>
<path d="M77.4912 44.2919C75.7297 41.6675 73.3493 39.517 70.5599 38.0302C67.7706 36.5434 64.6582 35.7661 61.4974 35.7669H47.276C44.1196 35.7647 41.011 36.5386 38.224 38.0204C35.4371 39.5022 33.0572 41.6466 31.2939 44.2645" stroke="#263238" stroke-width="7" stroke-linecap="round" stroke-linejoin="round"/>
<path d="M80.7708 59.0729V55.0509C80.7768 51.2177 79.6349 47.4704 77.4922 44.2919" stroke="#263238" stroke-width="14" stroke-linecap="round" stroke-linejoin="round"/>
<path d="M29.9411 54.7419H26.6782C24.7897 54.7419 23.2588 56.2728 23.2588 58.1613V69.4641C23.2588 71.3526 24.7897 72.8835 26.6782 72.8835H29.9411C31.8296 72.8835 33.3605 71.3526 33.3605 69.4641V58.1613C33.3605 56.2728 31.8296 54.7419 29.9411 54.7419Z" fill="white" stroke="#263238" stroke-linecap="round" stroke-linejoin="round"/>
<path d="M28.8258 54.7419H27.7969V72.8835H28.8258V54.7419Z" fill="#6EB6FF" stroke="#263238" stroke-linecap="round" stroke-linejoin="round"/>
<path d="M81.4743 54.7419H78.2114C76.3229 54.7419 74.792 56.2728 74.792 58.1613V69.4641C74.792 71.3526 76.3229 72.8835 78.2114 72.8835H81.4743C83.3628 72.8835 84.8937 71.3526 84.8937 69.4641V58.1613C84.8937 56.2728 83.3628 54.7419 81.4743 54.7419Z" fill="white" stroke="#263238" stroke-linecap="round" stroke-linejoin="round"/>
<path d="M80.359 54.7419H79.3301V72.8835H80.359V54.7419Z" fill="#6EB6FF" stroke="#263238" stroke-linecap="round" stroke-linejoin="round"/>
<path d="M54.3493 53.0948C56.1315 53.0952 57.8855 52.6493 59.4511 51.7978C61.0168 50.9463 62.3443 49.7163 63.3125 48.2199L65.5191 44.8045C62.0225 42.8735 58.0876 41.8753 54.0934 41.9061C50.0992 41.937 46.1802 42.9958 42.7139 44.9805L46.0355 49.1041C47.0347 50.3486 48.3003 51.3531 49.7391 52.0437C51.1779 52.7344 52.7533 53.0935 54.3493 53.0948Z" fill="#6EB6FF" stroke="#263238" stroke-linecap="round" stroke-linejoin="round"/>
<path d="M54.9016 74.781C54.9016 74.7037 54.8787 74.628 54.8357 74.5637C54.7927 74.4993 54.7316 74.4492 54.6601 74.4196C54.5886 74.39 54.5099 74.3822 54.434 74.3973C54.3582 74.4124 54.2884 74.4497 54.2337 74.5044C54.179 74.5591 54.1418 74.6288 54.1267 74.7047C54.1116 74.7806 54.1193 74.8593 54.1489 74.9308C54.1785 75.0022 54.2287 75.0634 54.293 75.1063C54.3574 75.1493 54.433 75.1723 54.5104 75.1723C54.6141 75.1723 54.7137 75.131 54.787 75.0577C54.8604 74.9843 54.9016 74.8848 54.9016 74.781Z" fill="#263238"/>
<path d="M54.9016 76.0956C54.9016 76.0182 54.8787 75.9426 54.8357 75.8782C54.7927 75.8139 54.7316 75.7637 54.6601 75.7341C54.5886 75.7045 54.5099 75.6968 54.434 75.7119C54.3582 75.727 54.2884 75.7642 54.2337 75.8189C54.179 75.8737 54.1418 75.9434 54.1267 76.0193C54.1116 76.0952 54.1193 76.1738 54.1489 76.2453C54.1785 76.3168 54.2287 76.3779 54.293 76.4209C54.3574 76.4639 54.433 76.4868 54.5104 76.4868C54.6141 76.4868 54.7137 76.4456 54.787 76.3722C54.8604 76.2989 54.9016 76.1993 54.9016 76.0956Z" fill="#263238"/>
<path d="M53.4108 75.8921C53.4823 75.846 53.5368 75.7779 53.566 75.698C53.5953 75.6181 53.5977 75.5309 53.5729 75.4495C53.5482 75.3682 53.4976 75.2971 53.4288 75.247C53.36 75.197 53.2768 75.1708 53.1917 75.1723C53.1203 75.2184 53.0658 75.2866 53.0366 75.3664C53.0073 75.4463 53.0049 75.5335 53.0296 75.6149C53.0544 75.6963 53.105 75.7673 53.1738 75.8174C53.2426 75.8674 53.3258 75.8936 53.4108 75.8921Z" fill="#263238"/>
<path d="M55.7616 75.8921C55.8222 75.8911 55.8816 75.876 55.9353 75.848C55.989 75.8201 56.0355 75.78 56.0711 75.7311C56.1067 75.6821 56.1305 75.6256 56.1405 75.5659C56.1506 75.5062 56.1466 75.4449 56.129 75.387C56.1114 75.3291 56.0806 75.2761 56.039 75.2321C55.9974 75.1881 55.9461 75.1544 55.8893 75.1336C55.8324 75.1128 55.7715 75.1054 55.7113 75.1121C55.6512 75.1188 55.5934 75.1394 55.5425 75.1722C55.482 75.1733 55.4225 75.1884 55.3688 75.2164C55.3151 75.2443 55.2687 75.2843 55.233 75.3333C55.1974 75.3822 55.1737 75.4388 55.1636 75.4985C55.1536 75.5582 55.1575 75.6194 55.1752 75.6773C55.1928 75.7353 55.2236 75.7883 55.2652 75.8323C55.3068 75.8763 55.358 75.91 55.4149 75.9308C55.4717 75.9516 55.5326 75.959 55.5928 75.9523C55.653 75.9455 55.7108 75.925 55.7616 75.8921Z" fill="#263238"/>
<path d="M69.9018 89.4602C64.9213 88.3374 54.1389 87.9344 54.1389 87.9344C51.541 88.0166 44.311 88.3257 39.3305 89.4642C38.3877 89.6784 37.5672 90.2557 37.0472 91.0708C36.5272 91.886 36.3496 92.8733 36.5528 93.8186L41.1654 115.399C41.3921 116.446 41.9695 117.383 42.8021 118.056C43.6346 118.729 44.6723 119.098 45.7429 119.1H63.5246C64.5953 119.098 65.6329 118.729 66.4655 118.056C67.298 117.383 67.8755 116.446 68.1021 115.399L72.7109 93.8186C72.9133 92.8684 72.7314 91.8767 72.2051 91.0601C71.6788 90.2435 70.8507 89.6684 69.9018 89.4602Z" fill="white" stroke="#263238" stroke-linecap="round" stroke-linejoin="round"/>
<path d="M67.6323 89.0455C62.2294 88.2396 54.1503 87.9344 54.1503 87.9344C50.1946 88.0477 46.2478 88.3742 42.3271 88.9125L47.5541 119.1H61.7599L67.6323 89.0455Z" fill="#6EB6FF" stroke="#263238" stroke-linecap="round" stroke-linejoin="round"/>
<path d="M58.8144 94.4955H50.1603C48.3928 94.4955 46.96 95.9283 46.96 97.6958V101.921C46.96 103.689 48.3928 105.121 50.1603 105.121H58.8144C60.5819 105.121 62.0148 103.689 62.0148 101.921V97.6958C62.0148 95.9283 60.5819 94.4955 58.8144 94.4955Z" fill="white" stroke="#263238" stroke-linecap="round" stroke-linejoin="round"/>
<path d="M51.9589 98.8734H49.5215V101.311H51.9589V98.8734Z" fill="white" stroke="#263238" stroke-linecap="round" stroke-linejoin="round"/>
<path d="M55.704 98.8734H53.2666V101.311H55.704V98.8734Z" fill="white" stroke="#263238" stroke-linecap="round" stroke-linejoin="round"/>
<path d="M59.4511 98.8734H57.0137V101.311H59.4511V98.8734Z" fill="white" stroke="#263238" stroke-linecap="round" stroke-linejoin="round"/>
</svg>
