<svg width="24" height="24" viewBox="0 0 24 24" fill="none" xmlns="http://www.w3.org/2000/svg">
<g clip-path="url(#clip0_216_13656)">
<path d="M1.5 16.5298V4.12977H7.23L9.14 1.25977H14.86L16.77 4.12977H22.5V16.5298" stroke="white" stroke-width="2" stroke-miterlimit="10"/>
<path d="M12.0001 15.5799C14.1098 15.5799 15.8201 13.8697 15.8201 11.7599C15.8201 9.65021 14.1098 7.93994 12.0001 7.93994C9.89033 7.93994 8.18005 9.65021 8.18005 11.7599C8.18005 13.8697 9.89033 15.5799 12.0001 15.5799Z" stroke="white" stroke-width="2" stroke-miterlimit="10"/>
<path d="M17.73 7.93994H19.64" stroke="white" stroke-width="2" stroke-miterlimit="10"/>
<path d="M1.5 16.5298C1.5 18.4098 5.32 20.3498 10.15 20.2998" stroke="white" stroke-width="2" stroke-miterlimit="10"/>
<path d="M13.91 20.2898C18.68 20.3498 22.5 18.4098 22.5 16.5298" stroke="white" stroke-width="2" stroke-miterlimit="10"/>
<path d="M7.70996 17.8501L10.15 20.2901L7.70996 22.7401" stroke="white" stroke-width="2" stroke-miterlimit="10"/>
</g>
<defs>
<clipPath id="clip0_216_13656">
<rect width="24" height="24" fill="white"/>
</clipPath>
</defs>
</svg>
