<svg width="14" height="14" viewBox="0 0 14 14" fill="none" xmlns="http://www.w3.org/2000/svg">
<g clip-path="url(#clip0_216_11738)">
<path d="M13.125 8.11426H0.875V13.1251H13.125V8.11426Z" stroke="#6EB6FF" stroke-width="0.8" stroke-miterlimit="10"/>
<path d="M2.82346 10.8964C2.9781 10.8964 3.10346 10.7711 3.10346 10.6164C3.10346 10.4618 2.9781 10.3364 2.82346 10.3364C2.66882 10.3364 2.54346 10.4618 2.54346 10.6164C2.54346 10.7711 2.66882 10.8964 2.82346 10.8964Z" stroke="#6EB6FF" stroke-width="0.8" stroke-miterlimit="10"/>
<path d="M5.60568 10.8964C5.76032 10.8964 5.88568 10.7711 5.88568 10.6164C5.88568 10.4618 5.76032 10.3364 5.60568 10.3364C5.45104 10.3364 5.32568 10.4618 5.32568 10.6164C5.32568 10.7711 5.45104 10.8964 5.60568 10.8964Z" stroke="#6EB6FF" stroke-width="0.8" stroke-miterlimit="10"/>
<path d="M8.39426 10.8964C8.5489 10.8964 8.67426 10.7711 8.67426 10.6164C8.67426 10.4618 8.5489 10.3364 8.39426 10.3364C8.23962 10.3364 8.11426 10.4618 8.11426 10.6164C8.11426 10.7711 8.23962 10.8964 8.39426 10.8964Z" stroke="#6EB6FF" stroke-width="0.8" stroke-miterlimit="10"/>
<path d="M11.1765 10.8964C11.3311 10.8964 11.4565 10.7711 11.4565 10.6164C11.4565 10.4618 11.3311 10.3364 11.1765 10.3364C11.0218 10.3364 10.8965 10.4618 10.8965 10.6164C10.8965 10.7711 11.0218 10.8964 11.1765 10.8964Z" stroke="#6EB6FF" stroke-width="0.8" stroke-miterlimit="10"/>
<path d="M8.67404 3.10352H5.33154V5.88602H8.67404V3.10352Z" stroke="#6EB6FF" stroke-width="0.8" stroke-miterlimit="10"/>
<path d="M6.99991 0.875C7.2954 0.875 7.5788 0.992385 7.78774 1.20133C7.99669 1.41028 8.11408 1.69367 8.11408 1.98917V3.10333H5.88574V1.98917C5.88574 1.69367 6.00313 1.41028 6.21207 1.20133C6.42102 0.992385 6.70441 0.875 6.99991 0.875Z" stroke="#6EB6FF" stroke-width="0.8" stroke-miterlimit="10"/>
</g>
<defs>
<clipPath id="clip0_216_11738">
<rect width="14" height="14" fill="white"/>
</clipPath>
</defs>
</svg>
