<svg width="80" height="16" viewBox="0 0 80 16" fill="none" xmlns="http://www.w3.org/2000/svg">
<path opacity="0.59" d="M5.62867 5.46239H16.8678C16.8678 6.28803 16.5398 7.07986 15.956 7.66368C15.3721 8.2475 14.5803 8.57548 13.7547 8.57548H5.63865C5.22594 8.57548 4.83013 8.41154 4.5383 8.1197C4.24647 7.82787 4.08252 7.43206 4.08252 7.01935C4.08252 6.60656 4.24644 6.21067 4.53825 5.91871C4.83006 5.62674 5.22586 5.46261 5.63865 5.46239H5.62867Z" fill="#A1D0FF"/>
<path opacity="0.59" d="M16.7336 1.35654L14.4868 4.46963H17.4376C18.2633 4.46963 19.0551 4.14165 19.6389 3.55783C20.2228 2.97401 20.5507 2.18218 20.5507 1.35654H16.7336Z" fill="#A1D0FF"/>
<path opacity="0.59" d="M10.6799 4.41222L12.8809 1.35654H5.65283C6.69037 1.35606 7.70807 1.64084 8.59466 2.17976C9.48126 2.71867 10.2026 3.49097 10.6799 4.41222Z" fill="#A1D0FF"/>
<path d="M10.7043 4.46998L10.68 4.42221L10.6465 4.46998H10.7043Z" fill="#6EB6FF"/>
<path d="M12.9573 1.27582L12.8808 1.35904L10.6797 4.41222L10.7039 4.45965H10.6465L9.9258 5.4624L7.58661 8.67619C7.31177 8.99872 6.96088 9.24767 6.56567 9.40053C6.17045 9.55339 5.74336 9.60534 5.32303 9.55167C4.90269 9.49801 4.50235 9.34044 4.15821 9.09319C3.81407 8.84594 3.53698 8.51682 3.35199 8.13559C3.16699 7.75435 3.07993 7.33302 3.09868 6.90969C3.11742 6.48635 3.24138 6.07436 3.45934 5.71097C3.67731 5.34758 3.9824 5.04424 4.34705 4.82837C4.7117 4.61251 5.12439 4.49093 5.54783 4.47463H10.6465L10.6797 4.42637C10.2044 3.50248 9.48386 2.7273 8.59712 2.1858C7.71039 1.64431 6.69168 1.3574 5.65268 1.35654H5.31399C4.37061 1.41411 3.45668 1.70706 2.65562 2.20864C1.85456 2.71023 1.19189 3.40447 0.72811 4.22799C0.264331 5.05151 0.014213 5.97809 0.000588127 6.92313C-0.0130368 7.86816 0.210266 8.80156 0.650111 9.63812C1.08996 10.4747 1.73233 11.1877 2.5186 11.7122C3.30487 12.2367 4.20998 12.5558 5.15131 12.6406C6.09264 12.7253 7.0402 12.5729 7.90749 12.1973C8.77479 11.8217 9.53419 11.2348 10.1164 10.4903L10.3269 10.2082L13.7645 5.4649L14.4852 4.47214L16.732 1.35904L17.3004 0.59512C16.6338 0.110458 15.8023 -0.0900586 14.9881 0.0375505C14.174 0.16516 13.4436 0.610476 12.9573 1.27582Z" fill="#6EB6FF"/>
<path d="M38.7968 3.20893V4.37395C39.0684 4.10031 39.3932 3.88534 39.7513 3.74234C40.1328 3.59148 40.5393 3.51385 40.9496 3.5135C43.1459 3.5135 44.2441 4.80085 44.2441 7.37554V12.6273C43.5233 12.6222 42.8337 12.333 42.3249 11.8224C41.8162 11.3118 41.5295 10.6211 41.5271 9.9003V7.55861C41.5598 7.1346 41.4321 6.71377 41.1693 6.37945C41.039 6.24454 40.8812 6.13932 40.7065 6.07096C40.5319 6.00261 40.3446 5.97272 40.1574 5.98334C39.973 5.97445 39.789 6.00521 39.6176 6.07354C39.4462 6.14188 39.2914 6.24619 39.1638 6.37945C38.8957 6.71142 38.7645 7.13316 38.7968 7.55861V12.6289C38.4387 12.6309 38.0838 12.5623 37.7522 12.4271C37.4206 12.2919 37.119 12.0926 36.8644 11.8408C36.6099 11.5889 36.4074 11.2894 36.2687 10.9593C36.1299 10.6292 36.0575 10.275 36.0557 9.91694V0.478626C36.4143 0.477312 36.7697 0.546655 37.1016 0.682695C37.4334 0.818735 37.7353 1.01881 37.9898 1.27149C38.2443 1.52417 38.4466 1.82452 38.5851 2.15537C38.7235 2.48623 38.7955 2.84112 38.7968 3.19978V3.20893Z" fill="#6EB6FF"/>
<path d="M55.4204 8.16026C55.417 7.32413 55.6595 6.50545 56.1178 5.80609C56.5716 5.09038 57.2097 4.51003 57.9652 4.12596C58.633 3.77265 59.3687 3.56604 60.1228 3.51997C60.877 3.47391 61.6323 3.58944 62.3382 3.85884C62.9405 4.07827 63.4938 4.41388 63.9667 4.84661C64.4343 5.26847 64.8126 5.77977 65.0793 6.35032C65.3474 6.93607 65.4837 7.5735 65.4787 8.21768C65.4835 8.85933 65.3448 9.49395 65.0726 10.075C64.811 10.6443 64.4358 11.154 63.97 11.5729C63.5017 12.0057 62.9513 12.3402 62.3515 12.5565C61.1269 13.0017 59.7847 13.0017 58.5602 12.5565L58.3646 12.4733L58.1641 12.3901V16C57.4389 15.9974 56.7443 15.7074 56.2325 15.1936C55.7208 14.6798 55.4335 13.9841 55.4338 13.2589L55.4204 8.16026ZM58.1516 8.21768C58.1453 8.60813 58.2567 8.99144 58.4711 9.31779C58.6795 9.66031 58.972 9.9439 59.3208 10.1416C59.6612 10.3399 60.0485 10.4436 60.4425 10.442C60.8427 10.4448 61.2364 10.3411 61.5834 10.1416C61.928 9.94934 62.2188 9.67348 62.4289 9.33942C62.6408 9.01253 62.7519 8.63054 62.7484 8.24098C62.75 7.94499 62.6897 7.65193 62.5714 7.38064C62.453 7.10934 62.2792 6.86582 62.0611 6.6657C61.6338 6.2435 61.0573 6.00674 60.4567 6.00674C59.856 6.00674 59.2795 6.2435 58.8523 6.6657C58.6322 6.86371 58.4564 7.10592 58.3364 7.37651C58.2164 7.6471 58.1548 7.93997 58.1557 8.23598L58.1516 8.21768Z" fill="#6EB6FF"/>
<path d="M70.914 3.51932C70.1733 3.51858 69.4429 3.69351 68.7829 4.02975C68.1229 4.366 67.5521 4.85398 67.1172 5.45362C66.6824 6.05327 66.3959 6.7475 66.2814 7.47931C66.1669 8.21113 66.2276 8.95967 66.4584 9.6635C66.6893 10.3673 67.0838 11.0064 67.6095 11.5282C68.1353 12.05 68.7772 12.4397 69.4828 12.6652C70.1883 12.8908 70.9373 12.9459 71.6682 12.8258C72.3992 12.7058 73.0912 12.4142 73.6876 11.9749C73.9183 12.2597 74.2101 12.4891 74.5414 12.6461C74.8727 12.8031 75.235 12.8837 75.6015 12.8819V8.20353C75.6015 7.58811 75.4803 6.97872 75.2447 6.41019C75.0091 5.84166 74.6637 5.32513 74.2284 4.89012C73.7931 4.4551 73.2763 4.11014 72.7076 3.87493C72.1389 3.63972 71.5294 3.51888 70.914 3.51932ZM70.914 10.4187C70.4749 10.4186 70.0458 10.2882 69.6808 10.0442C69.3158 9.8001 69.0313 9.45329 68.8634 9.04759C68.6955 8.64189 68.6516 8.19551 68.7374 7.76489C68.8232 7.33427 69.0347 6.93874 69.3452 6.62833C69.6558 6.31791 70.0514 6.10654 70.482 6.02094C70.9127 5.93534 71.359 5.97936 71.7647 6.14742C72.1703 6.31549 72.517 6.60006 72.7609 6.96515C73.0048 7.33024 73.135 7.75946 73.135 8.19854V8.20353C73.135 8.4945 73.0777 8.78263 72.9663 9.05144C72.855 9.32026 72.6917 9.5645 72.4859 9.77021C72.2801 9.97592 72.0358 10.1391 71.767 10.2503C71.4981 10.3616 71.21 10.4188 70.919 10.4187H70.914Z" fill="#6EB6FF"/>
<path d="M49.8391 3.51933C49.0982 3.51793 48.3675 3.69229 47.7071 4.0281C47.0467 4.36392 46.4753 4.8516 46.04 5.4511C45.6046 6.0506 45.3177 6.74482 45.2027 7.47674C45.0878 8.20867 45.1481 8.95742 45.3787 9.66152C45.6093 10.3656 46.0036 11.005 46.5293 11.5271C47.055 12.0492 47.697 12.4391 48.4027 12.6649C49.1083 12.8907 49.8575 12.9459 50.5886 12.8259C51.3197 12.706 52.012 12.4143 52.6085 11.9749C52.8395 12.2583 53.1308 12.4868 53.4611 12.6437C53.7914 12.8006 54.1526 12.882 54.5183 12.8819V8.20353C54.5183 6.96207 54.0254 5.77138 53.1481 4.89306C52.2707 4.01475 51.0805 3.52065 49.8391 3.51933ZM49.8391 10.4187C49.3999 10.4197 48.9704 10.2905 48.6048 10.0473C48.2391 9.8042 47.9537 9.45809 47.7848 9.05279C47.6158 8.64748 47.5709 8.20117 47.6556 7.77031C47.7403 7.33944 47.9508 6.94336 48.2606 6.63217C48.5704 6.32097 48.9656 6.10863 49.396 6.02199C49.8265 5.93536 50.273 5.97832 50.6791 6.14545C51.0852 6.31258 51.4325 6.59636 51.6773 6.96092C51.9221 7.32548 52.0533 7.75444 52.0543 8.19355V8.20353C52.0527 8.79057 51.8188 9.35312 51.4037 9.76822C50.9886 10.1833 50.4261 10.4172 49.8391 10.4187Z" fill="#6EB6FF"/>
<path d="M30.8854 10.0459C30.336 10.0431 29.7958 9.90489 29.3125 9.64351C28.8293 9.38212 28.418 9.00564 28.1149 8.54738C27.8119 8.08913 27.6265 7.56323 27.5752 7.01624C27.5239 6.46925 27.6082 5.91804 27.8207 5.41141C28.0332 4.90478 28.3673 4.45835 28.7935 4.11164C29.2196 3.76493 29.7247 3.52863 30.264 3.42366C30.8032 3.31869 31.3601 3.34828 31.8852 3.50983C32.4103 3.67137 32.8875 3.95988 33.2745 4.34981L35.2217 2.44085C34.3787 1.58129 33.2997 0.991018 32.1212 0.744691C30.9427 0.498363 29.7177 0.607039 28.6009 1.05698C27.4842 1.50691 26.526 2.2779 25.8474 3.27244C25.1689 4.26698 24.8005 5.44039 24.7889 6.6443C24.7772 7.84821 25.1229 9.02853 25.782 10.036C26.4412 11.0435 27.3844 11.8328 28.4922 12.3043C29.6 12.7757 30.8228 12.9081 32.0058 12.6846C33.1888 12.4611 34.279 11.8918 35.1385 11.0487L35.1868 11.0012L33.2745 9.09144C32.9589 9.4003 32.5854 9.64366 32.1753 9.80747C31.7653 9.97129 31.3269 10.0523 30.8854 10.0459Z" fill="#6EB6FF"/>
<path d="M77.4968 3.31379V2.04891H77.02V1.89163H78.1135V2.04891H77.6358V3.31379H77.4968Z" fill="#6EB6FF"/>
<path d="M79.7224 3.31376H79.5559V2.21615L79.1016 3.30461H78.9535L78.4999 2.21615V3.31376H78.3335V1.88162H78.544L79.0217 3.07077L79.4985 1.88162H79.7232L79.7224 3.31376Z" fill="#6EB6FF"/>
</svg>
