<svg width="30" height="30" viewBox="0 0 30 30" fill="none" xmlns="http://www.w3.org/2000/svg">
<path d="M15.4688 2.8125C12.3618 2.81591 9.38306 4.05166 7.18611 6.24861C4.98916 8.44556 3.75341 11.4243 3.75 14.5312V24.4137C3.75062 24.9005 3.94429 25.3672 4.28853 25.7115C4.63278 26.0557 5.09949 26.2494 5.58633 26.25H15.4688C18.5768 26.25 21.5575 25.0154 23.7552 22.8177C25.9529 20.62 27.1875 17.6393 27.1875 14.5312C27.1875 11.4232 25.9529 8.44253 23.7552 6.24484C21.5575 4.04715 18.5768 2.8125 15.4688 2.8125ZM15.4688 24.375H5.625V14.5312C5.625 12.5843 6.20233 10.6812 7.28397 9.06236C8.36562 7.44356 9.903 6.18186 11.7017 5.43681C13.5004 4.69176 15.4797 4.49682 17.3892 4.87664C19.2987 5.25647 21.0527 6.19399 22.4293 7.57067C23.806 8.94734 24.7435 10.7013 25.1234 12.6108C25.5032 14.5203 25.3082 16.4996 24.5632 18.2983C23.8181 20.097 22.5564 21.6344 20.9376 22.716C19.3188 23.7977 17.4157 24.375 15.4688 24.375ZM16.875 15C16.875 15.2781 16.7925 15.55 16.638 15.7813C16.4835 16.0125 16.2639 16.1928 16.0069 16.2992C15.7499 16.4056 15.4672 16.4335 15.1944 16.3792C14.9216 16.325 14.671 16.191 14.4744 15.9944C14.2777 15.7977 14.1438 15.5471 14.0895 15.2743C14.0353 15.0016 14.0631 14.7188 14.1695 14.4619C14.276 14.2049 14.4562 13.9853 14.6875 13.8307C14.9187 13.6762 15.1906 13.5938 15.4688 13.5938C15.8417 13.5938 16.1994 13.7419 16.4631 14.0056C16.7268 14.2694 16.875 14.627 16.875 15ZM11.7188 15C11.7188 15.2781 11.6363 15.55 11.4818 15.7813C11.3272 16.0125 11.1076 16.1928 10.8506 16.2992C10.5937 16.4056 10.3109 16.4335 10.0382 16.3792C9.76537 16.325 9.5148 16.191 9.31813 15.9944C9.12146 15.7977 8.98753 15.5471 8.93327 15.2743C8.87901 15.0016 8.90686 14.7188 9.01329 14.4619C9.11973 14.2049 9.29997 13.9853 9.53123 13.8307C9.76249 13.6762 10.0344 13.5938 10.3125 13.5938C10.6855 13.5938 11.0431 13.7419 11.3069 14.0056C11.5706 14.2694 11.7188 14.627 11.7188 15ZM22.0312 15C22.0312 15.2781 21.9488 15.55 21.7943 15.7813C21.6397 16.0125 21.4201 16.1928 21.1631 16.2992C20.9062 16.4056 20.6234 16.4335 20.3507 16.3792C20.0779 16.325 19.8273 16.191 19.6306 15.9944C19.434 15.7977 19.3 15.5471 19.2458 15.2743C19.1915 15.0016 19.2194 14.7188 19.3258 14.4619C19.4322 14.2049 19.6125 13.9853 19.8437 13.8307C20.075 13.6762 20.3469 13.5938 20.625 13.5938C20.998 13.5938 21.3556 13.7419 21.6194 14.0056C21.8831 14.2694 22.0312 14.627 22.0312 15Z" fill="#4CD964"/>
</svg>
