<svg width="20" height="20" viewBox="0 0 20 20" fill="none" xmlns="http://www.w3.org/2000/svg">
<path d="M9.2085 8.375H15.5668" stroke="#2A2A2A" stroke-opacity="0.25" stroke-width="1.5" stroke-miterlimit="10"/>
<path d="M9.2085 11.5498H15.5668" stroke="#2A2A2A" stroke-opacity="0.25" stroke-width="1.5" stroke-miterlimit="10"/>
<path d="M18.7502 8.37523V17.1252L16.3669 14.7336H9.20857C8.50284 14.7355 7.81659 14.5022 7.25822 14.0706C6.69986 13.639 6.3012 13.0337 6.12523 12.3502C6.05478 12.0782 6.02115 11.7979 6.02523 11.5169V8.37523C6.02523 7.53096 6.36062 6.72126 6.95761 6.12427C7.5546 5.52728 8.3643 5.19189 9.20857 5.19189H15.5669C16.4112 5.19189 17.2209 5.52728 17.8179 6.12427C18.4148 6.72126 18.7502 7.53096 18.7502 8.37523Z" stroke="#2A2A2A" stroke-opacity="0.25" stroke-width="1.5" stroke-miterlimit="10"/>
<path d="M13.975 4.39183V5.22516H9.20833C8.36406 5.22516 7.55437 5.56055 6.95738 6.15754C6.36039 6.75453 6.025 7.56422 6.025 8.4085V10.7918H3.63333L1.25 13.1418V4.39183C1.25 3.54756 1.58539 2.73786 2.18238 2.14087C2.77937 1.54388 3.58906 1.2085 4.43333 1.2085H10.8333C11.6704 1.21945 12.4694 1.55967 13.0574 2.15548C13.6454 2.75128 13.9751 3.55473 13.975 4.39183Z" stroke="#2A2A2A" stroke-opacity="0.25" stroke-width="1.5" stroke-miterlimit="10"/>
</svg>
