<svg width="14" height="14" viewBox="0 0 14 14" fill="none" xmlns="http://www.w3.org/2000/svg">
<g clip-path="url(#clip0_216_11721)">
<path d="M12.5186 9.64832C12.0448 10.6374 11.3145 11.4813 10.4037 12.092C9.49282 12.7028 8.43484 13.058 7.33999 13.1208C6.24514 13.1835 5.1535 12.9514 4.17885 12.4487C3.20421 11.946 2.38225 11.1911 1.79864 10.2626C1.21504 9.33417 0.891156 8.26616 0.860755 7.16994C0.830354 6.07371 1.09455 4.98939 1.6258 4.03001C2.15705 3.07063 2.93591 2.27131 3.88119 1.71536C4.82647 1.15941 5.90357 0.867189 7.00022 0.869155C7.55224 0.867954 8.10182 0.942539 8.63355 1.09082C7.55603 1.43259 6.63626 2.14845 6.0404 3.10908C5.44454 4.06971 5.21189 5.21177 5.38446 6.32895C5.55704 7.44613 6.12347 8.46475 6.98143 9.2008C7.83939 9.93685 8.93229 10.3418 10.0627 10.3425C10.9299 10.3438 11.7803 10.1034 12.5186 9.64832Z" stroke="#6EB6FF" stroke-width="0.8" stroke-miterlimit="10"/>
</g>
<defs>
<clipPath id="clip0_216_11721">
<rect width="14" height="14" fill="white"/>
</clipPath>
</defs>
</svg>
