<svg width="101" height="135" viewBox="0 0 101 135" fill="none" xmlns="http://www.w3.org/2000/svg">
<path d="M26.4804 131V120.57H33.0884V121.83H27.8524V125.204H32.5984V126.464H27.8524V131H26.4804ZM37.728 131.168C37 131.168 36.3514 130.995 35.782 130.65C35.2127 130.305 34.7647 129.833 34.438 129.236C34.1114 128.629 33.948 127.953 33.948 127.206C33.948 126.45 34.1067 125.778 34.424 125.19C34.7507 124.602 35.1894 124.14 35.74 123.804C36.3 123.459 36.9254 123.286 37.616 123.286C38.176 123.286 38.6707 123.389 39.1 123.594C39.5387 123.79 39.9074 124.061 40.206 124.406C40.514 124.742 40.7474 125.129 40.906 125.568C41.074 125.997 41.158 126.445 41.158 126.912C41.158 127.015 41.1487 127.131 41.13 127.262C41.1207 127.383 41.1067 127.5 41.088 127.612H34.9V126.492H40.332L39.716 126.996C39.8 126.511 39.7534 126.077 39.576 125.694C39.3987 125.311 39.1374 125.008 38.792 124.784C38.4467 124.56 38.0547 124.448 37.616 124.448C37.1774 124.448 36.776 124.56 36.412 124.784C36.048 125.008 35.7634 125.33 35.558 125.75C35.362 126.161 35.2827 126.651 35.32 127.22C35.2827 127.771 35.3667 128.256 35.572 128.676C35.7867 129.087 36.0854 129.409 36.468 129.642C36.86 129.866 37.2847 129.978 37.742 129.978C38.246 129.978 38.6707 129.861 39.016 129.628C39.3614 129.395 39.6414 129.096 39.856 128.732L40.948 129.292C40.7987 129.637 40.5654 129.955 40.248 130.244C39.94 130.524 39.5714 130.748 39.142 130.916C38.722 131.084 38.2507 131.168 37.728 131.168ZM42.8557 131V123.454H44.1297V124.994L43.9477 124.756C44.1343 124.28 44.433 123.916 44.8437 123.664C45.2543 123.412 45.7163 123.286 46.2297 123.286C46.8177 123.286 47.345 123.449 47.8117 123.776C48.2877 124.103 48.6143 124.532 48.7917 125.064L48.4277 125.078C48.6237 124.49 48.955 124.047 49.4217 123.748C49.8883 123.44 50.4063 123.286 50.9757 123.286C51.4983 123.286 51.9697 123.407 52.3897 123.65C52.819 123.893 53.1597 124.229 53.4117 124.658C53.6637 125.087 53.7897 125.573 53.7897 126.114V131H52.4737V126.534C52.4737 126.114 52.399 125.759 52.2497 125.47C52.1003 125.181 51.895 124.957 51.6337 124.798C51.3817 124.63 51.083 124.546 50.7377 124.546C50.4017 124.546 50.0983 124.63 49.8277 124.798C49.5663 124.957 49.3563 125.185 49.1977 125.484C49.0483 125.773 48.9737 126.123 48.9737 126.534V131H47.6577V126.534C47.6577 126.114 47.583 125.759 47.4337 125.47C47.2843 125.181 47.079 124.957 46.8177 124.798C46.5657 124.63 46.267 124.546 45.9217 124.546C45.5857 124.546 45.2823 124.63 45.0117 124.798C44.7503 124.957 44.5403 125.185 44.3817 125.484C44.2323 125.773 44.1577 126.123 44.1577 126.534V131H42.8557ZM57.8509 131.168C57.3562 131.168 56.9175 131.079 56.5349 130.902C56.1615 130.715 55.8675 130.463 55.6529 130.146C55.4382 129.819 55.3309 129.446 55.3309 129.026C55.3309 128.625 55.4149 128.265 55.5829 127.948C55.7602 127.621 56.0309 127.346 56.3949 127.122C56.7682 126.898 57.2349 126.739 57.7949 126.646L60.5949 126.184V127.276L58.0889 127.696C57.6035 127.78 57.2489 127.934 57.0249 128.158C56.8102 128.382 56.7029 128.657 56.7029 128.984C56.7029 129.292 56.8242 129.549 57.0669 129.754C57.3189 129.959 57.6315 130.062 58.0049 130.062C58.4809 130.062 58.8915 129.964 59.2369 129.768C59.5915 129.563 59.8669 129.287 60.0629 128.942C60.2682 128.597 60.3709 128.214 60.3709 127.794V125.876C60.3709 125.465 60.2169 125.134 59.9089 124.882C59.6102 124.621 59.2135 124.49 58.7189 124.49C58.2895 124.49 57.9069 124.602 57.5709 124.826C57.2442 125.041 57.0015 125.33 56.8429 125.694L55.7089 125.106C55.8489 124.761 56.0729 124.453 56.3809 124.182C56.6889 123.902 57.0482 123.683 57.4589 123.524C57.8695 123.365 58.2989 123.286 58.7469 123.286C59.3255 123.286 59.8342 123.398 60.2729 123.622C60.7115 123.837 61.0522 124.14 61.2949 124.532C61.5469 124.915 61.6729 125.363 61.6729 125.876V131H60.3989V129.572L60.6369 129.656C60.4782 129.955 60.2635 130.216 59.9929 130.44C59.7222 130.664 59.4049 130.841 59.0409 130.972C58.6769 131.103 58.2802 131.168 57.8509 131.168ZM63.6916 131V120.402H64.9936V131H63.6916ZM70.4859 131.168C69.7579 131.168 69.1092 130.995 68.5399 130.65C67.9705 130.305 67.5225 129.833 67.1959 129.236C66.8692 128.629 66.7059 127.953 66.7059 127.206C66.7059 126.45 66.8645 125.778 67.1819 125.19C67.5085 124.602 67.9472 124.14 68.4979 123.804C69.0579 123.459 69.6832 123.286 70.3739 123.286C70.9339 123.286 71.4285 123.389 71.8579 123.594C72.2965 123.79 72.6652 124.061 72.9639 124.406C73.2719 124.742 73.5052 125.129 73.6639 125.568C73.8319 125.997 73.9159 126.445 73.9159 126.912C73.9159 127.015 73.9065 127.131 73.8879 127.262C73.8785 127.383 73.8645 127.5 73.8459 127.612H67.6579V126.492H73.0899L72.4739 126.996C72.5579 126.511 72.5112 126.077 72.3339 125.694C72.1565 125.311 71.8952 125.008 71.5499 124.784C71.2045 124.56 70.8125 124.448 70.3739 124.448C69.9352 124.448 69.5339 124.56 69.1699 124.784C68.8059 125.008 68.5212 125.33 68.3159 125.75C68.1199 126.161 68.0405 126.651 68.0779 127.22C68.0405 127.771 68.1245 128.256 68.3299 128.676C68.5445 129.087 68.8432 129.409 69.2259 129.642C69.6179 129.866 70.0425 129.978 70.4999 129.978C71.0039 129.978 71.4285 129.861 71.7739 129.628C72.1192 129.395 72.3992 129.096 72.6139 128.732L73.7059 129.292C73.5565 129.637 73.3232 129.955 73.0059 130.244C72.6979 130.524 72.3292 130.748 71.8999 130.916C71.4799 131.084 71.0085 131.168 70.4859 131.168Z" fill="#2A2A2A"/>
<path d="M99.7641 76.4538C98.4103 76.4538 93.3199 74.414 94.6737 64.2692C96.0275 54.1245 95.7026 32.4632 86.5687 19.2678C77.4349 6.07241 61.8748 2.02896 61.8748 2.02896C54.495 0.657015 46.9254 0.657015 39.5456 2.02896C39.5456 2.02896 23.9855 6.07241 14.8517 19.2678C5.7178 32.4632 5.37482 54.1245 6.72866 64.2692C8.08249 74.414 3.01013 76.4538 1.6563 76.4538C0.302462 76.4538 2.66714 81.5261 15.1766 87.2844C27.686 93.0427 50.7012 89.3242 50.7012 89.3242C50.7012 89.3242 73.6983 93.0427 86.2258 87.2844C98.7533 81.5261 101.118 76.4538 99.7641 76.4538Z" fill="#263238" stroke="#263238" stroke-linecap="round" stroke-linejoin="round"/>
<path d="M26.3688 60.7854C26.3688 60.7854 20.6827 53.4386 18.6609 58.2041C16.6392 62.9696 22.2712 72.8977 24.0763 73.6378C25.1358 74.1082 26.2353 74.4827 27.3616 74.757L26.3688 60.7854Z" fill="#F8F7F7" stroke="#263238" stroke-linecap="round" stroke-linejoin="round"/>
<path d="M72.0016 61.1824C72.0016 61.1824 77.7058 53.8175 79.7275 58.6011C81.7492 63.3846 76.1173 73.2947 74.3122 74.0348C73.2406 74.5016 72.1289 74.8701 70.9907 75.1359L72.0016 61.1824Z" fill="#F8F7F7" stroke="#263238" stroke-linecap="round" stroke-linejoin="round"/>
<path d="M74.6914 51.778C74.6914 51.778 72.3087 76.0207 71.2076 82.2664C70.1065 88.5121 62.0196 97.1586 57.7956 99.1803C53.5716 101.202 48.4271 102.791 40.5207 96.7795C32.6143 90.7685 29.8706 86.6889 28.3904 80.9848C26.9102 75.2806 24.5455 49.0162 24.5455 49.0162C24.5455 49.0162 24.2566 38.1856 30.6106 30.2792C39.6001 19.0694 74.6914 16.8672 74.6914 51.778Z" fill="#F8F7F7" stroke="#263238" stroke-linecap="round" stroke-linejoin="round"/>
<path d="M30.6106 25.2067C24.2566 33.1131 24.5455 43.9437 24.5455 43.9437C24.5455 43.9437 24.9787 48.8176 25.6105 54.7744L26.3686 55.6409C26.3686 55.6409 23.2999 35.1167 32.4338 30.7303C41.5677 26.3439 46.983 31.0552 52.7413 30.0444C58.4996 29.0335 66.6046 27.3367 69.9801 34.7738C73.3557 42.2108 73.6986 53.0957 73.6986 53.0957L74.3124 50.4602C74.5471 48.1677 74.6914 46.7056 74.6914 46.7056C74.6914 11.7947 39.6001 13.9969 30.6106 25.2067Z" fill="white" stroke="#263238" stroke-linecap="round" stroke-linejoin="round"/>
<path d="M30.6106 30.279C24.2566 38.1854 24.5455 49.0161 24.5455 49.0161C24.5455 49.0161 24.9787 53.8899 25.6105 59.8467L26.3686 60.7313C26.3686 60.7313 23.2999 40.1891 32.4338 35.8026C41.5677 31.4162 46.983 36.1276 52.7413 35.1167C58.4996 34.1058 66.6046 32.409 69.9801 39.8642C73.3557 47.3193 73.6986 58.1319 73.6986 58.1319L74.3124 55.4784C74.5471 53.1859 74.6914 51.7237 74.6914 51.7237C74.6914 16.867 39.6001 19.0693 30.6106 30.279Z" fill="#263238" stroke="#263238" stroke-linecap="round" stroke-linejoin="round"/>
<path d="M40.9 58.872C40.9 60.6771 39.9614 62.2656 38.8062 62.2656C37.6509 62.2656 36.7122 60.7493 36.7122 58.872C36.7122 56.9947 37.6509 55.4965 38.8062 55.4965C39.9614 55.4965 40.9 57.0127 40.9 58.872Z" fill="#263238"/>
<path d="M62.9762 58.872C62.9762 60.6771 62.0376 62.2656 60.8823 62.2656C59.7271 62.2656 58.7883 60.7493 58.7883 58.872C58.7883 56.9947 59.7271 55.4965 60.8823 55.4965C62.0376 55.4965 62.9762 57.0127 62.9762 58.872Z" fill="#263238"/>
<path d="M42.9214 80.7859C42.9214 80.7859 49.9253 87.3204 58.8786 80.7859" stroke="#263238" stroke-linecap="round" stroke-linejoin="round"/>
<path d="M45.7737 71.4355C45.7737 71.4355 49.1853 75.2263 54.6909 71.4355" stroke="#263238" stroke-linecap="round" stroke-linejoin="round"/>
<path d="M32.1992 53.24C32.1992 53.24 34.0044 45.6946 42.8494 50.0269" stroke="#263238" stroke-linecap="round" stroke-linejoin="round"/>
<path d="M55.7192 50.3338C55.7192 50.3338 64.0227 44.5936 67.3261 53.2401" stroke="#263238" stroke-linecap="round" stroke-linejoin="round"/>
</svg>
