<svg width="14" height="14" viewBox="0 0 14 14" fill="none" xmlns="http://www.w3.org/2000/svg">
<path d="M4.19992 10.3427C6.04593 10.3427 7.54242 8.84623 7.54242 7.00021C7.54242 5.1542 6.04593 3.65771 4.19992 3.65771C2.35391 3.65771 0.857422 5.1542 0.857422 7.00021C0.857422 8.84623 2.35391 10.3427 4.19992 10.3427Z" stroke="#6EB6FF" stroke-width="0.8" stroke-miterlimit="10"/>
<path d="M5.31427 6.99991C5.31427 7.22027 5.24893 7.43568 5.1265 7.61891C5.00407 7.80213 4.83007 7.94494 4.62648 8.02926C4.42289 8.11359 4.19887 8.13566 3.98274 8.09267C3.76661 8.04968 3.56809 7.94356 3.41227 7.78774C3.25645 7.63192 3.15034 7.4334 3.10735 7.21727C3.06436 7.00114 3.08642 6.77712 3.17075 6.57354C3.25508 6.36995 3.39788 6.19594 3.58111 6.07351C3.76433 5.95109 3.97974 5.88574 4.2001 5.88574" stroke="#6EB6FF" stroke-width="0.8" stroke-miterlimit="10"/>
<path d="M1.41748 5.15667L1.97165 0.875H6.42831L6.98248 5.15667" stroke="#6EB6FF" stroke-width="0.8" stroke-miterlimit="10"/>
<path d="M6.98248 8.84326L6.42831 13.1249H1.97165L1.41748 8.84326" stroke="#6EB6FF" stroke-width="0.8" stroke-miterlimit="10"/>
<path d="M8.65665 7H7.54248" stroke="#6EB6FF" stroke-width="0.8" stroke-miterlimit="10"/>
<path d="M9.67188 5.4248C10.0894 5.84264 10.3239 6.40914 10.3239 6.9998C10.3239 7.59047 10.0894 8.15697 9.67188 8.5748" stroke="#6EB6FF" stroke-width="0.8" stroke-miterlimit="10"/>
<path d="M11.1592 3.9375C11.5617 4.33949 11.881 4.81688 12.0988 5.34237C12.3167 5.86786 12.4288 6.43114 12.4288 7C12.4288 7.56886 12.3167 8.13214 12.0988 8.65763C11.881 9.18312 11.5617 9.66051 11.1592 10.0625" stroke="#6EB6FF" stroke-width="0.8" stroke-miterlimit="10"/>
</svg>
