<svg width="24" height="24" viewBox="0 0 24 24" fill="none" xmlns="http://www.w3.org/2000/svg">
<path d="M21.71 8.71017C22.96 7.46017 22.39 6.00017 21.71 5.29017L18.71 2.29017C17.45 1.04017 16 1.61017 15.29 2.29017L13.59 4.00017H11C9.10001 4.00017 8.00001 5.00017 7.44001 6.15017L3.00001 10.5902V14.5902L2.29001 15.2902C1.04001 16.5502 1.61001 18.0002 2.29001 18.7102L5.29001 21.7102C5.83001 22.2502 6.41001 22.4502 6.96001 22.4502C7.67001 22.4502 8.32001 22.1002 8.71001 21.7102L11.41 19.0002H15C16.7 19.0002 17.56 17.9402 17.87 16.9002C19 16.6002 19.62 15.7402 19.87 14.9002C21.42 14.5002 22 13.0302 22 12.0002V9.00017H21.41L21.71 8.71017ZM20 12.0002C20 12.4502 19.81 13.0002 19 13.0002H18V14.0002C18 14.4502 17.81 15.0002 17 15.0002H16V16.0002C16 16.4502 15.81 17.0002 15 17.0002H10.59L7.31001 20.2802C7.00001 20.5702 6.82001 20.4002 6.71001 20.2902L3.72001 17.3102C3.43001 17.0002 3.60001 16.8202 3.71001 16.7102L5.00001 15.4102V11.4102L7.00001 9.41017V11.0002C7.00001 12.2102 7.80001 14.0002 10 14.0002C12.2 14.0002 13 12.2102 13 11.0002H20V12.0002ZM20.29 7.29017L18.59 9.00017H11V11.0002C11 11.4502 10.81 12.0002 10 12.0002C9.19001 12.0002 9.00001 11.4502 9.00001 11.0002V8.00017C9.00001 7.54017 9.17001 6.00017 11 6.00017H14.41L16.69 3.72017C17 3.43017 17.18 3.60017 17.29 3.71017L20.28 6.69017C20.57 7.00017 20.4 7.18017 20.29 7.29017Z" fill="#6EB6FF"/>
</svg>
