<svg width="14" height="14" viewBox="0 0 14 14" fill="none" xmlns="http://www.w3.org/2000/svg">
<path d="M9.22842 1.43506H12.0109V13.1251H1.98926V1.43506H4.77176" stroke="#6EB6FF" stroke-width="0.8" stroke-miterlimit="10"/>
<path d="M9.22815 0.875V1.98917C9.22662 2.28419 9.10874 2.56669 8.90013 2.77531C8.69151 2.98392 8.40901 3.1018 8.11398 3.10333H5.88565C5.59063 3.1018 5.30812 2.98392 5.09951 2.77531C4.89089 2.56669 4.77302 2.28419 4.77148 1.98917V0.875H9.22815Z" stroke="#6EB6FF" stroke-width="0.8" stroke-miterlimit="10"/>
<g clip-path="url(#clip0_216_11697)">
<path d="M7.71481 8.2502H7.47731L7.22731 7.7727L6.75231 8.7277L6.28481 7.5277L5.80731 8.2502H4.85231L4.76981 8.1677C4.64391 8.04229 4.54394 7.89331 4.47561 7.72926C4.40728 7.56521 4.37193 7.38931 4.37158 7.21161C4.37088 6.85271 4.51278 6.50823 4.76606 6.25395C5.01934 5.99968 5.36326 5.85643 5.72216 5.85573C6.08106 5.85502 6.42553 5.99692 6.67981 6.2502L6.99981 6.5752L7.31981 6.2502C7.44405 6.12035 7.59298 6.01661 7.75784 5.94507C7.9227 5.87353 8.10019 5.83563 8.2799 5.83358C8.45961 5.83154 8.63791 5.8654 8.80436 5.93318C8.97081 6.00095 9.12205 6.10128 9.24921 6.22828C9.37637 6.35527 9.4769 6.50638 9.54489 6.67274C9.61289 6.8391 9.64698 7.01736 9.64517 7.19707C9.64337 7.37678 9.6057 7.55432 9.53437 7.71928C9.46305 7.88423 9.3595 8.03329 9.22981 8.1577L9.14731 8.2402L6.99981 10.3927L5.51731 8.9102" stroke="#6EB6FF" stroke-width="0.5" stroke-miterlimit="10"/>
<path d="M7.95459 8.24512H8.43209" stroke="#6EB6FF" stroke-width="0.5" stroke-miterlimit="10"/>
</g>
<defs>
<clipPath id="clip0_216_11697">
<rect width="6" height="6" fill="white" transform="translate(4 5)"/>
</clipPath>
</defs>
</svg>
