<svg width="20" height="20" viewBox="0 0 20 20" fill="none" xmlns="http://www.w3.org/2000/svg">
<path d="M12.3834 10.8335H11.5917L10.7584 9.24186L9.17502 12.4252L7.61669 8.42519L6.02502 10.8335H2.84169L2.56669 10.5585C2.147 10.1405 1.81377 9.64387 1.58601 9.09705C1.35825 8.55022 1.24043 7.96389 1.23927 7.37153C1.23692 6.1752 1.70991 5.02695 2.55419 4.17936C3.39846 3.33177 4.54485 2.85428 5.74118 2.85194C6.93751 2.84959 8.08576 3.32259 8.93335 4.16686L10 5.25019L11.0667 4.16686C11.4808 3.73401 11.9772 3.38822 12.5268 3.14974C13.0763 2.91127 13.668 2.78493 14.267 2.77812C14.866 2.77132 15.4604 2.88418 16.0152 3.1101C16.57 3.33602 17.0741 3.67045 17.498 4.09377C17.9219 4.51709 18.257 5.02078 18.4836 5.57531C18.7103 6.12984 18.8239 6.72405 18.8179 7.32308C18.8119 7.9221 18.6863 8.5139 18.4486 9.06376C18.2108 9.61362 17.8657 10.1105 17.4334 10.5252L17.1584 10.8002L10 17.9752L5.05835 13.0335" stroke="#2A2A2A" stroke-opacity="0.25" stroke-miterlimit="10"/>
<path d="M13.1836 10.8169H14.7753" stroke="#2A2A2A" stroke-opacity="0.25" stroke-miterlimit="10"/>
</svg>
