<svg width="17" height="17" viewBox="0 0 17 17" fill="none" xmlns="http://www.w3.org/2000/svg">
<path d="M10.5259 9.20818H9.85303L9.1447 7.85526L7.79886 10.5611L6.47428 7.16109L5.12136 9.20818H2.41553L2.18178 8.97443C1.82505 8.61909 1.5418 8.19697 1.34821 7.73217C1.15461 7.26737 1.05446 6.76899 1.05347 6.26548C1.05148 5.24861 1.45352 4.27259 2.17116 3.55214C2.88879 2.83169 3.86322 2.42582 4.8801 2.42383C5.89698 2.42184 6.873 2.82388 7.59345 3.54151L8.50011 4.46235L9.40678 3.54151C9.7588 3.17359 10.1807 2.87967 10.6479 2.67697C11.115 2.47427 11.6179 2.36687 12.127 2.36109C12.6362 2.3553 13.1414 2.45124 13.613 2.64327C14.0846 2.8353 14.5131 3.11956 14.8734 3.47939C15.2337 3.83921 15.5185 4.26735 15.7112 4.7387C15.9038 5.21005 16.0004 5.71512 15.9953 6.2243C15.9902 6.73347 15.8835 7.2365 15.6814 7.70388C15.4793 8.17126 15.1859 8.59359 14.8184 8.9461L14.5847 9.17984L8.50011 15.2786L4.2997 11.0782" stroke="#2A2A2A" stroke-width="1.5" stroke-miterlimit="10"/>
<path d="M11.2061 9.19385H12.559" stroke="#2A2A2A" stroke-width="1.5" stroke-miterlimit="10"/>
</svg>
