<svg width="250" height="250" viewBox="0 0 250 250" fill="none" xmlns="http://www.w3.org/2000/svg">
<path d="M20.665 129.725C20.665 156.247 31.2007 181.682 49.9544 200.436C68.708 219.189 94.1434 229.725 120.665 229.725C147.187 229.725 172.622 219.189 191.376 200.436C210.129 181.682 220.665 156.247 220.665 129.725C220.665 103.203 210.129 77.7679 191.376 59.0143C172.622 40.2607 147.187 29.725 120.665 29.725C94.1434 29.725 68.708 40.2607 49.9544 59.0143C31.2007 77.7679 20.665 103.203 20.665 129.725Z" fill="#D9EDFF"/>
<path d="M55.5425 170.963C55.5425 173.887 60.8222 176.691 70.2201 178.758C79.618 180.826 92.3643 181.987 105.655 181.987C118.946 181.987 131.692 180.826 141.09 178.758C150.488 176.691 155.767 173.887 155.767 170.963C155.767 168.038 150.488 165.234 141.09 163.167C131.692 161.099 118.946 159.938 105.655 159.938C92.3643 159.938 79.618 161.099 70.2201 163.167C60.8222 165.234 55.5425 168.038 55.5425 170.963Z" fill="#6EB6FF"/>
<path d="M162.193 63H54.3401C53.0856 63 51.8825 63.4983 50.9955 64.3854C50.1084 65.2724 49.6101 66.4755 49.6101 67.73V133.83H166.92V67.7325C166.92 67.1113 166.798 66.4962 166.561 65.9222C166.324 65.3482 165.975 64.8266 165.536 64.3872C165.097 63.9477 164.576 63.599 164.003 63.361C163.429 63.123 162.814 63.0003 162.193 63Z" fill="#6EB6FF"/>
<path d="M162.193 63H54.3401C53.0856 63 51.8825 63.4983 50.9955 64.3854C50.1084 65.2724 49.6101 66.4755 49.6101 67.73V133.83H166.92V67.7325C166.92 67.1113 166.798 66.4962 166.561 65.9222C166.324 65.3482 165.975 64.8266 165.536 64.3872C165.097 63.9477 164.576 63.599 164.003 63.361C163.429 63.123 162.814 63.0003 162.193 63Z" stroke="#2E2E2E" stroke-linecap="round" stroke-linejoin="round"/>
<path d="M179.35 104.197C179.527 103.313 179.505 102.401 179.287 101.526C179.068 100.651 178.658 99.8358 178.086 99.1387C177.515 98.4415 176.795 97.8799 175.98 97.4945C175.165 97.1091 174.274 96.9095 173.372 96.91H93.46C92.0521 96.9102 90.6876 96.4226 89.5987 95.5301C88.5098 94.6377 87.7638 93.3955 87.4875 92.015L85.79 83.5325C85.515 82.1522 84.7695 80.9102 83.6807 80.0183C82.5919 79.1265 81.2274 78.6402 79.82 78.6425H40.475C39.5734 78.6419 38.6829 78.8415 37.8678 79.2269C37.0527 79.6124 36.3333 80.174 35.7617 80.8712C35.19 81.5684 34.7803 82.3839 34.5621 83.2587C34.3439 84.1336 34.3227 85.0459 34.5 85.93L50.3325 165.097C50.6074 166.48 51.3535 167.725 52.4436 168.619C53.5337 169.513 54.9002 170.001 56.31 170H161.197C162.605 170 163.968 169.513 165.057 168.621C166.146 167.73 166.892 166.489 167.17 165.11C169.682 152.537 176.377 119.06 179.35 104.197Z" fill="white"/>
<path d="M179.35 104.197C179.527 103.313 179.505 102.401 179.287 101.526C179.068 100.651 178.658 99.8358 178.086 99.1387C177.515 98.4415 176.795 97.8799 175.98 97.4945C175.165 97.1091 174.274 96.9095 173.372 96.91H93.46C92.0521 96.9102 90.6876 96.4226 89.5987 95.5301C88.5098 94.6377 87.7638 93.3955 87.4875 92.015L85.79 83.5325C85.515 82.1522 84.7695 80.9102 83.6807 80.0183C82.5919 79.1265 81.2274 78.6402 79.82 78.6425H40.475C39.5734 78.6419 38.6829 78.8415 37.8678 79.2269C37.0527 79.6124 36.3333 80.174 35.7617 80.8712C35.19 81.5684 34.7803 82.3839 34.5621 83.2587C34.3439 84.1336 34.3227 85.0459 34.5 85.93L50.3325 165.097C50.6074 166.48 51.3535 167.725 52.4436 168.619C53.5337 169.513 54.9002 170.001 56.31 170H161.197C162.605 170 163.968 169.513 165.057 168.621C166.146 167.73 166.892 166.489 167.17 165.11C169.682 152.537 176.377 119.06 179.35 104.197Z" stroke="#2E2E2E" stroke-linecap="round" stroke-linejoin="round"/>
<path d="M192.86 73.6725C192.39 73.5603 191.971 73.2928 191.672 72.9134C191.372 72.534 191.209 72.0647 191.209 71.5813C191.209 71.0978 191.372 70.6285 191.672 70.2491C191.971 69.8697 192.39 69.6022 192.86 69.49L213.223 64.595C213.538 64.5192 213.867 64.5158 214.184 64.5851C214.502 64.6544 214.799 64.7946 215.055 64.9951C215.31 65.1957 215.517 65.4515 215.659 65.7432C215.802 66.035 215.876 66.3553 215.878 66.68L215.908 76.47C215.909 76.7957 215.836 77.1173 215.694 77.4107C215.553 77.7041 215.347 77.9615 215.091 78.1635C214.836 78.3655 214.538 78.5068 214.22 78.5768C213.902 78.6468 213.572 78.6436 213.255 78.5675L192.86 73.6725Z" fill="white" stroke="#2E2E2E" stroke-linecap="round" stroke-linejoin="round"/>
<path d="M176.25 56.4625C175.838 56.7111 175.354 56.8142 174.876 56.7554C174.398 56.6965 173.953 56.4791 173.614 56.1378C173.274 55.7966 173.058 55.3512 173.001 54.873C172.945 54.3948 173.05 53.9114 173.3 53.5L188.665 28.4125C188.835 28.1355 189.064 27.9006 189.338 27.7252C189.611 27.5498 189.92 27.4386 190.243 27.3999C190.565 27.3611 190.892 27.3959 191.199 27.5016C191.506 27.6072 191.785 27.7811 192.015 28.01L201.765 37.7025C201.996 37.9323 202.172 38.2114 202.279 38.5189C202.386 38.8264 202.422 39.1543 202.384 39.4778C202.347 39.8013 202.236 40.112 202.061 40.3865C201.885 40.661 201.65 40.8921 201.373 41.0625L176.25 56.4625Z" fill="white" stroke="#2E2E2E" stroke-linecap="round" stroke-linejoin="round"/>
<path d="M139.29 32.7675C139.177 33.2372 138.909 33.6551 138.529 33.954C138.15 34.2528 137.681 34.4154 137.198 34.4154C136.714 34.4154 136.245 34.2528 135.866 33.954C135.486 33.6551 135.218 33.2372 135.105 32.7675L130.212 12.405C130.136 12.0892 130.132 11.7602 130.202 11.4428C130.271 11.1253 130.411 10.8277 130.611 10.5721C130.812 10.3166 131.068 10.1099 131.36 9.96752C131.652 9.82513 131.973 9.75077 132.297 9.75004L142.085 9.71754C142.411 9.71648 142.733 9.78949 143.027 9.93104C143.32 10.0726 143.578 10.279 143.78 10.5347C143.982 10.7904 144.124 11.0887 144.194 11.407C144.264 11.7254 144.261 12.0555 144.185 12.3725L139.29 32.7675Z" fill="white" stroke="#2E2E2E" stroke-linecap="round" stroke-linejoin="round"/>
<path d="M122.078 49.3675C122.331 49.7794 122.438 50.2645 122.381 50.7446C122.325 51.2247 122.108 51.6718 121.766 52.0136C121.424 52.3555 120.977 52.5721 120.497 52.6286C120.017 52.6851 119.532 52.5782 119.12 52.325L94.0351 36.9625C93.7581 36.7928 93.5231 36.5626 93.3477 36.2892C93.1724 36.0158 93.0612 35.7062 93.0224 35.3837C92.9837 35.0612 93.0185 34.7341 93.1241 34.4269C93.2298 34.1197 93.4036 33.8405 93.6326 33.61L103.323 23.86C103.552 23.6292 103.832 23.4535 104.139 23.3462C104.447 23.2389 104.774 23.2028 105.098 23.2406C105.421 23.2784 105.732 23.3891 106.007 23.5644C106.281 23.7397 106.512 23.975 106.683 24.2525L122.078 49.3675Z" fill="white" stroke="#2E2E2E" stroke-linecap="round" stroke-linejoin="round"/>
<path d="M170.814 190.846L179.887 181.774L195.763 197.65L186.69 206.722L170.814 190.846Z" fill="white" stroke="#2E2E2E" stroke-linecap="round" stroke-linejoin="round"/>
<path d="M226.598 237.132L226.163 237.565C224.411 239.304 222.042 240.28 219.574 240.28C217.105 240.28 214.737 239.304 212.985 237.565L184.343 208.92C183.762 208.337 183.437 207.548 183.437 206.725C183.437 205.902 183.762 205.113 184.343 204.53L193.56 195.31C194.144 194.731 194.934 194.406 195.756 194.406C196.579 194.406 197.368 194.731 197.953 195.31L226.598 223.955C227.465 224.819 228.154 225.846 228.624 226.976C229.093 228.107 229.335 229.319 229.335 230.544C229.335 231.768 229.093 232.98 228.624 234.111C228.154 235.242 227.465 236.269 226.598 237.132Z" fill="#6EB6FF"/>
<path d="M226.598 237.132L226.163 237.565C224.411 239.304 222.042 240.28 219.574 240.28C217.105 240.28 214.737 239.304 212.985 237.565L184.343 208.92C183.762 208.337 183.437 207.548 183.437 206.725C183.437 205.902 183.762 205.113 184.343 204.53L193.56 195.31C194.144 194.731 194.934 194.406 195.756 194.406C196.579 194.406 197.368 194.731 197.953 195.31L226.598 223.955C227.465 224.819 228.154 225.846 228.624 226.976C229.093 228.107 229.335 229.319 229.335 230.544C229.335 231.768 229.093 232.98 228.624 234.111C228.154 235.242 227.465 236.269 226.598 237.132Z" stroke="#2E2E2E" stroke-linecap="round" stroke-linejoin="round"/>
<path d="M102.561 181.938C109.221 192.821 119.932 200.613 132.337 203.6C144.742 206.586 157.825 204.523 168.709 197.863C179.592 191.203 187.384 180.492 190.371 168.087C193.357 155.682 191.293 142.598 184.633 131.715C177.973 120.831 167.263 113.039 154.858 110.053C142.452 107.066 129.369 109.13 118.486 115.79C107.602 122.45 99.81 133.161 96.8235 145.566C93.837 157.971 95.9008 171.054 102.561 181.938Z" fill="white" stroke="#2E2E2E" stroke-linecap="round" stroke-linejoin="round"/>
<path d="M170.812 129.613C176.199 134.996 179.868 141.856 181.356 149.325C182.843 156.794 182.082 164.536 179.169 171.572C176.256 178.609 171.321 184.623 164.989 188.855C158.658 193.086 151.213 195.345 143.597 195.345C135.982 195.345 128.537 193.086 122.205 188.855C115.874 184.623 110.939 178.609 108.026 171.572C105.112 164.536 104.351 156.794 105.839 149.325C107.326 141.856 110.996 134.996 116.382 129.613C123.602 122.398 133.391 118.345 143.597 118.345C153.804 118.345 163.593 122.398 170.812 129.613Z" fill="#6EB6FF"/>
<path d="M170.812 129.613C176.199 134.996 179.868 141.856 181.356 149.325C182.843 156.794 182.082 164.536 179.169 171.572C176.256 178.609 171.321 184.623 164.989 188.855C158.658 193.086 151.213 195.345 143.597 195.345C135.982 195.345 128.537 193.086 122.205 188.855C115.874 184.623 110.939 178.609 108.026 171.572C105.112 164.536 104.351 156.794 105.839 149.325C107.326 141.856 110.996 134.996 116.382 129.613C123.602 122.398 133.391 118.345 143.597 118.345C153.804 118.345 163.593 122.398 170.812 129.613Z" stroke="#2E2E2E" stroke-linecap="round" stroke-linejoin="round"/>
<path d="M124.965 170.98C127.014 167.432 129.968 164.492 133.526 162.46C137.083 160.428 141.116 159.376 145.213 159.413C149.31 159.45 153.324 160.574 156.844 162.67C160.364 164.766 163.265 167.758 165.25 171.342" stroke="#2E2E2E" stroke-linecap="round" stroke-linejoin="round"/>
<path d="M129.657 139.537L138.565 148.445" stroke="#2E2E2E" stroke-linecap="round" stroke-linejoin="round"/>
<path d="M129.657 148.445L138.565 139.537" stroke="#2E2E2E" stroke-linecap="round" stroke-linejoin="round"/>
<path d="M149.633 139.537L158.54 148.445" stroke="#2E2E2E" stroke-linecap="round" stroke-linejoin="round"/>
<path d="M149.633 148.445L158.54 139.537" stroke="#2E2E2E" stroke-linecap="round" stroke-linejoin="round"/>
</svg>
