<svg width="73" height="139" viewBox="0 0 73 139" fill="none" xmlns="http://www.w3.org/2000/svg">
<path d="M20.162 135V124.57H21.422L25.328 130.128H24.684L28.562 124.57H29.822V135H28.436V126.306L28.926 126.46L25.048 131.92H24.936L21.1 126.46L21.534 126.306V135H20.162ZM34.1966 135.168C33.7019 135.168 33.2632 135.079 32.8806 134.902C32.5072 134.715 32.2132 134.463 31.9986 134.146C31.7839 133.819 31.6766 133.446 31.6766 133.026C31.6766 132.625 31.7606 132.265 31.9286 131.948C32.1059 131.621 32.3766 131.346 32.7406 131.122C33.1139 130.898 33.5806 130.739 34.1406 130.646L36.9406 130.184V131.276L34.4346 131.696C33.9492 131.78 33.5946 131.934 33.3706 132.158C33.1559 132.382 33.0486 132.657 33.0486 132.984C33.0486 133.292 33.1699 133.549 33.4126 133.754C33.6646 133.959 33.9772 134.062 34.3506 134.062C34.8266 134.062 35.2372 133.964 35.5826 133.768C35.9372 133.563 36.2126 133.287 36.4086 132.942C36.6139 132.597 36.7166 132.214 36.7166 131.794V129.876C36.7166 129.465 36.5626 129.134 36.2546 128.882C35.9559 128.621 35.5592 128.49 35.0646 128.49C34.6352 128.49 34.2526 128.602 33.9166 128.826C33.5899 129.041 33.3472 129.33 33.1886 129.694L32.0546 129.106C32.1946 128.761 32.4186 128.453 32.7266 128.182C33.0346 127.902 33.3939 127.683 33.8046 127.524C34.2152 127.365 34.6446 127.286 35.0926 127.286C35.6712 127.286 36.1799 127.398 36.6186 127.622C37.0572 127.837 37.3979 128.14 37.6406 128.532C37.8926 128.915 38.0186 129.363 38.0186 129.876V135H36.7446V133.572L36.9826 133.656C36.8239 133.955 36.6092 134.216 36.3386 134.44C36.0679 134.664 35.7506 134.841 35.3866 134.972C35.0226 135.103 34.6259 135.168 34.1966 135.168ZM40.0373 135V124.402H41.3393V135H40.0373ZM46.8316 135.168C46.1036 135.168 45.4549 134.995 44.8856 134.65C44.3162 134.305 43.8682 133.833 43.5416 133.236C43.2149 132.629 43.0516 131.953 43.0516 131.206C43.0516 130.45 43.2102 129.778 43.5276 129.19C43.8542 128.602 44.2929 128.14 44.8436 127.804C45.4036 127.459 46.0289 127.286 46.7196 127.286C47.2796 127.286 47.7742 127.389 48.2036 127.594C48.6422 127.79 49.0109 128.061 49.3096 128.406C49.6176 128.742 49.8509 129.129 50.0096 129.568C50.1776 129.997 50.2616 130.445 50.2616 130.912C50.2616 131.015 50.2522 131.131 50.2336 131.262C50.2242 131.383 50.2102 131.5 50.1916 131.612H44.0036V130.492H49.4356L48.8196 130.996C48.9036 130.511 48.8569 130.077 48.6796 129.694C48.5022 129.311 48.2409 129.008 47.8956 128.784C47.5502 128.56 47.1582 128.448 46.7196 128.448C46.2809 128.448 45.8796 128.56 45.5156 128.784C45.1516 129.008 44.8669 129.33 44.6616 129.75C44.4656 130.161 44.3862 130.651 44.4236 131.22C44.3862 131.771 44.4702 132.256 44.6756 132.676C44.8902 133.087 45.1889 133.409 45.5716 133.642C45.9636 133.866 46.3882 133.978 46.8456 133.978C47.3496 133.978 47.7742 133.861 48.1196 133.628C48.4649 133.395 48.7449 133.096 48.9596 132.732L50.0516 133.292C49.9022 133.637 49.6689 133.955 49.3516 134.244C49.0436 134.524 48.6749 134.748 48.2456 134.916C47.8256 135.084 47.3542 135.168 46.8316 135.168Z" fill="#2A2A2A"/>
<path d="M8.17399 54.7195C8.17399 54.7195 3.35171 48.2065 1.89157 54.2392C0.431439 60.2718 9.5765 66.3045 9.5765 66.3045L8.17399 54.7195Z" fill="#F8F7F7" stroke="#263238" stroke-linecap="round" stroke-linejoin="round"/>
<path d="M63.6784 54.7195C63.6784 54.7195 68.5007 48.2065 69.9608 54.2392C71.4209 60.2718 62.2759 66.3045 62.2759 66.3045L63.6784 54.7195Z" fill="#F8F7F7" stroke="#263238" stroke-linecap="round" stroke-linejoin="round"/>
<path d="M7.09814 33.9894C7.09814 33.9894 9.53811 76.2565 12.3239 83.0576C15.1097 89.8588 27.5208 99.2344 30.883 100.349C34.7753 101.147 38.7823 101.212 42.6985 100.541C44.1587 100.08 57.8378 89.6859 59.6054 85.171C61.3729 80.6561 65.3691 36.0259 65.3691 36.0259C64.6279 31.7478 62.8354 27.7208 60.1526 24.307C57.4698 20.8931 53.9808 18.1994 49.9992 16.4678C36.2048 10.1469 27.2326 12.0681 18.4142 18.4851C13.1315 22.3605 9.1784 27.7766 7.09814 33.9894Z" fill="#F8F7F7" stroke="#263238" stroke-linecap="round" stroke-linejoin="round"/>
<path d="M30.0374 70.6465C31.7588 72.2831 33.818 73.5226 36.07 74.2776C38.7213 74.7579 43.5436 70.4351 43.5436 70.4351" stroke="#263238" stroke-linecap="round" stroke-linejoin="round"/>
<path d="M27.386 80.0605C27.386 80.0605 37.5109 82.7118 44.5042 79.5802" stroke="#263238" stroke-linecap="round" stroke-linejoin="round"/>
<path d="M14.4561 48.9366C14.4561 48.9366 20.7193 43.3842 28.2121 46.7656" stroke="#263238" stroke-linecap="round" stroke-linejoin="round"/>
<path d="M58.1259 48.9366C58.1259 48.9366 51.8627 43.3842 44.3699 46.7656" stroke="#263238" stroke-linecap="round" stroke-linejoin="round"/>
<path d="M25.3111 59.0807C26.5101 59.0807 27.4821 57.6184 27.4821 55.8146C27.4821 54.0108 26.5101 52.5485 25.3111 52.5485C24.1121 52.5485 23.1401 54.0108 23.1401 55.8146C23.1401 57.6184 24.1121 59.0807 25.3111 59.0807Z" fill="#263238"/>
<path d="M50.8825 55.8146C50.8825 57.6013 49.9219 59.0615 48.7115 59.0615C47.5011 59.0615 46.5405 57.6013 46.5405 55.8146C46.5405 54.0278 47.5203 52.5485 48.7115 52.5485C49.9027 52.5485 50.8825 54.0086 50.8825 55.8146Z" fill="#263238"/>
<path d="M8.17372 54.7195L5.98352 52.7982C5.98352 52.7982 3.04403 36.852 1.31493 31.2805C-0.414181 25.7089 5.48401 20.9442 6.71359 19.9644C7.94318 18.9846 7.46286 8.14885 22.7174 3.46104C37.972 -1.22676 51.997 2.00092 46.3486 3.23051C40.7002 4.46009 39.9509 5.68968 39.9509 5.68968C39.9509 5.68968 63.3322 11.8376 69.2304 20.6945C75.1286 29.5514 71.1516 32.0105 68.9807 33.9894C66.8097 35.9683 67.7511 37.1786 67.7511 37.1786L65.5417 52.5485L63.6204 54.9116C63.6204 54.9116 63.7549 49.8396 62.0258 47.6109C60.2241 45.7091 59.0273 43.3154 58.5868 40.7329C58.3334 39.2652 58.173 37.7829 58.1065 36.2949C58.1065 36.2949 39.144 34.5658 31.0171 31.3765C22.8903 28.1873 16.7616 25.9587 16.7616 25.9587C16.7616 25.9587 20.2006 29.6474 18.2218 30.3967C16.6919 30.8015 15.083 30.8015 13.5532 30.3967C13.5532 30.3967 15.7626 39.0038 13.3034 43.6724C10.8442 48.341 8.17372 54.7195 8.17372 54.7195Z" fill="#263238" stroke="#263238" stroke-linecap="round" stroke-linejoin="round"/>
</svg>
