<svg width="14" height="14" viewBox="0 0 14 14" fill="none" xmlns="http://www.w3.org/2000/svg">
<g clip-path="url(#clip0_216_11676)">
<path d="M1.44678 3.65771H7.00011V11.9877C7.00011 12.2894 6.88027 12.5787 6.66695 12.792C6.45362 13.0054 6.16429 13.1252 5.86261 13.1252H2.58428C2.28259 13.1252 1.99327 13.0054 1.77994 12.792C1.56662 12.5787 1.44678 12.2894 1.44678 11.9877V3.65771Z" stroke="#6EB6FF" stroke-width="0.8" stroke-miterlimit="10"/>
<path d="M7.56589 0.875H0.886719V3.6575H7.56589V0.875Z" stroke="#6EB6FF" stroke-width="0.8" stroke-miterlimit="10"/>
<path d="M7.0115 6.4458H4.229V10.3425H7.0115V6.4458Z" stroke="#6EB6FF" stroke-width="0.8" stroke-miterlimit="10"/>
<path d="M10.9085 8.67395C12.1392 8.67395 13.1368 7.67629 13.1368 6.44562C13.1368 5.21494 12.1392 4.21729 10.9085 4.21729C9.67783 4.21729 8.68018 5.21494 8.68018 6.44562C8.68018 7.67629 9.67783 8.67395 10.9085 8.67395Z" stroke="#6EB6FF" stroke-width="0.8" stroke-miterlimit="10"/>
<path d="M13.6968 13.125H8.12598" stroke="#6EB6FF" stroke-width="0.8" stroke-miterlimit="10"/>
<path d="M13.6968 10.8965H8.12598" stroke="#6EB6FF" stroke-width="0.8" stroke-miterlimit="10"/>
<path d="M9.24023 4.77148L12.5827 8.11398" stroke="#6EB6FF" stroke-width="0.8" stroke-miterlimit="10"/>
</g>
<defs>
<clipPath id="clip0_216_11676">
<rect width="14" height="14" fill="white"/>
</clipPath>
</defs>
</svg>
