<svg width="16" height="16" viewBox="0 0 16 16" fill="none" xmlns="http://www.w3.org/2000/svg">
<path d="M8 3.54667C8.70324 3.54667 9.27333 2.97658 9.27333 2.27333C9.27333 1.57009 8.70324 1 8 1C7.29676 1 6.72667 1.57009 6.72667 2.27333C6.72667 2.97658 7.29676 3.54667 8 3.54667Z" stroke="#2A2A2A" stroke-miterlimit="10"/>
<path d="M8 9.27323C8.70324 9.27323 9.27333 8.70314 9.27333 7.9999C9.27333 7.29665 8.70324 6.72656 8 6.72656C7.29676 6.72656 6.72667 7.29665 6.72667 7.9999C6.72667 8.70314 7.29676 9.27323 8 9.27323Z" stroke="#2A2A2A" stroke-miterlimit="10"/>
<path d="M8 14.9998C8.70324 14.9998 9.27333 14.4297 9.27333 13.7265C9.27333 13.0232 8.70324 12.4531 8 12.4531C7.29676 12.4531 6.72667 13.0232 6.72667 13.7265C6.72667 14.4297 7.29676 14.9998 8 14.9998Z" stroke="#2A2A2A" stroke-miterlimit="10"/>
</svg>
