<svg width="14" height="14" viewBox="0 0 14 14" fill="none" xmlns="http://www.w3.org/2000/svg">
<g clip-path="url(#clip0_216_12436)">
<path d="M0.5 13.5L13.5 0.5M4.5 5H3C2.73478 5 2.48043 5.10536 2.29289 5.29289C2.10536 5.48043 2 5.73478 2 6V8C2 8.26522 2.10536 8.51957 2.29289 8.70711C2.48043 8.89464 2.73478 9 3 9H4.5M4.5 5V9M4.5 5L8.45 2.19C8.59487 2.08977 8.76364 2.02958 8.93924 2.01553C9.11484 2.00148 9.29104 2.03407 9.45 2.11C9.61491 2.1931 9.7536 2.32024 9.85068 2.47733C9.94776 2.63443 9.99944 2.81533 10 3V4M4.5 9L4.79 9.21M6.67 10.56L8.41 11.81C8.55487 11.9102 8.72364 11.9704 8.89924 11.9845C9.07484 11.9985 9.25104 11.9659 9.41 11.89C9.58239 11.8126 9.72931 11.6879 9.83373 11.5303C9.93816 11.3728 9.99581 11.1889 10 11V7" stroke="#2A2A2A" stroke-linecap="round" stroke-linejoin="round"/>
</g>
<defs>
<clipPath id="clip0_216_12436">
<rect width="14" height="14" fill="white"/>
</clipPath>
</defs>
</svg>
