<svg width="14" height="14" viewBox="0 0 14 14" fill="none" xmlns="http://www.w3.org/2000/svg">
<g clip-path="url(#clip0_216_11712)">
<path d="M12.0108 8.66833V5.88583C12.0093 4.55735 11.4809 3.28372 10.5415 2.34434C9.60211 1.40497 8.32848 0.876544 7 0.875C5.67152 0.876544 4.39789 1.40497 3.45851 2.34434C2.51913 3.28372 1.99071 4.55735 1.98917 5.88583V8.66833L0.875 9.7825V10.8967H13.125V9.7825L12.0108 8.66833Z" stroke="#6EB6FF" stroke-width="0.8" stroke-miterlimit="10"/>
<path d="M8.56931 10.8965C8.64109 11.0823 8.67482 11.2807 8.66847 11.4798C8.66847 11.9223 8.4927 12.3466 8.17983 12.6595C7.86696 12.9724 7.44261 13.1482 7.00014 13.1482C6.55767 13.1482 6.13332 12.9724 5.82045 12.6595C5.50758 12.3466 5.33181 11.9223 5.33181 11.4798C5.32547 11.2807 5.35919 11.0823 5.43098 10.8965" stroke="#6EB6FF" stroke-width="0.8" stroke-miterlimit="10"/>
</g>
<defs>
<clipPath id="clip0_216_11712">
<rect width="14" height="14" fill="white"/>
</clipPath>
</defs>
</svg>
