<svg width="355" height="355" viewBox="0 0 355 355" fill="none" xmlns="http://www.w3.org/2000/svg">
<path d="M44.5312 145.99C44.5312 145.99 34.7119 189.3 63.0906 227.264C91.4693 265.228 140.58 280.237 180.106 293.443C219.631 306.649 256.431 291.945 270.063 258.752C283.695 225.56 255.6 207.441 249.146 163.925C242.692 120.409 247.534 107.92 218.552 74.6281C189.57 41.3362 130.512 41.7338 90.8303 75.4588C51.1484 109.184 44.5312 145.99 44.5312 145.99Z" fill="#6EB6FF"/>
<path opacity="0.7" d="M44.5312 145.99C44.5312 145.99 34.7119 189.3 63.0906 227.264C91.4693 265.228 140.58 280.237 180.106 293.443C219.631 306.649 256.431 291.945 270.063 258.752C283.695 225.56 255.6 207.441 249.146 163.925C242.692 120.409 247.534 107.92 218.552 74.6281C189.57 41.3362 130.512 41.7338 90.8303 75.4588C51.1484 109.184 44.5312 145.99 44.5312 145.99Z" fill="white"/>
<path d="M275.132 88.4234C275.132 88.4234 275.842 84.7456 271.703 78.5828C267.563 72.42 264.83 68.8274 264.83 68.8274C264.83 68.8274 260.57 76.7936 264.376 82.8854C267.188 87.1987 270.356 91.2693 273.847 95.0548L275.132 88.4234Z" fill="#6EB6FF"/>
<path d="M263.154 109.958C263.154 109.958 263.864 106.28 259.725 100.117C255.586 93.9543 252.838 90.3617 252.838 90.3617C252.838 90.3617 248.578 98.3279 252.391 104.413C255.202 108.729 258.37 112.802 261.862 116.589L263.154 109.958Z" fill="#6EB6FF"/>
<path d="M273.577 94.6359C273.577 94.6359 274.685 91.0859 281.252 87.5785C287.82 84.0711 291.902 82.2322 291.902 82.2322C291.902 82.2322 291.902 91.2492 285.668 94.8347C281.15 97.3066 276.433 99.3988 271.568 101.09L273.577 94.6359Z" fill="#6EB6FF"/>
<path d="M259.235 120.026C259.235 120.026 260.712 116.575 267.606 113.813C274.5 111.051 278.782 109.617 278.782 109.617C278.782 109.617 277.809 118.584 271.256 121.495C266.505 123.482 261.596 125.066 256.58 126.231L259.235 120.026Z" fill="#6EB6FF"/>
<path d="M255.145 149.966C255.145 149.966 255.855 146.281 262.032 142.156C268.209 138.031 272.079 135.709 272.079 135.709C272.079 135.709 273.002 144.684 267.208 148.901C262.981 151.842 258.513 154.421 253.853 156.612L255.145 149.966Z" fill="#6EB6FF"/>
<path d="M253.648 157.173C253.648 157.173 254.883 153.623 251.66 146.942C248.436 140.261 246.228 136.292 246.228 136.292C246.228 136.292 240.903 143.569 243.779 150.137C245.948 154.806 248.506 159.286 251.425 163.527L253.648 157.173Z" fill="#6EB6FF"/>
<path d="M244.382 177.599C244.382 177.599 245.092 173.922 251.262 169.789C257.432 165.657 261.316 163.3 261.316 163.3C261.316 163.3 262.239 172.267 256.445 176.492C252.216 179.429 247.748 182.008 243.09 184.202L244.382 177.599Z" fill="#6EB6FF"/>
<path d="M244.027 197.692C244.027 197.692 243.793 193.951 248.706 188.377C253.619 182.804 256.793 179.63 256.793 179.63C256.793 179.63 259.959 188.072 255.422 193.624C252.076 197.539 248.406 201.165 244.453 204.466L244.027 197.692Z" fill="#6EB6FF"/>
<path d="M275.778 87.5714C274.77 91.3558 273.554 95.0818 272.136 98.7326C268.039 108.864 261.621 114.658 257.723 123.767C253.825 132.877 257.283 146.274 253.328 158.181C249.373 170.088 243.296 175.931 243.061 184.366C242.827 192.801 245.66 216.252 245.66 216.252" stroke="#263238" stroke-width="0.5" stroke-linecap="round" stroke-linejoin="round"/>
<path d="M273.052 97.0712L279.442 93.8975" stroke="#263238" stroke-width="0.5" stroke-linecap="round" stroke-linejoin="round"/>
<path d="M274.266 92.2148L272.753 87.6282" stroke="#263238" stroke-width="0.5" stroke-linecap="round" stroke-linejoin="round"/>
<path d="M258.113 123.391C258.113 123.391 263.452 120.814 268.912 118.258" stroke="#263238" stroke-width="0.5" stroke-linecap="round" stroke-linejoin="round"/>
<path d="M261.862 116.589C261.862 116.589 259.47 108.232 256.062 102.339" stroke="#263238" stroke-width="0.5" stroke-linecap="round" stroke-linejoin="round"/>
<path d="M254.308 155.241C257.917 150.867 262.143 147.041 266.853 143.881" stroke="#263238" stroke-width="0.5" stroke-linecap="round" stroke-linejoin="round"/>
<path d="M252.391 160.233C251.626 156.633 250.562 153.104 249.21 149.682C247.279 145.152 246.995 144.556 246.995 144.556" stroke="#263238" stroke-width="0.5" stroke-linecap="round" stroke-linejoin="round"/>
<path d="M243.061 184.366C244.809 181.67 246.763 179.114 248.905 176.719C251.007 174.519 253.286 172.496 255.721 170.67" stroke="#263238" stroke-width="0.5" stroke-linecap="round" stroke-linejoin="round"/>
<path d="M244.453 204.43C244.731 201.584 245.763 198.864 247.442 196.549C250.112 193.177 253.271 188.704 254.542 186.936" stroke="#263238" stroke-width="0.5" stroke-linecap="round" stroke-linejoin="round"/>
<path d="M231.765 131.023C231.765 131.023 231.815 128.631 235.23 125.343C238.645 122.056 240.832 120.21 240.832 120.21C240.832 120.21 242.387 125.734 239.206 129.007C236.875 131.311 234.356 133.415 231.673 135.298L231.765 131.023Z" fill="#6EB6FF"/>
<path d="M236.288 146.033C236.288 146.033 236.345 143.647 239.753 140.353C243.161 137.058 245.362 135.219 245.362 135.219C245.362 135.219 246.909 140.743 243.736 144.023C241.402 146.325 238.88 148.427 236.196 150.307L236.288 146.033Z" fill="#6EB6FF"/>
<path d="M231.886 135.092C231.886 135.092 231.687 132.713 228.073 129.66C224.459 126.607 222.159 124.889 222.159 124.889C222.159 124.889 220.952 130.505 224.332 133.572C226.804 135.723 229.452 137.663 232.248 139.373L231.886 135.092Z" fill="#6EB6FF"/>
<path d="M237.367 152.82C237.367 152.82 236.913 150.477 233.001 147.85C229.088 145.223 226.611 143.725 226.611 143.725C226.611 143.725 226.007 149.405 229.685 152.132C232.37 154.022 235.208 155.684 238.169 157.102L237.367 152.82Z" fill="#6EB6FF"/>
<path d="M235.848 171.99C235.848 171.99 235.897 169.605 232.631 166.19C229.365 162.775 227.257 160.822 227.257 160.822C227.257 160.822 225.467 166.275 228.492 169.683C230.725 172.083 233.154 174.292 235.755 176.286L235.848 171.99Z" fill="#6EB6FF"/>
<path d="M235.805 176.676C235.805 176.676 235.514 174.312 238.432 170.585C241.35 166.857 243.246 164.72 243.246 164.72C243.246 164.72 245.568 169.967 242.891 173.659C240.909 176.268 238.712 178.708 236.323 180.951L235.805 176.676Z" fill="#6EB6FF"/>
<path d="M238.631 196.571C238.631 196.571 239.341 194.291 243.551 192.119C247.761 189.946 250.374 188.775 250.374 188.775C250.374 188.775 250.31 194.512 246.341 196.755C243.453 198.309 240.439 199.618 237.332 200.667L238.631 196.571Z" fill="#6EB6FF"/>
<path d="M238.801 190.635C238.801 190.635 238.851 188.249 235.578 184.834C232.305 181.419 230.203 179.467 230.203 179.467C230.203 179.467 228.414 184.919 231.446 188.327C233.678 190.727 236.108 192.936 238.709 194.93L238.801 190.635Z" fill="#6EB6FF"/>
<path d="M236.295 203.174C236.295 203.174 236.948 200.88 234.655 196.748C232.362 192.616 230.814 190.195 230.814 190.195C230.814 190.195 227.697 195.016 229.77 199.084C231.319 201.974 233.107 204.729 235.116 207.32L236.295 203.174Z" fill="#6EB6FF"/>
<path d="M231.46 130.399C231.575 132.888 231.826 135.37 232.213 137.832C233.391 144.684 236.593 149.192 237.786 155.355C238.979 161.518 235.01 169.406 235.855 177.365C236.7 185.324 239.682 189.769 238.695 195.037C237.708 200.305 232.773 214.512 232.773 214.512" stroke="#263238" stroke-width="0.5" stroke-linecap="round" stroke-linejoin="round"/>
<path d="M231.886 136.675L228.343 133.835" stroke="#263238" stroke-width="0.5" stroke-linecap="round" stroke-linejoin="round"/>
<path d="M231.787 133.494L233.349 130.846" stroke="#263238" stroke-width="0.5" stroke-linecap="round" stroke-linejoin="round"/>
<path d="M237.601 155.064C237.601 155.064 234.641 152.742 231.588 150.413" stroke="#263238" stroke-width="0.5" stroke-linecap="round" stroke-linejoin="round"/>
<path d="M236.196 150.328C237.763 147.454 239.618 144.747 241.734 142.249" stroke="#263238" stroke-width="0.5" stroke-linecap="round" stroke-linejoin="round"/>
<path d="M235.656 175.37C234.005 172.161 231.895 169.21 229.394 166.609" stroke="#263238" stroke-width="0.5" stroke-linecap="round" stroke-linejoin="round"/>
<path d="M236.174 178.75C237.134 176.617 238.269 174.567 239.568 172.622C241.386 170.066 241.641 169.733 241.641 169.733" stroke="#263238" stroke-width="0.5" stroke-linecap="round" stroke-linejoin="round"/>
<path d="M237.743 198.977C239.337 197.646 241.045 196.458 242.848 195.427C243.972 194.898 245.051 194.276 246.072 193.567" stroke="#263238" stroke-width="0.5" stroke-linecap="round" stroke-linejoin="round"/>
<path d="M238.702 195.023C237.982 193.108 237.116 191.252 236.11 189.471C235.1 187.82 233.956 186.255 232.688 184.792" stroke="#263238" stroke-width="0.5" stroke-linecap="round" stroke-linejoin="round"/>
<path d="M235.116 207.32C235.332 205.513 235.06 203.682 234.328 202.016C233.128 199.56 231.772 196.336 231.211 195.08" stroke="#263238" stroke-width="0.5" stroke-linecap="round" stroke-linejoin="round"/>
<path d="M60.222 180.965C60.222 180.965 59.1002 177.72 52.9942 174.759C46.8882 171.799 43.0542 170.208 43.0542 170.208C43.0542 170.208 43.3666 178.444 49.146 181.519C53.3477 183.64 57.7201 185.404 62.2171 186.794L60.222 180.965Z" fill="#6EB6FF"/>
<path d="M60.6409 203.472C60.6409 203.472 59.5191 200.234 53.4131 197.266C47.3071 194.299 43.4731 192.715 43.4731 192.715C43.4731 192.715 43.7855 200.951 49.5649 204.033C53.7677 206.15 58.1399 207.912 62.636 209.301L60.6409 203.472Z" fill="#6EB6FF"/>
<path d="M61.8479 186.581C61.8479 186.581 61.074 183.237 64.6879 177.479C68.3018 171.721 70.6732 168.355 70.6732 168.355C70.6732 168.355 74.7841 175.498 71.5252 181.178C69.0928 185.206 66.3258 189.023 63.2537 192.588L61.8479 186.581Z" fill="#6EB6FF"/>
<path d="M62.1604 213.227C62.1604 213.227 61.7414 209.819 65.9233 204.473C70.1052 199.127 72.8316 196.031 72.8316 196.031C72.8316 196.031 76.1757 203.564 72.3346 208.868C69.4909 212.617 66.3394 216.122 62.9129 219.347L62.1604 213.227Z" fill="#6EB6FF"/>
<path d="M72.6684 238.759C72.6684 238.759 71.5466 235.521 74.5144 229.415C77.4822 223.309 79.4844 219.709 79.4844 219.709C79.4844 219.709 84.3337 226.376 81.6925 232.369C79.6997 236.631 77.3532 240.718 74.6777 244.588L72.6684 238.759Z" fill="#6EB6FF"/>
<path d="M74.7984 245.142C74.7984 245.142 74.1452 241.776 68.522 237.971C62.8988 234.165 59.3559 232.063 59.3559 232.063C59.3559 232.063 58.4897 240.257 63.7792 244.133C67.635 246.836 71.7105 249.211 75.9628 251.233L74.7984 245.142Z" fill="#6EB6FF"/>
<path d="M76.8432 265.54C76.8432 265.54 75.7214 262.295 78.6892 256.189C81.657 250.083 83.6592 246.484 83.6592 246.484C83.6592 246.484 88.5085 253.151 85.8673 259.143C83.8714 263.407 81.5226 267.496 78.8454 271.369L76.8432 265.54Z" fill="#6EB6FF"/>
<path d="M85.7893 281.572C85.7893 281.572 83.8794 278.732 85.2071 272.065C86.5348 265.398 87.5714 261.415 87.5714 261.415C87.5714 261.415 93.9614 266.641 92.9035 273.102C92.0554 277.731 90.8204 282.282 89.2115 286.705L85.7893 281.572Z" fill="#6EB6FF"/>
<path d="M60.3499 179.992C61.2906 183.444 62.0396 186.944 62.5935 190.479C64.0135 200.362 61.5853 207.888 62.6929 216.877C63.8005 225.865 72.6329 234.861 75.0114 246.086C77.3899 257.311 75.2386 264.731 78.9093 271.49C82.58 278.249 95.5872 295.502 95.5872 295.502" stroke="#263238" stroke-width="0.5" stroke-linecap="round" stroke-linejoin="round"/>
<path d="M62.5437 188.746L66.1363 183.308" stroke="#263238" stroke-width="0.5" stroke-linecap="round" stroke-linejoin="round"/>
<path d="M61.28 184.351L57.9714 181.419" stroke="#263238" stroke-width="0.5" stroke-linecap="round" stroke-linejoin="round"/>
<path d="M62.8208 216.401C62.8208 216.401 65.8525 211.914 68.9978 207.391" stroke="#263238" stroke-width="0.5" stroke-linecap="round" stroke-linejoin="round"/>
<path d="M62.6574 209.301C62.6574 209.301 56.9348 203.77 51.5388 200.703" stroke="#263238" stroke-width="0.5" stroke-linecap="round" stroke-linejoin="round"/>
<path d="M74.4292 243.31C75.2732 238.197 76.8565 233.234 79.1294 228.577" stroke="#263238" stroke-width="0.5" stroke-linecap="round" stroke-linejoin="round"/>
<path d="M75.203 248.131C72.9506 245.64 70.495 243.342 67.8616 241.258C64.2548 238.56 63.7578 238.219 63.7578 238.219" stroke="#263238" stroke-width="0.5" stroke-linecap="round" stroke-linejoin="round"/>
<path d="M78.9021 271.49C79.0505 268.557 79.4207 265.64 80.0097 262.764C80.6642 260.072 81.538 257.439 82.6225 254.89" stroke="#263238" stroke-width="0.5" stroke-linecap="round" stroke-linejoin="round"/>
<path d="M89.2115 286.705C88.1262 284.329 87.6925 281.707 87.9548 279.108C88.5228 275.217 88.963 270.233 89.1618 268.252" stroke="#263238" stroke-width="0.5" stroke-linecap="round" stroke-linejoin="round"/>
<path d="M45.4967 234.52C45.4967 234.52 44.4388 232.61 45.6387 228.457C46.8386 224.303 47.7119 221.832 47.7119 221.832C47.7119 221.832 51.4749 225.489 50.4667 229.529C49.6784 232.419 48.6501 235.238 47.3924 237.956L45.4967 234.52Z" fill="#6EB6FF"/>
<path d="M55.9621 244.304C55.9621 244.304 54.9113 242.394 56.1041 238.241C57.2969 234.087 58.1773 231.616 58.1773 231.616C58.1773 231.616 61.9403 235.273 60.9321 239.313C60.1482 242.203 59.1221 245.022 57.8649 247.74L55.9621 244.304Z" fill="#6EB6FF"/>
<path d="M47.4634 237.68C47.4634 237.68 46.2138 235.89 41.9538 235.138C37.6938 234.385 35.0952 234.08 35.0952 234.08C35.0952 234.08 36.7211 239.05 40.7752 239.944C43.7181 240.512 46.7036 240.83 49.6999 240.896L47.4634 237.68Z" fill="#6EB6FF"/>
<path d="M59.9311 249.21C59.9311 249.21 58.5111 247.563 54.1872 247.265C49.8633 246.966 47.2505 246.938 47.2505 246.938C47.2505 246.938 49.3805 251.723 53.534 252.171C56.5179 252.419 59.5173 252.419 62.5013 252.171L59.9311 249.21Z" fill="#6EB6FF"/>
<path d="M67.5281 265.022C67.5281 265.022 66.4702 263.112 62.3238 261.912C58.1774 260.712 55.6072 260.137 55.6072 260.137C55.6072 260.137 56.7006 265.27 60.6553 266.57C63.5199 267.444 66.4531 268.076 69.4238 268.458L67.5281 265.022Z" fill="#6EB6FF"/>
<path d="M69.6437 268.742C69.6437 268.742 68.3302 267.003 68.9337 262.728C69.5372 258.454 70.0484 255.87 70.0484 255.87C70.0484 255.87 74.3084 258.951 73.8682 263.105C73.5007 266.077 72.8832 269.012 72.0222 271.88L69.6437 268.742Z" fill="#6EB6FF"/>
<path d="M81.0038 283.162C81.0038 283.162 80.5352 281.032 82.8498 277.39C85.1644 273.748 86.7051 271.61 86.7051 271.61C86.7051 271.61 89.2895 276.183 87.1808 279.775C85.6124 282.328 83.8311 284.744 81.8558 286.996L81.0038 283.162Z" fill="#6EB6FF"/>
<path d="M78.4123 278.398C78.4123 278.398 77.3615 276.488 73.208 275.295C69.0545 274.103 66.4985 273.513 66.4985 273.513C66.4985 273.513 67.5848 278.647 71.5466 279.953C74.4108 280.836 77.3439 281.477 80.3151 281.87L78.4123 278.398Z" fill="#6EB6FF"/>
<path d="M82.1895 289.46C82.1895 289.46 81.657 287.33 77.9295 285.136C74.202 282.942 71.8874 281.714 71.8874 281.714C71.8874 281.714 71.6389 286.954 75.1392 289.218C77.6886 290.789 80.3652 292.143 83.1409 293.265L82.1895 289.46Z" fill="#6EB6FF"/>
<path d="M44.9856 234.165C46.2199 236.077 47.5567 237.921 48.99 239.689C53.0654 244.567 57.652 246.633 61.4363 250.978C65.2206 255.323 65.6963 263.36 69.9989 269.246C74.3015 275.132 78.7248 277.29 80.3507 281.913C81.9766 286.535 84.6107 300.018 84.6107 300.018" stroke="#263238" stroke-width="0.5" stroke-linecap="round" stroke-linejoin="round"/>
<path d="M48.1875 238.936L44.0837 238.312" stroke="#263238" stroke-width="0.5" stroke-linecap="round" stroke-linejoin="round"/>
<path d="M46.647 236.458L46.6683 233.654" stroke="#263238" stroke-width="0.5" stroke-linecap="round" stroke-linejoin="round"/>
<path d="M61.1451 250.843C61.1451 250.843 57.7371 250.367 54.2581 249.927" stroke="#263238" stroke-width="0.5" stroke-linecap="round" stroke-linejoin="round"/>
<path d="M57.865 247.74C57.7813 244.753 58.005 241.765 58.5324 238.823" stroke="#263238" stroke-width="0.5" stroke-linecap="round" stroke-linejoin="round"/>
<path d="M68.9339 267.791C66.1538 266.013 63.131 264.648 59.9595 263.737" stroke="#263238" stroke-width="0.5" stroke-linecap="round" stroke-linejoin="round"/>
<path d="M70.8864 270.212C70.6649 268.089 70.6222 265.952 70.7586 263.822C71.0213 260.982 71.071 260.591 71.071 260.591" stroke="#263238" stroke-width="0.5" stroke-linecap="round" stroke-linejoin="round"/>
<path d="M81.4084 285.47C82.0455 283.683 82.8391 281.955 83.7798 280.308C84.4224 279.37 84.9898 278.382 85.4767 277.354" stroke="#263238" stroke-width="0.5" stroke-linecap="round" stroke-linejoin="round"/>
<path d="M80.3507 281.913C78.9037 280.731 77.3679 279.663 75.757 278.718C74.1986 277.877 72.5745 277.165 70.9006 276.588" stroke="#263238" stroke-width="0.5" stroke-linecap="round" stroke-linejoin="round"/>
<path d="M83.1551 293.266C82.4939 291.738 81.4376 290.415 80.095 289.432C78.0218 288.047 75.4729 286.13 74.415 285.385" stroke="#263238" stroke-width="0.5" stroke-linecap="round" stroke-linejoin="round"/>
<path d="M248.67 192.126H198.679C196.911 192.126 195.477 193.56 195.477 195.328V303.156C195.477 304.924 196.911 306.358 198.679 306.358H248.67C250.439 306.358 251.873 304.924 251.873 303.156V195.328C251.873 193.56 250.439 192.126 248.67 192.126Z" fill="white" stroke="#263238" stroke-width="1.01" stroke-linecap="round" stroke-linejoin="round"/>
<path d="M247.158 207.114H200.199C198.43 207.114 196.997 208.548 196.997 210.316V300.429C196.997 302.198 198.43 303.632 200.199 303.632H247.158C248.927 303.632 250.36 302.198 250.36 300.429V210.316C250.36 208.548 248.927 207.114 247.158 207.114Z" fill="#6EB6FF"/>
<path opacity="0.5" d="M247.158 207.114H200.199C198.43 207.114 196.997 208.548 196.997 210.316V300.429C196.997 302.198 198.43 303.632 200.199 303.632H247.158C248.927 303.632 250.36 302.198 250.36 300.429V210.316C250.36 208.548 248.927 207.114 247.158 207.114Z" fill="white"/>
<path d="M237.098 167.489H210.267V192.126H237.098V167.489Z" fill="#263238" stroke="#263238" stroke-width="1.01" stroke-linecap="round" stroke-linejoin="round"/>
<path d="M212.503 169.924V189.471" stroke="white" stroke-width="1.01" stroke-linecap="round" stroke-linejoin="round"/>
<path d="M216.649 169.924V189.471" stroke="white" stroke-width="1.01" stroke-linecap="round" stroke-linejoin="round"/>
<path d="M222.571 176.144V189.471" stroke="white" stroke-width="1.01" stroke-linecap="round" stroke-linejoin="round"/>
<path d="M222.571 169.924V173.183" stroke="white" stroke-width="1.01" stroke-linecap="round" stroke-linejoin="round"/>
<path d="M248.656 216.365H198.701V271.497H248.656V216.365Z" fill="white"/>
<path d="M223.345 263.857C233.564 263.857 241.847 255.573 241.847 245.355C241.847 235.136 233.564 226.852 223.345 226.852C213.126 226.852 204.842 235.136 204.842 245.355C204.842 255.573 213.126 263.857 223.345 263.857Z" fill="#263238"/>
<path d="M226.731 232.624H219.958V258.085H226.731V232.624Z" fill="#6EB6FF"/>
<path d="M236.075 248.741V241.968H210.615V248.741H236.075Z" fill="#6EB6FF"/>
<path d="M301.452 254.109H222.805C220.943 254.109 219.433 255.619 219.433 257.482V303.227C219.433 305.089 220.943 306.599 222.805 306.599H301.452C303.314 306.599 304.824 305.089 304.824 303.227V257.482C304.824 255.619 303.314 254.109 301.452 254.109Z" fill="white" stroke="#263238" stroke-linecap="round" stroke-linejoin="round"/>
<path d="M227.605 276.9C226.769 276.9 225.967 276.568 225.376 275.977C224.785 275.386 224.452 274.584 224.452 273.748V265.228C224.451 264.813 224.532 264.402 224.69 264.019C224.848 263.636 225.08 263.287 225.373 262.994C225.666 262.7 226.014 262.468 226.397 262.309C226.78 262.15 227.19 262.068 227.605 262.068C228.443 262.068 229.246 262.401 229.839 262.994C230.431 263.586 230.764 264.39 230.764 265.228V273.748C230.764 274.162 230.683 274.573 230.524 274.956C230.365 275.339 230.132 275.686 229.838 275.979C229.545 276.272 229.197 276.504 228.813 276.662C228.43 276.82 228.019 276.901 227.605 276.9Z" fill="#263238" stroke="#263238" stroke-width="1.01" stroke-linecap="round" stroke-linejoin="round"/>
<path d="M229.742 264.937V270.219" stroke="white" stroke-width="1.01" stroke-linecap="round" stroke-linejoin="round"/>
<path d="M229.742 271.582V274.479" stroke="white" stroke-width="1.01" stroke-linecap="round" stroke-linejoin="round"/>
<path d="M241.4 276.9C240.564 276.9 239.762 276.568 239.171 275.977C238.58 275.386 238.248 274.584 238.248 273.748V265.228C238.247 264.813 238.327 264.402 238.485 264.019C238.644 263.636 238.876 263.287 239.168 262.994C239.461 262.7 239.809 262.468 240.192 262.309C240.575 262.15 240.985 262.068 241.4 262.068C241.815 262.068 242.225 262.15 242.608 262.309C242.991 262.468 243.339 262.7 243.632 262.994C243.924 263.287 244.156 263.636 244.314 264.019C244.472 264.402 244.553 264.813 244.552 265.228V273.748C244.552 274.584 244.22 275.386 243.629 275.977C243.038 276.568 242.236 276.9 241.4 276.9Z" fill="#263238" stroke="#263238" stroke-width="1.01" stroke-linecap="round" stroke-linejoin="round"/>
<path d="M243.544 264.937V270.219" stroke="white" stroke-width="1.01" stroke-linecap="round" stroke-linejoin="round"/>
<path d="M243.544 271.582V274.479" stroke="white" stroke-width="1.01" stroke-linecap="round" stroke-linejoin="round"/>
<path d="M255.224 276.9C254.388 276.9 253.586 276.568 252.995 275.977C252.403 275.386 252.071 274.584 252.071 273.748V265.228C252.07 264.813 252.151 264.402 252.309 264.019C252.467 263.636 252.699 263.287 252.992 262.994C253.285 262.7 253.633 262.468 254.016 262.309C254.399 262.15 254.809 262.068 255.224 262.068C255.638 262.068 256.049 262.15 256.432 262.309C256.815 262.468 257.162 262.7 257.455 262.994C257.748 263.287 257.98 263.636 258.138 264.019C258.296 264.402 258.377 264.813 258.376 265.228V273.748C258.376 274.584 258.044 275.386 257.453 275.977C256.862 276.568 256.06 276.9 255.224 276.9Z" fill="#263238" stroke="#263238" stroke-width="1.01" stroke-linecap="round" stroke-linejoin="round"/>
<path d="M257.354 264.937V270.219" stroke="white" stroke-width="1.01" stroke-linecap="round" stroke-linejoin="round"/>
<path d="M257.354 271.582V274.479" stroke="white" stroke-width="1.01" stroke-linecap="round" stroke-linejoin="round"/>
<path d="M269.033 276.9C268.197 276.9 267.395 276.568 266.804 275.977C266.213 275.386 265.881 274.584 265.881 273.748V265.228C265.88 264.813 265.961 264.402 266.119 264.019C266.277 263.636 266.509 263.287 266.802 262.994C267.094 262.7 267.442 262.468 267.825 262.309C268.208 262.15 268.619 262.068 269.033 262.068C269.448 262.068 269.858 262.15 270.241 262.309C270.624 262.468 270.972 262.7 271.265 262.994C271.558 263.287 271.79 263.636 271.948 264.019C272.106 264.402 272.187 264.813 272.186 265.228V273.748C272.186 274.584 271.854 275.386 271.262 275.977C270.671 276.568 269.869 276.9 269.033 276.9Z" fill="#263238" stroke="#263238" stroke-width="1.01" stroke-linecap="round" stroke-linejoin="round"/>
<path d="M271.163 264.937V270.219" stroke="white" stroke-width="1.01" stroke-linecap="round" stroke-linejoin="round"/>
<path d="M271.163 271.582V274.479" stroke="white" stroke-width="1.01" stroke-linecap="round" stroke-linejoin="round"/>
<path d="M282.843 276.9C282.428 276.901 282.017 276.82 281.634 276.662C281.251 276.504 280.902 276.272 280.609 275.979C280.315 275.686 280.083 275.339 279.924 274.956C279.765 274.573 279.683 274.162 279.683 273.748V265.228C279.683 264.39 280.016 263.586 280.609 262.994C281.201 262.401 282.005 262.068 282.843 262.068C283.257 262.068 283.668 262.15 284.051 262.309C284.434 262.468 284.781 262.7 285.074 262.994C285.367 263.287 285.599 263.636 285.757 264.019C285.915 264.402 285.996 264.813 285.995 265.228V273.748C285.995 274.584 285.663 275.386 285.072 275.977C284.48 276.568 283.679 276.9 282.843 276.9Z" fill="#263238" stroke="#263238" stroke-width="1.01" stroke-linecap="round" stroke-linejoin="round"/>
<path d="M284.973 264.937V270.219" stroke="white" stroke-width="1.01" stroke-linecap="round" stroke-linejoin="round"/>
<path d="M284.973 271.582V274.479" stroke="white" stroke-width="1.01" stroke-linecap="round" stroke-linejoin="round"/>
<path d="M296.645 276.9C295.809 276.9 295.007 276.568 294.416 275.977C293.825 275.386 293.493 274.584 293.493 273.748V265.228C293.492 264.813 293.573 264.402 293.731 264.019C293.889 263.636 294.121 263.287 294.413 262.994C294.706 262.7 295.054 262.468 295.437 262.309C295.82 262.15 296.231 262.068 296.645 262.068C297.06 262.068 297.47 262.15 297.853 262.309C298.236 262.468 298.584 262.7 298.877 262.994C299.17 263.287 299.402 263.636 299.56 264.019C299.718 264.402 299.798 264.813 299.797 265.228V273.748C299.797 274.584 299.465 275.386 298.874 275.977C298.283 276.568 297.481 276.9 296.645 276.9Z" fill="#263238" stroke="#263238" stroke-width="1.01" stroke-linecap="round" stroke-linejoin="round"/>
<path d="M298.775 264.937V270.219" stroke="white" stroke-width="1.01" stroke-linecap="round" stroke-linejoin="round"/>
<path d="M298.775 271.582V274.479" stroke="white" stroke-width="1.01" stroke-linecap="round" stroke-linejoin="round"/>
<path d="M227.605 299.535C226.769 299.535 225.967 299.203 225.376 298.611C224.785 298.02 224.452 297.218 224.452 296.382V287.862C224.452 287.026 224.785 286.224 225.376 285.633C225.967 285.042 226.769 284.71 227.605 284.71C228.019 284.709 228.43 284.79 228.813 284.948C229.197 285.106 229.545 285.338 229.838 285.631C230.132 285.924 230.365 286.271 230.524 286.654C230.683 287.037 230.764 287.448 230.764 287.862V296.382C230.764 296.797 230.683 297.207 230.524 297.59C230.365 297.973 230.132 298.321 229.838 298.614C229.545 298.907 229.197 299.139 228.813 299.297C228.43 299.455 228.019 299.536 227.605 299.535Z" fill="#263238" stroke="#263238" stroke-width="1.01" stroke-linecap="round" stroke-linejoin="round"/>
<path d="M229.742 287.607V292.889" stroke="white" stroke-width="1.01" stroke-linecap="round" stroke-linejoin="round"/>
<path d="M229.742 294.252V297.149" stroke="white" stroke-width="1.01" stroke-linecap="round" stroke-linejoin="round"/>
<path d="M241.4 299.535C240.564 299.535 239.762 299.203 239.171 298.611C238.58 298.02 238.248 297.218 238.248 296.382V287.862C238.248 287.026 238.58 286.224 239.171 285.633C239.762 285.042 240.564 284.71 241.4 284.71C241.814 284.709 242.225 284.79 242.607 284.948C242.99 285.106 243.338 285.338 243.631 285.631C243.924 285.924 244.156 286.272 244.314 286.655C244.472 287.038 244.553 287.448 244.552 287.862V296.382C244.553 296.797 244.472 297.207 244.314 297.59C244.156 297.973 243.924 298.321 243.631 298.614C243.338 298.906 242.99 299.139 242.607 299.297C242.225 299.455 241.814 299.536 241.4 299.535Z" fill="#263238" stroke="#263238" stroke-width="1.01" stroke-linecap="round" stroke-linejoin="round"/>
<path d="M243.544 287.607V292.889" stroke="white" stroke-width="1.01" stroke-linecap="round" stroke-linejoin="round"/>
<path d="M243.544 294.252V297.149" stroke="white" stroke-width="1.01" stroke-linecap="round" stroke-linejoin="round"/>
<path d="M255.224 299.535C254.388 299.535 253.586 299.203 252.995 298.611C252.403 298.02 252.071 297.218 252.071 296.382V287.862C252.071 287.026 252.403 286.224 252.995 285.633C253.586 285.042 254.388 284.71 255.224 284.71C256.06 284.71 256.862 285.042 257.453 285.633C258.044 286.224 258.376 287.026 258.376 287.862V296.382C258.376 297.218 258.044 298.02 257.453 298.611C256.862 299.203 256.06 299.535 255.224 299.535Z" fill="#263238" stroke="#263238" stroke-width="1.01" stroke-linecap="round" stroke-linejoin="round"/>
<path d="M257.354 287.607V292.889" stroke="white" stroke-width="1.01" stroke-linecap="round" stroke-linejoin="round"/>
<path d="M257.354 294.252V297.149" stroke="white" stroke-width="1.01" stroke-linecap="round" stroke-linejoin="round"/>
<path d="M269.033 299.535C268.619 299.536 268.209 299.455 267.826 299.297C267.443 299.139 267.095 298.906 266.802 298.614C266.509 298.321 266.277 297.973 266.119 297.59C265.961 297.207 265.88 296.797 265.881 296.382V287.862C265.88 287.448 265.961 287.038 266.119 286.655C266.277 286.272 266.509 285.924 266.802 285.631C267.095 285.338 267.443 285.106 267.826 284.948C268.209 284.79 268.619 284.709 269.033 284.71C269.869 284.71 270.671 285.042 271.262 285.633C271.854 286.224 272.186 287.026 272.186 287.862V296.382C272.186 297.218 271.854 298.02 271.262 298.611C270.671 299.203 269.869 299.535 269.033 299.535Z" fill="#263238" stroke="#263238" stroke-width="1.01" stroke-linecap="round" stroke-linejoin="round"/>
<path d="M271.163 287.607V292.889" stroke="white" stroke-width="1.01" stroke-linecap="round" stroke-linejoin="round"/>
<path d="M271.163 294.252V297.149" stroke="white" stroke-width="1.01" stroke-linecap="round" stroke-linejoin="round"/>
<path d="M282.843 299.535C282.428 299.536 282.017 299.455 281.634 299.297C281.251 299.139 280.902 298.907 280.609 298.614C280.315 298.321 280.083 297.973 279.924 297.59C279.765 297.207 279.683 296.797 279.683 296.382V287.862C279.683 287.448 279.765 287.037 279.924 286.654C280.083 286.271 280.315 285.924 280.609 285.631C280.902 285.338 281.251 285.106 281.634 284.948C282.017 284.79 282.428 284.709 282.843 284.71C283.679 284.71 284.48 285.042 285.072 285.633C285.663 286.224 285.995 287.026 285.995 287.862V296.382C285.995 297.218 285.663 298.02 285.072 298.611C284.48 299.203 283.679 299.535 282.843 299.535Z" fill="#263238" stroke="#263238" stroke-width="1.01" stroke-linecap="round" stroke-linejoin="round"/>
<path d="M284.973 287.607V292.889" stroke="white" stroke-width="1.01" stroke-linecap="round" stroke-linejoin="round"/>
<path d="M284.973 294.252V297.149" stroke="white" stroke-width="1.01" stroke-linecap="round" stroke-linejoin="round"/>
<path d="M296.645 299.535C295.809 299.535 295.007 299.203 294.416 298.611C293.825 298.02 293.493 297.218 293.493 296.382V287.862C293.493 287.026 293.825 286.224 294.416 285.633C295.007 285.042 295.809 284.71 296.645 284.71C297.059 284.709 297.47 284.79 297.853 284.948C298.235 285.106 298.583 285.338 298.876 285.631C299.169 285.924 299.401 286.272 299.559 286.655C299.718 287.038 299.798 287.448 299.797 287.862V296.382C299.798 296.797 299.718 297.207 299.559 297.59C299.401 297.973 299.169 298.321 298.876 298.614C298.583 298.906 298.235 299.139 297.853 299.297C297.47 299.455 297.059 299.536 296.645 299.535Z" fill="#263238" stroke="#263238" stroke-width="1.01" stroke-linecap="round" stroke-linejoin="round"/>
<path d="M298.775 287.607V292.889" stroke="white" stroke-width="1.01" stroke-linecap="round" stroke-linejoin="round"/>
<path d="M298.775 294.252V297.149" stroke="white" stroke-width="1.01" stroke-linecap="round" stroke-linejoin="round"/>
<path d="M234.591 256.835V258.61" stroke="#263238" stroke-width="0.5" stroke-linecap="round" stroke-linejoin="round"/>
<path d="M234.591 261.905V299.783" stroke="#263238" stroke-width="0.5" stroke-linecap="round" stroke-linejoin="round" stroke-dasharray="4.64 4.64"/>
<path d="M234.591 301.431V303.206" stroke="#263238" stroke-width="0.5" stroke-linecap="round" stroke-linejoin="round"/>
<path d="M248.401 256.835V258.61" stroke="#263238" stroke-width="0.5" stroke-linecap="round" stroke-linejoin="round"/>
<path d="M248.401 261.905V299.783" stroke="#263238" stroke-width="0.5" stroke-linecap="round" stroke-linejoin="round" stroke-dasharray="4.64 4.64"/>
<path d="M248.401 301.431V303.206" stroke="#263238" stroke-width="0.5" stroke-linecap="round" stroke-linejoin="round"/>
<path d="M262.21 256.835V258.61" stroke="#263238" stroke-width="0.5" stroke-linecap="round" stroke-linejoin="round"/>
<path d="M262.21 261.905V299.783" stroke="#263238" stroke-width="0.5" stroke-linecap="round" stroke-linejoin="round" stroke-dasharray="4.64 4.64"/>
<path d="M262.21 301.431V303.206" stroke="#263238" stroke-width="0.5" stroke-linecap="round" stroke-linejoin="round"/>
<path d="M276.012 256.835V258.61" stroke="#263238" stroke-width="0.5" stroke-linecap="round" stroke-linejoin="round"/>
<path d="M276.012 261.905V299.783" stroke="#263238" stroke-width="0.5" stroke-linecap="round" stroke-linejoin="round" stroke-dasharray="4.64 4.64"/>
<path d="M276.012 301.431V303.206" stroke="#263238" stroke-width="0.5" stroke-linecap="round" stroke-linejoin="round"/>
<path d="M289.822 256.835V258.61" stroke="#263238" stroke-width="0.5" stroke-linecap="round" stroke-linejoin="round"/>
<path d="M289.822 261.905V299.783" stroke="#263238" stroke-width="0.5" stroke-linecap="round" stroke-linejoin="round" stroke-dasharray="4.64 4.64"/>
<path d="M289.822 301.431V303.206" stroke="#263238" stroke-width="0.5" stroke-linecap="round" stroke-linejoin="round"/>
<path d="M221.634 280.358H302.268" stroke="#263238" stroke-width="0.5" stroke-linecap="round" stroke-linejoin="round" stroke-dasharray="5 5"/>
<path d="M298.725 261.372V249.778H279.974V261.372L275.48 267.528C274.848 268.399 274.508 269.448 274.507 270.524V306.358H304.164V270.51C304.164 269.434 303.823 268.385 303.191 267.514L298.725 261.372Z" fill="#263238" stroke="#263238" stroke-width="1.01" stroke-linecap="round" stroke-linejoin="round"/>
<path d="M298.733 244.46H280.052V246.469H298.733V244.46Z" fill="#263238" stroke="#263238" stroke-width="1.01" stroke-linecap="round" stroke-linejoin="round"/>
<path d="M301.445 239.895H277.248V245.042H301.445V239.895Z" fill="#6EB6FF" stroke="#263238" stroke-width="1.01" stroke-linecap="round" stroke-linejoin="round"/>
<path d="M300.543 246.37H278.15C277.652 246.37 277.248 246.774 277.248 247.272V249.558C277.248 250.056 277.652 250.46 278.15 250.46H300.543C301.041 250.46 301.445 250.056 301.445 249.558V247.272C301.445 246.774 301.041 246.37 300.543 246.37Z" fill="#263238" stroke="#263238" stroke-width="1.01" stroke-linecap="round" stroke-linejoin="round"/>
<path d="M293.684 272.718H274.514V296.588H293.684V272.718Z" fill="#6EB6FF" stroke="#263238" stroke-width="1.01" stroke-linecap="round" stroke-linejoin="round"/>
<path d="M180.56 82.1328H86.3361C80.6424 82.1328 76.0269 86.7484 76.0269 92.442V295.942C76.0269 301.636 80.6424 306.251 86.3361 306.251H180.56C186.254 306.251 190.869 301.636 190.869 295.942V92.442C190.869 86.7484 186.254 82.1328 180.56 82.1328Z" fill="#263238"/>
<mask id="mask0_37_1727" style="mask-type:luminance" maskUnits="userSpaceOnUse" x="76" y="82" width="115" height="225">
<path d="M180.56 82.1328H86.3361C80.6424 82.1328 76.0269 86.7484 76.0269 92.442V295.942C76.0269 301.636 80.6424 306.251 86.3361 306.251H180.56C186.254 306.251 190.869 301.636 190.869 295.942V92.442C190.869 86.7484 186.254 82.1328 180.56 82.1328Z" fill="white"/>
</mask>
<g mask="url(#mask0_37_1727)">
<path opacity="0.2" d="M85.9099 82.1328C83.2849 82.1328 80.7675 83.1756 78.9113 85.0317C77.0552 86.8878 76.0125 89.4053 76.0125 92.0302V296.354C76.0111 297.802 76.3285 299.233 76.942 300.544C77.5555 301.856 78.4501 303.017 79.5625 303.944L146.565 82.1328H85.9099Z" fill="white"/>
<path d="M137.357 299.769C137.357 298.997 137.128 298.242 136.699 297.6C136.269 296.957 135.66 296.457 134.946 296.161C134.232 295.866 133.447 295.788 132.69 295.939C131.932 296.09 131.237 296.462 130.69 297.008C130.144 297.554 129.772 298.25 129.622 299.007C129.471 299.765 129.548 300.55 129.844 301.264C130.139 301.977 130.64 302.587 131.282 303.016C131.924 303.445 132.679 303.674 133.452 303.674C134.487 303.674 135.481 303.263 136.213 302.53C136.945 301.798 137.357 300.805 137.357 299.769Z" stroke="white" stroke-linecap="round" stroke-linejoin="round"/>
</g>
<path d="M180.56 82.1328H86.3361C80.6424 82.1328 76.0269 86.7484 76.0269 92.442V295.942C76.0269 301.636 80.6424 306.251 86.3361 306.251H180.56C186.254 306.251 190.869 301.636 190.869 295.942V92.442C190.869 86.7484 186.254 82.1328 180.56 82.1328Z" stroke="#263238" stroke-linecap="round" stroke-linejoin="round"/>
<path d="M185.772 97.3552H81.1389V292.953H185.772V97.3552Z" fill="#6EB6FF"/>
<mask id="mask1_37_1727" style="mask-type:luminance" maskUnits="userSpaceOnUse" x="81" y="97" width="105" height="196">
<path d="M185.772 97.3552H81.1389V292.953H185.772V97.3552Z" fill="white"/>
</mask>
<g mask="url(#mask1_37_1727)">
<path d="M166.14 193.873L149.555 178.885L133.452 179.161L117.349 178.885L100.763 193.873L61.543 219.702V295.914H131.379H135.525H205.361V219.702L166.14 193.873Z" fill="white" stroke="#263238" stroke-width="1.01" stroke-linecap="round" stroke-linejoin="round"/>
<path d="M132.11 250.254L124.96 260.393C124.96 260.393 133.48 256.53 141.688 253.186C149.895 249.842 160.212 239.291 162.526 235.436C164.841 231.581 168.206 225.915 168.206 225.915L157.897 217.97H168.98C168.98 217.97 168.718 205.9 165.373 196.095" stroke="#263238" stroke-width="1.01" stroke-linecap="round" stroke-linejoin="round"/>
<path d="M128.844 254.684C127.644 254.18 126.43 253.676 125.216 253.186C116.987 249.842 106.692 239.291 104.377 235.436C102.063 231.581 98.6973 225.915 98.6973 225.915L109.014 217.97H97.9802C97.9802 217.97 98.2429 205.9 101.587 196.095" stroke="#263238" stroke-width="1.01" stroke-linecap="round" stroke-linejoin="round"/>
<path d="M115.922 180.021C115.922 180.021 112.72 230.864 132.11 250.254C132.11 250.254 152.565 236.21 152.565 180.631L115.922 180.021Z" fill="white"/>
<mask id="mask2_37_1727" style="mask-type:luminance" maskUnits="userSpaceOnUse" x="115" y="180" width="38" height="71">
<path d="M115.922 180.021C115.922 180.021 112.72 230.864 132.11 250.254C132.11 250.254 152.565 236.21 152.565 180.631L115.922 180.021Z" fill="white"/>
</mask>
<g mask="url(#mask2_37_1727)">
<path d="M126.749 122.163H143.242C147.971 122.163 152.505 124.041 155.849 127.384C159.192 130.728 161.071 135.263 161.071 139.991V176.989C161.071 180.132 160.453 183.244 159.251 186.149C158.049 189.053 156.287 191.692 154.065 193.915C151.844 196.138 149.206 197.902 146.302 199.106C143.399 200.309 140.287 200.929 137.144 200.93H132.884C129.74 200.93 126.628 200.311 123.724 199.108C120.821 197.905 118.182 196.142 115.96 193.92C113.737 191.697 111.974 189.059 110.771 186.155C109.569 183.251 108.949 180.139 108.949 176.996V139.991C108.949 135.263 110.828 130.728 114.171 127.384C117.515 124.041 122.049 122.163 126.778 122.163H126.749Z" fill="#6EB6FF"/>
<path opacity="0.5" d="M126.749 122.163H143.242C147.971 122.163 152.505 124.041 155.849 127.384C159.192 130.728 161.071 135.263 161.071 139.991V176.989C161.071 180.132 160.453 183.244 159.251 186.149C158.049 189.053 156.287 191.692 154.065 193.915C151.844 196.138 149.206 197.902 146.302 199.106C143.399 200.309 140.287 200.929 137.144 200.93H132.884C129.74 200.93 126.628 200.311 123.724 199.108C120.821 197.905 118.182 196.142 115.96 193.92C113.737 191.697 111.974 189.059 110.771 186.155C109.569 183.251 108.949 180.139 108.949 176.996V139.991C108.949 135.263 110.828 130.728 114.171 127.384C117.515 124.041 122.049 122.163 126.778 122.163H126.749Z" fill="white"/>
</g>
<path d="M115.922 180.021C115.922 180.021 112.72 230.864 132.11 250.254C132.11 250.254 152.565 236.21 152.565 180.631L115.922 180.021Z" stroke="#263238" stroke-width="1.01" stroke-linecap="round" stroke-linejoin="round"/>
<path d="M124.08 175.69C124.08 175.69 122.305 197.877 133.019 206.34C133.019 206.34 144.322 200.213 144.322 175.959L124.08 175.69Z" stroke="#263238" stroke-width="1.01" stroke-linecap="round" stroke-linejoin="round"/>
<path d="M120.501 213.305L133.019 206.34L147.07 216.053" stroke="#263238" stroke-width="1.01" stroke-linecap="round" stroke-linejoin="round"/>
<path d="M136.384 217.58L138.826 210.558L133.019 206.34L125.386 210.558L129.355 216.948L123.093 235.756C125.351 241.379 128.29 246.406 132.11 250.233C132.11 250.233 137.548 246.498 142.817 235.259L136.384 217.58Z" fill="#6EB6FF" stroke="#263238" stroke-width="1.01" stroke-linecap="round" stroke-linejoin="round"/>
<path d="M161.403 255.915C166.965 255.008 170.738 249.764 169.831 244.203C168.925 238.642 163.681 234.868 158.12 235.775C152.558 236.682 148.785 241.925 149.692 247.487C150.599 253.048 155.842 256.821 161.403 255.915Z" fill="white" stroke="#263238" stroke-width="1.01" stroke-linecap="round" stroke-linejoin="round"/>
<path d="M166.535 248.629C168.075 244.882 166.287 240.597 162.54 239.057C158.794 237.516 154.508 239.305 152.968 243.051C151.428 246.797 153.216 251.083 156.962 252.623C160.709 254.164 164.994 252.375 166.535 248.629Z" fill="white" stroke="#263238" stroke-width="1.01" stroke-linecap="round" stroke-linejoin="round"/>
<path d="M159.75 247.407C159.336 247.407 158.939 247.242 158.646 246.949C158.353 246.656 158.188 246.259 158.188 245.845V185.899C158.188 185.485 158.353 185.088 158.646 184.795C158.939 184.502 159.336 184.337 159.75 184.337C160.164 184.337 160.562 184.502 160.855 184.795C161.148 185.088 161.312 185.485 161.312 185.899V245.845C161.313 246.05 161.273 246.254 161.195 246.444C161.117 246.633 161.002 246.806 160.857 246.951C160.712 247.097 160.539 247.212 160.349 247.29C160.159 247.368 159.956 247.408 159.75 247.407Z" fill="#263238"/>
<path d="M110.455 269.147H110.306C108.886 268.906 95.2608 255.657 93.9757 252.107C92.6906 248.557 93.0527 242.877 93.0669 242.664C93.08 242.457 93.175 242.263 93.3308 242.126C93.4865 241.989 93.6904 241.919 93.8976 241.933C94.1047 241.946 94.2981 242.041 94.4353 242.196C94.5724 242.352 94.642 242.556 94.6289 242.763C94.6289 242.813 94.3094 248.337 95.4454 251.596C96.4891 254.571 108.616 266.449 110.533 267.606C111.598 267.273 115.503 263.772 116.923 260.187C116.961 260.091 117.017 260.004 117.088 259.93C117.16 259.856 117.245 259.797 117.339 259.756C117.434 259.715 117.535 259.694 117.638 259.692C117.741 259.69 117.843 259.709 117.938 259.747C118.034 259.784 118.121 259.84 118.195 259.912C118.269 259.983 118.328 260.069 118.369 260.163C118.409 260.257 118.431 260.359 118.433 260.461C118.435 260.564 118.416 260.666 118.378 260.762C116.902 264.56 112.251 269.147 110.455 269.147Z" fill="white" stroke="#263238" stroke-width="1.01" stroke-linecap="round" stroke-linejoin="round"/>
<path d="M98.3493 269.147C96.5459 269.147 91.9025 264.56 90.3973 260.719C90.321 260.526 90.3246 260.311 90.4071 260.12C90.4897 259.93 90.6445 259.78 90.8375 259.704C91.0305 259.628 91.2459 259.631 91.4363 259.714C91.6267 259.796 91.7765 259.951 91.8528 260.144C93.2728 263.73 97.1707 267.244 98.2428 267.564C100.16 266.406 112.287 254.528 113.33 251.553C114.466 248.294 114.154 242.77 114.147 242.721C114.134 242.514 114.203 242.31 114.34 242.154C114.478 241.998 114.671 241.903 114.878 241.89C115.085 241.877 115.289 241.946 115.445 242.084C115.601 242.221 115.696 242.414 115.709 242.621C115.709 242.863 116.05 248.514 114.8 252.064C113.55 255.614 99.9539 268.891 98.47 269.104L98.3493 269.147Z" fill="white" stroke="#263238" stroke-width="1.01" stroke-linecap="round" stroke-linejoin="round"/>
<path d="M104.59 216.16C104.177 216.158 103.78 215.992 103.488 215.7C103.195 215.407 103.03 215.011 103.028 214.598V188.448C103.028 188.034 103.193 187.637 103.486 187.344C103.779 187.051 104.176 186.886 104.59 186.886C105.005 186.886 105.402 187.051 105.695 187.344C105.988 187.637 106.152 188.034 106.152 188.448V214.598C106.152 214.803 106.112 215.006 106.033 215.195C105.955 215.385 105.84 215.557 105.695 215.702C105.55 215.847 105.378 215.962 105.188 216.041C104.999 216.119 104.795 216.16 104.59 216.16Z" fill="#263238"/>
<path d="M114.793 245.816C114.379 245.814 113.983 245.649 113.69 245.357C113.398 245.064 113.233 244.668 113.231 244.254V225.439C113.231 223.063 112.287 220.784 110.607 219.103C108.926 217.423 106.647 216.479 104.271 216.479C101.894 216.479 99.6153 217.423 97.9349 219.103C96.2545 220.784 95.3105 223.063 95.3105 225.439V244.24C95.3105 244.654 95.146 245.052 94.853 245.345C94.5601 245.638 94.1628 245.802 93.7485 245.802C93.3343 245.802 92.937 245.638 92.644 245.345C92.3511 245.052 92.1865 244.654 92.1865 244.24V225.425C92.1865 222.224 93.4582 219.154 95.7217 216.89C97.9853 214.627 101.055 213.355 104.257 213.355C107.458 213.355 110.528 214.627 112.791 216.89C115.055 219.154 116.327 222.224 116.327 225.425V244.24C116.328 244.651 116.169 245.047 115.882 245.342C115.595 245.637 115.204 245.807 114.793 245.816Z" fill="#263238"/>
<path d="M88.9543 257.811L88.6908 258.015C87.898 258.631 87.7546 259.773 88.3704 260.566L89.5246 262.052C90.1404 262.845 91.2823 262.988 92.0751 262.372L92.3386 262.167C93.1313 261.552 93.2748 260.41 92.659 259.617L91.5047 258.131C90.8889 257.338 89.7471 257.195 88.9543 257.811Z" fill="white" stroke="#263238" stroke-width="1.01" stroke-linecap="round" stroke-linejoin="round"/>
<path d="M116.192 262.158L116.455 262.363C117.248 262.979 118.39 262.835 119.006 262.043L120.16 260.557C120.776 259.764 120.632 258.622 119.839 258.006L119.576 257.802C118.783 257.186 117.641 257.329 117.026 258.122L115.871 259.608C115.255 260.401 115.399 261.542 116.192 262.158Z" fill="white" stroke="#263238" stroke-width="1.01" stroke-linecap="round" stroke-linejoin="round"/>
<path d="M107.572 147.162H106.912C104.865 147.162 103.206 148.821 103.206 150.868V157.521C103.206 159.568 104.865 161.227 106.912 161.227H107.572C109.619 161.227 111.279 159.568 111.279 157.521V150.868C111.279 148.821 109.619 147.162 107.572 147.162Z" fill="white" stroke="#263238" stroke-width="1.01" stroke-linecap="round" stroke-linejoin="round"/>
<path d="M162.129 147.162H161.468C159.422 147.162 157.762 148.821 157.762 150.868V157.521C157.762 159.568 159.422 161.227 161.468 161.227H162.129C164.176 161.227 165.835 159.568 165.835 157.521V150.868C165.835 148.821 164.176 147.162 162.129 147.162Z" fill="white" stroke="#263238" stroke-width="1.01" stroke-linecap="round" stroke-linejoin="round"/>
<path d="M126.749 111.924H143.243C147.971 111.924 152.506 113.803 155.849 117.146C159.193 120.49 161.071 125.024 161.071 129.753V166.751C161.071 173.098 158.549 179.186 154.061 183.675C149.572 188.163 143.484 190.685 137.137 190.685H132.877C129.734 190.685 126.621 190.066 123.718 188.863C120.814 187.66 118.175 185.897 115.953 183.675C113.73 181.452 111.967 178.814 110.765 175.91C109.562 173.006 108.943 169.894 108.943 166.751V129.753C108.943 125.028 110.818 120.496 114.157 117.154C117.496 113.811 122.025 111.93 126.749 111.924Z" fill="white" stroke="#263238" stroke-width="1.01" stroke-linecap="round" stroke-linejoin="round"/>
<path d="M128.865 143.058H120.643C119.902 143.058 119.302 143.659 119.302 144.4V144.641C119.302 145.382 119.902 145.983 120.643 145.983H128.865C129.606 145.983 130.207 145.382 130.207 144.641V144.4C130.207 143.659 129.606 143.058 128.865 143.058Z" fill="#263238" stroke="#263238" stroke-width="1.01" stroke-linecap="round" stroke-linejoin="round"/>
<path d="M150.414 143.058H142.192C141.451 143.058 140.85 143.659 140.85 144.4V144.641C140.85 145.382 141.451 145.983 142.192 145.983H150.414C151.155 145.983 151.756 145.382 151.756 144.641V144.4C151.756 143.659 151.155 143.058 150.414 143.058Z" fill="#263238" stroke="#263238" stroke-width="1.01" stroke-linecap="round" stroke-linejoin="round"/>
<path d="M127.8 151.976C127.8 153.665 127.026 155.029 126.068 155.029C125.109 155.029 124.343 153.665 124.343 151.976C124.343 150.286 125.116 148.916 126.068 148.916C127.019 148.916 127.8 150.286 127.8 151.976Z" fill="#263238" stroke="#263238" stroke-width="1.01" stroke-linecap="round" stroke-linejoin="round"/>
<path d="M147.24 151.976C147.24 153.665 146.466 155.029 145.508 155.029C144.549 155.029 143.775 153.665 143.775 151.976C143.775 150.286 144.549 148.916 145.508 148.916C146.466 148.916 147.24 150.286 147.24 151.976Z" fill="#263238" stroke="#263238" stroke-width="1.01" stroke-linecap="round" stroke-linejoin="round"/>
<path d="M144.322 111.924H125.67C121.228 111.924 116.968 113.689 113.827 116.83C110.686 119.971 108.921 124.231 108.921 128.673V168.029C108.921 174.037 111.308 179.8 115.557 184.049C119.806 188.298 125.569 190.685 131.577 190.685H138.45C141.426 190.686 144.372 190.1 147.122 188.962C149.871 187.824 152.369 186.155 154.473 184.051C156.577 181.947 158.245 179.449 159.384 176.7C160.522 173.951 161.107 171.004 161.106 168.029V128.673C161.106 126.471 160.672 124.29 159.828 122.256C158.984 120.221 157.747 118.373 156.188 116.818C154.629 115.262 152.779 114.029 150.742 113.189C148.706 112.35 146.524 111.92 144.322 111.924ZM157.102 162.484C157.102 162.484 157.102 167.269 152.317 172.061C152.317 172.061 147.261 165.409 145.131 164.876C143.754 164.535 138.628 164.635 135.149 164.748C131.677 164.635 126.544 164.535 125.209 164.876C123.079 165.409 118.024 172.061 118.024 172.061C113.238 167.269 113.238 162.484 113.238 162.484V140.665L115.73 137.385C116.683 136.166 117.23 134.678 117.292 133.131C117.355 131.585 116.93 130.058 116.078 128.766C115.183 127.393 114.793 125.752 114.976 124.124C115.159 122.495 115.902 120.981 117.079 119.841L117.129 119.798C118.269 118.696 119.747 118.009 121.325 117.849C122.903 117.69 124.489 118.066 125.826 118.918L129.547 121.836C131.169 123.103 133.169 123.791 135.227 123.791C137.285 123.791 139.284 123.103 140.907 121.836L144.613 118.918C145.958 118.061 147.553 117.682 149.139 117.841C150.726 118.001 152.213 118.691 153.36 119.798L153.403 119.841C154.581 121.003 155.319 122.539 155.49 124.185C155.661 125.831 155.255 127.486 154.34 128.865C153.518 130.153 153.117 131.665 153.192 133.192C153.267 134.718 153.814 136.184 154.759 137.385L157.336 140.665L157.102 162.484Z" fill="#263238" stroke="#263238" stroke-width="1.01" stroke-linecap="round" stroke-linejoin="round"/>
<path d="M138.99 161.575C138.99 161.575 142.185 161.149 142.185 162.995C142.185 164.841 140.318 166.183 136.597 164.855" fill="white"/>
<path d="M138.99 161.575C138.99 161.575 142.185 161.149 142.185 162.995C142.185 164.841 140.318 166.183 136.597 164.855" stroke="#263238" stroke-width="1.01" stroke-linecap="round" stroke-linejoin="round"/>
<path d="M138.72 146.516V161.951C138.72 162.797 138.384 163.609 137.787 164.208C137.189 164.807 136.378 165.144 135.532 165.146H132.692C130.662 165.288 129.952 164.791 129.71 163.932C129.635 163.646 129.62 163.347 129.666 163.055C129.713 162.763 129.82 162.484 129.98 162.235C129.98 161.44 133.374 161.44 133.374 161.44" fill="white"/>
<path d="M138.72 146.516V161.951C138.72 162.797 138.384 163.609 137.787 164.208C137.189 164.807 136.378 165.144 135.532 165.146H132.692C130.662 165.288 129.952 164.791 129.71 163.932C129.635 163.646 129.62 163.347 129.666 163.055C129.713 162.763 129.82 162.484 129.98 162.235C129.98 161.44 133.374 161.44 133.374 161.44" stroke="#263238" stroke-width="1.01" stroke-linecap="round" stroke-linejoin="round"/>
<path d="M135.376 173.95C132.412 173.967 129.497 173.205 126.92 171.742C126.666 171.572 126.489 171.31 126.426 171.012C126.363 170.713 126.418 170.402 126.581 170.144C126.744 169.886 127.001 169.701 127.297 169.63C127.594 169.558 127.907 169.606 128.169 169.761C130.401 170.98 132.906 171.613 135.449 171.601C137.992 171.589 140.49 170.931 142.71 169.69C142.846 169.61 142.997 169.558 143.154 169.538C143.311 169.518 143.47 169.53 143.622 169.572C143.774 169.615 143.916 169.689 144.039 169.788C144.162 169.887 144.264 170.01 144.338 170.149C144.412 170.289 144.458 170.442 144.471 170.599C144.485 170.757 144.466 170.915 144.417 171.065C144.368 171.215 144.289 171.354 144.184 171.473C144.08 171.591 143.953 171.688 143.811 171.756C141.225 173.177 138.326 173.931 135.376 173.95Z" fill="white" stroke="#263238" stroke-width="1.01" stroke-linecap="round" stroke-linejoin="round"/>
<path d="M143.924 156.591H149.079" stroke="#263238" stroke-width="1.01" stroke-linecap="round" stroke-linejoin="round"/>
<path d="M123.448 156.591H128.602" stroke="#263238" stroke-width="1.01" stroke-linecap="round" stroke-linejoin="round"/>
<path d="M103.028 288.43C108.118 288.43 112.244 284.304 112.244 279.215C112.244 274.125 108.118 269.999 103.028 269.999C97.9386 269.999 93.8125 274.125 93.8125 279.215C93.8125 284.304 97.9386 288.43 103.028 288.43Z" stroke="#263238" stroke-width="0.724166" stroke-linecap="round" stroke-linejoin="round"/>
<path d="M103.014 281.494C102.521 281.494 102.048 281.298 101.699 280.949C101.35 280.6 101.154 280.127 101.154 279.634V273.741C101.154 273.247 101.35 272.774 101.699 272.425C102.048 272.076 102.521 271.88 103.014 271.88C103.507 271.88 103.981 272.076 104.329 272.425C104.678 272.774 104.874 273.247 104.874 273.741V279.634C104.874 280.127 104.678 280.6 104.329 280.949C103.981 281.298 103.507 281.494 103.014 281.494Z" fill="#263238"/>
<path d="M103.028 282.836C102.157 282.834 101.322 282.487 100.706 281.871C100.09 281.255 99.7428 280.42 99.741 279.548V276.779C99.741 276.689 99.7769 276.602 99.8408 276.538C99.9047 276.474 99.9914 276.439 100.082 276.439C100.127 276.438 100.172 276.446 100.213 276.463C100.255 276.479 100.293 276.504 100.325 276.536C100.357 276.568 100.382 276.606 100.399 276.648C100.415 276.69 100.424 276.734 100.423 276.779V279.548C100.457 280.217 100.748 280.846 101.233 281.307C101.719 281.768 102.362 282.025 103.032 282.025C103.701 282.025 104.345 281.768 104.831 281.307C105.316 280.846 105.606 280.217 105.641 279.548V276.779C105.64 276.734 105.648 276.69 105.665 276.648C105.682 276.606 105.707 276.568 105.739 276.536C105.771 276.504 105.809 276.479 105.85 276.463C105.892 276.446 105.937 276.438 105.982 276.439C106.072 276.439 106.159 276.474 106.223 276.538C106.287 276.602 106.323 276.689 106.323 276.779V279.548C106.321 280.421 105.973 281.257 105.355 281.873C104.738 282.49 103.901 282.836 103.028 282.836Z" fill="#263238"/>
<path d="M103.028 286.372C102.984 286.372 102.94 286.363 102.899 286.345C102.858 286.328 102.821 286.303 102.79 286.271C102.759 286.24 102.734 286.202 102.718 286.161C102.702 286.119 102.694 286.075 102.695 286.031V282.481C102.695 282.387 102.732 282.296 102.799 282.23C102.865 282.163 102.956 282.126 103.05 282.126C103.144 282.126 103.234 282.163 103.301 282.23C103.367 282.296 103.405 282.387 103.405 282.481V286.031C103.406 286.079 103.397 286.127 103.378 286.171C103.359 286.216 103.331 286.256 103.295 286.288C103.259 286.32 103.217 286.345 103.171 286.359C103.125 286.373 103.076 286.378 103.028 286.372Z" fill="#263238"/>
<path d="M105.3 286.556H100.763C100.674 286.554 100.588 286.518 100.524 286.454C100.461 286.391 100.424 286.305 100.423 286.215C100.423 286.125 100.459 286.038 100.522 285.974C100.586 285.91 100.673 285.875 100.763 285.875H105.3C105.391 285.875 105.477 285.91 105.541 285.974C105.605 286.038 105.641 286.125 105.641 286.215C105.639 286.305 105.603 286.391 105.539 286.454C105.476 286.518 105.39 286.554 105.3 286.556Z" fill="#263238"/>
<path d="M164.053 288.43C169.142 288.43 173.269 284.304 173.269 279.215C173.269 274.125 169.142 269.999 164.053 269.999C158.963 269.999 154.837 274.125 154.837 279.215C154.837 284.304 158.963 288.43 164.053 288.43Z" stroke="#263238" stroke-width="0.724166" stroke-linecap="round" stroke-linejoin="round"/>
<path d="M169.74 276.517L167.049 278.072V276.794C167.047 276.503 166.93 276.225 166.724 276.02C166.518 275.815 166.239 275.7 165.948 275.7H159.871C159.727 275.699 159.584 275.727 159.45 275.781C159.317 275.836 159.195 275.916 159.093 276.018C158.991 276.12 158.91 276.24 158.854 276.374C158.799 276.507 158.77 276.649 158.77 276.794V281.693C158.769 281.837 158.797 281.981 158.852 282.115C158.907 282.249 158.988 282.371 159.091 282.473C159.193 282.575 159.315 282.656 159.449 282.711C159.582 282.766 159.726 282.794 159.871 282.793H165.948C166.093 282.793 166.236 282.765 166.37 282.709C166.503 282.654 166.624 282.573 166.727 282.471C166.829 282.369 166.91 282.247 166.965 282.114C167.02 281.98 167.049 281.837 167.049 281.693V280.45L169.74 282.005V276.517Z" fill="#263238"/>
<path d="M133.544 288.43C138.634 288.43 142.76 284.304 142.76 279.215C142.76 274.125 138.634 269.999 133.544 269.999C128.454 269.999 124.328 274.125 124.328 279.215C124.328 284.304 128.454 288.43 133.544 288.43Z" fill="#263238" stroke="#263238" stroke-width="0.724166" stroke-linecap="round" stroke-linejoin="round"/>
<path d="M138.209 277.269H128.879C128.621 277.269 128.366 277.326 128.132 277.435C127.898 277.545 127.691 277.705 127.525 277.903C127.36 278.102 127.24 278.334 127.175 278.584C127.11 278.834 127.1 279.096 127.147 279.35L127.417 280.812C127.436 280.911 127.489 281.001 127.567 281.065C127.644 281.13 127.742 281.166 127.843 281.167H130.683C130.799 281.167 130.911 281.121 130.994 281.038C131.077 280.956 131.123 280.844 131.123 280.727V279.144H136.022V280.727C136.022 280.844 136.068 280.956 136.151 281.038C136.233 281.121 136.345 281.167 136.462 281.167H139.302C139.404 281.167 139.503 281.132 139.582 281.067C139.661 281.003 139.715 280.912 139.735 280.812L140.005 279.35C140.053 279.09 140.042 278.823 139.973 278.568C139.904 278.314 139.779 278.078 139.606 277.878C139.434 277.678 139.219 277.52 138.977 277.415C138.735 277.309 138.472 277.26 138.209 277.269Z" fill="#6EB6FF"/>
<path d="M181.654 99.3859H172.978V104.143H181.654V99.3859Z" stroke="#263238" stroke-width="0.821067" stroke-linecap="round" stroke-linejoin="round"/>
<path d="M179.744 99.3859H172.978V104.143H179.744V99.3859Z" fill="#263238" stroke="#263238" stroke-width="0.725073" stroke-linecap="round" stroke-linejoin="round"/>
<path d="M182.854 100.714H181.632V102.808H182.854V100.714Z" fill="#263238" stroke="#263238" stroke-width="0.725073" stroke-linecap="round" stroke-linejoin="round"/>
<path d="M84.5257 100.856H82.9353V103.582H84.5257V100.856Z" fill="#263238" stroke="#263238" stroke-width="0.883086" stroke-linecap="round" stroke-linejoin="round"/>
<path d="M87.025 99.9042H85.4346V103.589H87.025V99.9042Z" fill="#263238" stroke="#263238" stroke-width="0.883086" stroke-linecap="round" stroke-linejoin="round"/>
<path d="M89.524 98.7682H87.9336V103.582H89.524V98.7682Z" fill="#263238" stroke="#263238" stroke-width="0.883086" stroke-linecap="round" stroke-linejoin="round"/>
</g>
<path d="M185.772 97.3552H81.1389V292.953H185.772V97.3552Z" stroke="#263238" stroke-linecap="round" stroke-linejoin="round"/>
<path d="M57.0271 306.251H322.645" stroke="#263238" stroke-width="1.01" stroke-linecap="round" stroke-linejoin="round"/>
<path d="M42.4722 306.251H49.4941" stroke="#263238" stroke-width="1.01" stroke-linecap="round" stroke-linejoin="round"/>
</svg>
