<svg width="20" height="20" viewBox="0 0 20 20" fill="none" xmlns="http://www.w3.org/2000/svg">
<path fill-rule="evenodd" clip-rule="evenodd" d="M5.41667 5.41659H2.5V4.58325H5.41667V5.41659ZM17.5 5.41659H9.58333V4.58325H17.5V5.41659Z" fill="#2A2A2A" fill-opacity="0.25"/>
<path fill-rule="evenodd" clip-rule="evenodd" d="M7.5 3.33333C6.57953 3.33333 5.83333 4.07953 5.83333 5C5.83333 5.92047 6.57953 6.66667 7.5 6.66667C8.42047 6.66667 9.16667 5.92047 9.16667 5C9.16667 4.07953 8.42047 3.33333 7.5 3.33333ZM5 5C5 3.61929 6.11929 2.5 7.5 2.5C8.88071 2.5 10 3.61929 10 5C10 6.38071 8.88071 7.5 7.5 7.5C6.11929 7.5 5 6.38071 5 5Z" fill="#2A2A2A" fill-opacity="0.25"/>
<path fill-rule="evenodd" clip-rule="evenodd" d="M15.8333 10.4166H17.5V9.58325H15.8333V10.4166ZM2.5 10.4166H11.6667V9.58325H2.5V10.4166Z" fill="#2A2A2A" fill-opacity="0.25"/>
<path fill-rule="evenodd" clip-rule="evenodd" d="M13.75 8.33333C14.6705 8.33333 15.4167 9.07953 15.4167 10C15.4167 10.9205 14.6705 11.6667 13.75 11.6667C12.8295 11.6667 12.0833 10.9205 12.0833 10C12.0833 9.07953 12.8295 8.33333 13.75 8.33333ZM16.25 10C16.25 8.61929 15.1307 7.5 13.75 7.5C12.3693 7.5 11.25 8.61929 11.25 10C11.25 11.3807 12.3693 12.5 13.75 12.5C15.1307 12.5 16.25 11.3807 16.25 10Z" fill="#2A2A2A" fill-opacity="0.25"/>
<path fill-rule="evenodd" clip-rule="evenodd" d="M6.66667 15.4166H2.5V14.5833H6.66667V15.4166ZM17.5 15.4166H10.8333V14.5833H17.5V15.4166Z" fill="#2A2A2A" fill-opacity="0.25"/>
<path fill-rule="evenodd" clip-rule="evenodd" d="M8.75 13.3333C7.82953 13.3333 7.08333 14.0795 7.08333 15C7.08333 15.9205 7.82953 16.6667 8.75 16.6667C9.67047 16.6667 10.4167 15.9205 10.4167 15C10.4167 14.0795 9.67047 13.3333 8.75 13.3333ZM6.25 15C6.25 13.6193 7.36929 12.5 8.75 12.5C10.1307 12.5 11.25 13.6193 11.25 15C11.25 16.3807 10.1307 17.5 8.75 17.5C7.36929 17.5 6.25 16.3807 6.25 15Z" fill="#2A2A2A" fill-opacity="0.25"/>
</svg>
