<svg width="14" height="14" viewBox="0 0 14 14" fill="none" xmlns="http://www.w3.org/2000/svg">
<g clip-path="url(#clip0_216_11842)">
<path d="M12.0107 0.875V4.2175H2.54316C2.11699 4.19231 1.71654 4.00526 1.4237 3.69461C1.13087 3.38396 0.967773 2.97317 0.967773 2.54625C0.967773 2.11933 1.13087 1.70854 1.4237 1.39789C1.71654 1.08724 2.11699 0.900189 2.54316 0.875H12.0107Z" stroke="#6EB6FF" stroke-width="0.8" stroke-miterlimit="10" stroke-linecap="square"/>
<path d="M10.8969 7.5835H13.1252V9.81183H10.8969C10.6014 9.81183 10.318 9.69444 10.109 9.4855C9.9001 9.27655 9.78271 8.99316 9.78271 8.69766C9.78271 8.40217 9.9001 8.11877 10.109 7.90983C10.318 7.70088 10.6014 7.5835 10.8969 7.5835Z" stroke="#6EB6FF" stroke-width="0.8" stroke-miterlimit="10" stroke-linecap="square"/>
<path d="M13.125 4.21762V13.1251H1.98918C1.69415 13.1236 1.41165 13.0057 1.20304 12.7971C0.99442 12.5885 0.876543 12.306 0.87501 12.011V2.54346C0.874242 2.76304 0.916829 2.98061 1.00033 3.18369C1.08382 3.38678 1.20659 3.57138 1.36159 3.72692C1.51658 3.88246 1.70076 4.00587 1.90355 4.09007C2.10634 4.17428 2.32376 4.21762 2.54334 4.21762H13.125Z" stroke="#6EB6FF" stroke-width="0.8" stroke-miterlimit="10" stroke-linecap="square"/>
</g>
<defs>
<clipPath id="clip0_216_11842">
<rect width="14" height="14" fill="white"/>
</clipPath>
</defs>
</svg>
