<svg width="14" height="14" viewBox="0 0 14 14" fill="none" xmlns="http://www.w3.org/2000/svg">
<path d="M0.875 8.68604H1.98917L4.90583 10.3602C5.54409 10.7226 6.26606 10.9116 7 10.9085" stroke="#6EB6FF" stroke-width="0.8" stroke-miterlimit="10"/>
<path d="M11.1768 9.16437L12.0109 8.68604H13.1251" stroke="#6EB6FF" stroke-width="0.8" stroke-miterlimit="10"/>
<path d="M6.99988 10.9081C7.72987 10.9091 8.44756 10.7202 9.08238 10.3598L10.249 9.67727L8.10238 6.45727L6.55655 6.84227C6.4055 6.87763 6.25084 6.89525 6.09571 6.89477C5.80224 6.89481 5.51274 6.82693 5.24988 6.69644C5.10034 6.62281 4.97513 6.50774 4.88916 6.36494C4.8032 6.22213 4.76011 6.05763 4.76503 5.89102C4.76995 5.72441 4.82267 5.56273 4.9169 5.42525C5.01114 5.28777 5.14293 5.18028 5.29655 5.1156L8.25988 3.84977C8.59492 3.70749 8.96004 3.6506 9.32248 3.68419C9.68493 3.71779 10.0334 3.84083 10.3365 4.04227L11.4565 4.7831H13.1249" stroke="#6EB6FF" stroke-width="0.8" stroke-miterlimit="10"/>
<path d="M0.875 4.7831H2.54333L3.66333 4.04227C3.96651 3.84083 4.31495 3.71779 4.6774 3.68419C5.03984 3.6506 5.40496 3.70749 5.74 3.84977L7 4.39227" stroke="#6EB6FF" stroke-width="0.8" stroke-miterlimit="10"/>
<path d="M13.125 3.6748V9.7998" stroke="#6EB6FF" stroke-width="0.8" stroke-miterlimit="10"/>
<path d="M0.875 3.6748V9.7998" stroke="#6EB6FF" stroke-width="0.8" stroke-miterlimit="10"/>
</svg>
