<svg width="18" height="19" viewBox="0 0 18 19" fill="none" xmlns="http://www.w3.org/2000/svg">
<path d="M9 17.5H7.125C4.6875 17.5 2.75 15.5625 2.75 13.125V10.625H4V13.125C4 14.875 5.375 16.25 7.125 16.25H9V17.5ZM16.5 18.75H17.875L15 11.875H13.625L10.75 18.75H12.125L12.625 17.5H15.9375L16.5 18.75ZM13.1875 16.25L14.3125 13.5L15.4375 16.25H13.1875ZM16.5 9.375H15.25V6.875C15.25 5.125 13.875 3.75 12.125 3.75H9.625V2.5H12.125C14.5625 2.5 16.5 4.4375 16.5 6.875V9.375ZM7.75 3.125V1.875H4.625V0.625H3.375V1.875H0.25V3.125H5.375C5.25 3.6875 4.875 4.6875 4 5.625C3.625 5.1875 3.3125 4.75 3.125 4.375H1.6875C1.9375 5 2.375 5.75 3 6.4375C2.5 6.875 1.75 7.25 0.875 7.5625L1.3125 8.75C2.4375 8.3125 3.3125 7.8125 4 7.3125C4.6875 7.875 5.5625 8.375 6.6875 8.75L7.125 7.5625C6.25 7.25 5.5 6.8125 4.9375 6.4375C6.125 5.1875 6.5 3.875 6.625 3.125H7.75Z" fill="#2A2A2A"/>
</svg>
