<svg width="20" height="20" viewBox="0 0 20 20" fill="none" xmlns="http://www.w3.org/2000/svg">
<path d="M10.1083 2.84155H9.89167C9.68144 2.84124 9.47462 2.89466 9.29085 2.99676C9.10708 3.09885 8.95246 3.24623 8.84167 3.42489L1.44167 15.2666C1.31684 15.4635 1.25038 15.6917 1.25 15.9249C1.24999 16.0883 1.28243 16.25 1.34545 16.4007C1.40847 16.5515 1.50081 16.6882 1.61711 16.8029C1.7334 16.9177 1.87134 17.0082 2.0229 17.0692C2.17447 17.1302 2.33664 17.1604 2.5 17.1582H17.5C17.8271 17.1582 18.1408 17.0283 18.3721 16.797C18.6034 16.5657 18.7333 16.252 18.7333 15.9249C18.733 15.6917 18.6665 15.4635 18.5417 15.2666L11.1583 3.42489C11.0475 3.24623 10.8929 3.09885 10.7091 2.99676C10.5254 2.89466 10.3186 2.84124 10.1083 2.84155Z" stroke="#2A2A2A" stroke-width="1.5" stroke-miterlimit="10"/>
<path d="M10 6.81665V11.5916" stroke="#2A2A2A" stroke-width="1.5" stroke-miterlimit="10"/>
<path d="M10 13.1833V14.775" stroke="#2A2A2A" stroke-width="1.5" stroke-miterlimit="10"/>
</svg>
