<svg width="60" height="60" viewBox="0 0 60 60" fill="none" xmlns="http://www.w3.org/2000/svg">
<path d="M30.325 8.525H29.675C29.0443 8.52405 28.4239 8.68433 27.8726 8.99061C27.3213 9.2969 26.8574 9.73902 26.525 10.275L4.325 45.8C3.95051 46.3907 3.75114 47.0756 3.75 47.775C3.74996 48.2651 3.84729 48.7504 4.03635 49.2026C4.22541 49.6548 4.50243 50.0649 4.85132 50.4091C5.20021 50.7534 5.61402 51.0249 6.06871 51.2078C6.5234 51.3908 7.00992 51.4816 7.5 51.475H52.5C53.4813 51.475 54.4224 51.0852 55.1163 50.3913C55.8102 49.6974 56.2 48.7563 56.2 47.775C56.1989 47.0756 55.9995 46.3907 55.625 45.8L33.475 10.275C33.1426 9.73902 32.6787 9.2969 32.1274 8.99061C31.5761 8.68433 30.9557 8.52405 30.325 8.525Z" stroke="#E70C0C" stroke-width="2" stroke-miterlimit="10"/>
<path d="M30 20.45V34.775" stroke="#E70C0C" stroke-width="2" stroke-miterlimit="10"/>
<path d="M30 39.55V44.325" stroke="#E70C0C" stroke-width="2" stroke-miterlimit="10"/>
</svg>
