<svg width="24" height="22" viewBox="0 0 24 22" fill="none" xmlns="http://www.w3.org/2000/svg">
<path d="M5.40002 4.3999C4.60438 4.3999 3.84131 4.68963 3.2787 5.20536C2.71609 5.72108 2.40002 6.42056 2.40002 7.1499V14.8499C2.40002 15.5792 2.71609 16.2787 3.2787 16.7944C3.84131 17.3102 4.60438 17.5999 5.40002 17.5999H13.8C14.5957 17.5999 15.3587 17.3102 15.9213 16.7944C16.484 16.2787 16.8 15.5792 16.8 14.8499V13.7499L19.68 15.7299C19.8583 15.8525 20.0703 15.9271 20.2923 15.9455C20.5142 15.9638 20.7374 15.9251 20.9367 15.8338C21.136 15.7424 21.3036 15.602 21.4208 15.4282C21.538 15.2544 21.6 15.0542 21.6 14.8499V7.1499C21.6 6.94562 21.538 6.74537 21.4208 6.5716C21.3036 6.39782 21.136 6.25739 20.9367 6.16603C20.7374 6.07467 20.5142 6.036 20.2923 6.05435C20.0703 6.07269 19.8583 6.14733 19.68 6.2699L16.8 8.2499V7.1499C16.8 6.42056 16.484 5.72108 15.9213 5.20536C15.3587 4.68963 14.5957 4.3999 13.8 4.3999H5.40002ZM16.8 9.6249L20.4 7.1499V14.8499L16.8 12.3749V9.6249ZM15.6 7.1499V14.8499C15.6 15.2875 15.4104 15.7072 15.0728 16.0166C14.7353 16.3261 14.2774 16.4999 13.8 16.4999H5.40002C4.92263 16.4999 4.4648 16.3261 4.12723 16.0166C3.78967 15.7072 3.60002 15.2875 3.60002 14.8499V7.1499C3.60002 6.7123 3.78967 6.29261 4.12723 5.98318C4.4648 5.67374 4.92263 5.4999 5.40002 5.4999H13.8C14.2774 5.4999 14.7353 5.67374 15.0728 5.98318C15.4104 6.29261 15.6 6.7123 15.6 7.1499Z" fill="#2A2A2A"/>
</svg>
