<svg width="15" height="21" viewBox="0 0 15 21" fill="none" xmlns="http://www.w3.org/2000/svg">
<path d="M7.25 0.40625C6.13112 0.40625 5.05806 0.850724 4.26689 1.64189C3.47572 2.43306 3.03125 3.50612 3.03125 4.625V10.25C3.03125 11.3689 3.47572 12.4419 4.26689 13.2331C5.05806 14.0243 6.13112 14.4688 7.25 14.4688C8.36888 14.4688 9.44194 14.0243 10.2331 13.2331C11.0243 12.4419 11.4688 11.3689 11.4688 10.25V4.625C11.4688 3.50612 11.0243 2.43306 10.2331 1.64189C9.44194 0.850724 8.36888 0.40625 7.25 0.40625ZM10.0625 10.25C10.0625 10.9959 9.76618 11.7113 9.23874 12.2387C8.71129 12.7662 7.99592 13.0625 7.25 13.0625C6.50408 13.0625 5.78871 12.7662 5.26126 12.2387C4.73382 11.7113 4.4375 10.9959 4.4375 10.25V4.625C4.4375 3.87908 4.73382 3.16371 5.26126 2.63626C5.78871 2.10882 6.50408 1.8125 7.25 1.8125C7.99592 1.8125 8.71129 2.10882 9.23874 2.63626C9.76618 3.16371 10.0625 3.87908 10.0625 4.625V10.25ZM0.921875 9.54688C1.10836 9.54688 1.2872 9.62095 1.41906 9.75282C1.55092 9.88468 1.625 10.0635 1.625 10.25C1.625 11.7418 2.21763 13.1726 3.27252 14.2275C4.32742 15.2824 5.75816 15.875 7.25 15.875C8.74184 15.875 10.1726 15.2824 11.2275 14.2275C12.2824 13.1726 12.875 11.7418 12.875 10.25C12.875 10.0635 12.9491 9.88468 13.0809 9.75282C13.2128 9.62095 13.3916 9.54688 13.5781 9.54688C13.7646 9.54688 13.9434 9.62095 14.0753 9.75282C14.2072 9.88468 14.2812 10.0635 14.2812 10.25C14.2812 13.8964 11.506 16.8945 7.95242 17.2461L7.95312 17.2812V19.3906C7.95312 19.5771 7.87905 19.7559 7.74718 19.8878C7.61532 20.0197 7.43648 20.0938 7.25 20.0938C7.06352 20.0938 6.88468 20.0197 6.75282 19.8878C6.62095 19.7559 6.54688 19.5771 6.54688 19.3906V17.2812L6.54758 17.2461C2.99398 16.8945 0.21875 13.8971 0.21875 10.25C0.21875 10.0635 0.292829 9.88468 0.424691 9.75282C0.556552 9.62095 0.735395 9.54688 0.921875 9.54688Z" fill="white"/>
</svg>
