<svg width="310" height="207" viewBox="0 0 310 207" fill="none" xmlns="http://www.w3.org/2000/svg">
<path d="M268.022 81.2144C257.428 64.2653 242.875 49.4523 227.602 38.0011C212.147 26.4091 193.8 17.7151 174.348 16.3323C155.009 14.9194 135.635 18.5449 118.11 26.8562C105.4 32.9296 94.0416 41.4 85.6137 52.7809C84.2621 54.6066 83.4272 56.4655 82.5179 58.5769C82.3608 58.9467 82.2078 59.3152 82.0591 59.6823C79.8147 65.2379 78.0879 70.9893 76.9007 76.8633C76.2269 80.2084 75.9417 83.8226 74.6315 87.0021C70.7626 96.3875 58.4577 99.0951 50.6581 104.229C32.0416 116.495 14.9089 137.779 18.5297 161.46V161.543C21.8364 182.748 30.9008 184.955 30.9008 184.955H273.693C273.693 184.955 285.241 167.053 284.692 133.453C284.373 114.769 277.847 96.9423 268.022 81.2144Z" fill="#6EB6FF"/>
<path opacity="0.7" d="M268.022 81.2144C257.428 64.2653 242.875 49.4523 227.602 38.0011C212.147 26.4091 193.8 17.7151 174.348 16.3323C155.009 14.9194 135.635 18.5449 118.11 26.8562C105.4 32.9296 94.0416 41.4 85.6137 52.7809C84.2621 54.6066 83.4272 56.4655 82.5179 58.5769C82.3608 58.9467 82.2078 59.3152 82.0591 59.6823C79.8147 65.2379 78.0879 70.9893 76.9007 76.8633C76.2269 80.2084 75.9417 83.8226 74.6315 87.0021C70.7626 96.3875 58.4577 99.0951 50.6581 104.229C32.0416 116.495 14.9089 137.779 18.5297 161.46V161.543C21.8364 182.748 30.9008 184.955 30.9008 184.955H273.693C273.693 184.955 285.241 167.053 284.692 133.453C284.373 114.769 277.847 96.9423 268.022 81.2144Z" fill="white"/>
<path d="M118.895 38.8873L109.571 33.4971V44.2818L118.895 38.8873Z" stroke="#263238" stroke-miterlimit="10"/>
<path d="M125.145 38.7754C125.093 38.9431 125.067 39.1175 125.066 39.2929C125.066 39.3509 125.066 39.4088 125.066 39.4668H121.958V38.7754H125.145Z" stroke="#263238" stroke-miterlimit="10"/>
<path d="M162.638 38.7754V39.4668H128.505C128.505 39.4088 128.505 39.3509 128.505 39.2929C128.505 39.1175 128.478 38.9431 128.427 38.7754H162.638Z" stroke="#263238" stroke-miterlimit="10"/>
<path d="M128.514 39.2931C128.514 39.351 128.514 39.409 128.514 39.467C128.472 39.8935 128.273 40.2893 127.956 40.5771C127.639 40.865 127.226 41.0245 126.798 41.0245C126.37 41.0245 125.958 40.865 125.641 40.5771C125.324 40.2893 125.125 39.8935 125.083 39.467C125.083 39.409 125.083 39.351 125.083 39.2931C125.083 39.1177 125.11 38.9433 125.161 38.7756C125.267 38.418 125.485 38.1042 125.783 37.881C126.081 37.6577 126.443 37.5371 126.815 37.5371C127.187 37.5371 127.549 37.6577 127.847 37.881C128.145 38.1042 128.363 38.418 128.468 38.7756C128.508 38.9449 128.524 39.1193 128.514 39.2931Z" stroke="#263238" stroke-miterlimit="10"/>
<path d="M32.426 159.2V170.949L27.3792 167.277H24.9695V162.872H27.3792L32.426 159.2Z" stroke="#263238" stroke-miterlimit="10"/>
<path d="M36.8404 160.338C37.5135 160.92 38.0461 161.647 38.398 162.465C38.75 163.283 38.9122 164.17 38.8724 165.059C38.8326 165.949 38.5919 166.818 38.1683 167.6C37.7447 168.383 37.1494 169.06 36.4271 169.579" stroke="#263238" stroke-linecap="round" stroke-linejoin="round"/>
<path d="M34.1703 162.036C34.7114 162.265 35.1732 162.648 35.4978 163.139C35.8225 163.629 35.9956 164.204 35.9956 164.793C35.9956 165.381 35.8225 165.957 35.4978 166.447C35.1732 166.937 34.7114 167.321 34.1703 167.55" stroke="#263238" stroke-linecap="round" stroke-linejoin="round"/>
<path d="M158.526 172.808C158.833 172.808 159.137 172.747 159.42 172.629C159.704 172.512 159.962 172.339 160.179 172.121C160.395 171.904 160.567 171.645 160.684 171.361C160.802 171.077 160.862 170.772 160.861 170.465V163.046C160.874 162.73 160.824 162.415 160.712 162.119C160.601 161.824 160.431 161.554 160.212 161.326C159.994 161.097 159.732 160.916 159.442 160.792C159.151 160.668 158.839 160.604 158.524 160.604C158.208 160.604 157.896 160.668 157.606 160.792C157.316 160.916 157.053 161.097 156.835 161.326C156.617 161.554 156.447 161.824 156.335 162.119C156.224 162.415 156.173 162.73 156.186 163.046V170.465C156.186 170.772 156.247 171.077 156.364 171.361C156.482 171.646 156.654 171.904 156.871 172.122C157.089 172.339 157.347 172.512 157.63 172.629C157.914 172.747 158.219 172.808 158.526 172.808Z" stroke="#263238" stroke-miterlimit="10"/>
<path d="M162.676 170.353V166.871C162.676 166.757 162.631 166.648 162.55 166.568C162.47 166.488 162.361 166.442 162.248 166.442C162.134 166.442 162.026 166.488 161.945 166.568C161.865 166.648 161.82 166.757 161.82 166.871V170.353C161.82 171.223 161.475 172.058 160.86 172.674C160.245 173.29 159.412 173.636 158.542 173.636C157.673 173.636 156.839 173.29 156.225 172.674C155.61 172.058 155.265 171.223 155.265 170.353V166.871C155.265 166.758 155.22 166.649 155.14 166.569C155.06 166.489 154.952 166.444 154.839 166.444C154.726 166.444 154.618 166.489 154.538 166.569C154.458 166.649 154.413 166.758 154.413 166.871V170.353C154.414 171.378 154.795 172.367 155.482 173.127C156.17 173.888 157.114 174.365 158.133 174.468V178.314H155.711C155.597 178.314 155.489 178.359 155.408 178.439C155.328 178.52 155.283 178.629 155.283 178.742C155.283 178.856 155.328 178.965 155.408 179.045C155.489 179.126 155.597 179.171 155.711 179.171H161.411C161.524 179.171 161.633 179.126 161.713 179.045C161.794 178.965 161.839 178.856 161.839 178.742C161.839 178.629 161.794 178.52 161.713 178.439C161.633 178.359 161.524 178.314 161.411 178.314H158.989V174.468C160.002 174.358 160.938 173.877 161.619 173.117C162.299 172.358 162.675 171.373 162.676 170.353Z" stroke="#263238" stroke-miterlimit="10"/>
<path d="M199.268 31.9319C199.268 33.7563 198.728 35.5396 197.716 37.0565C196.704 38.5733 195.266 39.7556 193.583 40.4537C191.9 41.1519 190.049 41.3345 188.262 40.9786C186.476 40.6227 184.835 39.7442 183.547 38.4542C182.259 37.1642 181.382 35.5207 181.027 33.7314C180.671 31.9422 180.854 30.0875 181.551 28.4021C182.248 26.7166 183.428 25.2761 184.943 24.2625C186.457 23.249 188.238 22.708 190.059 22.708C191.269 22.7069 192.467 22.9448 193.584 23.4079C194.702 23.8711 195.718 24.5505 196.573 25.4072C197.428 26.2639 198.107 27.2812 198.569 28.4008C199.032 29.5204 199.269 30.7203 199.268 31.9319Z" stroke="#263238" stroke-miterlimit="10"/>
<path d="M190.059 33.3603C192.155 33.3603 193.853 31.6588 193.853 29.5598C193.853 27.4608 192.155 25.7593 190.059 25.7593C187.963 25.7593 186.265 27.4608 186.265 29.5598C186.265 31.6588 187.963 33.3603 190.059 33.3603Z" stroke="#263238" stroke-miterlimit="10"/>
<path d="M195.763 39.1768C194.139 40.4622 192.129 41.1614 190.059 41.1614C187.989 41.1614 185.979 40.4622 184.355 39.1768C184.545 37.7964 185.227 36.5315 186.275 35.6159C187.324 34.7002 188.668 34.1958 190.059 34.1958C191.45 34.1958 192.794 34.7002 193.843 35.6159C194.891 36.5315 195.573 37.7964 195.763 39.1768Z" stroke="#263238" stroke-miterlimit="10"/>
<path d="M258.747 165.108C258.747 166.7 258.277 168.256 257.394 169.58C256.512 170.905 255.257 171.937 253.788 172.546C252.32 173.156 250.704 173.316 249.145 173.005C247.586 172.695 246.154 171.928 245.03 170.803C243.906 169.677 243.14 168.242 242.83 166.681C242.521 165.119 242.68 163.501 243.289 162.03C243.897 160.559 244.928 159.302 246.25 158.418C247.572 157.534 249.126 157.063 250.716 157.063C251.771 157.062 252.816 157.269 253.791 157.672C254.766 158.076 255.652 158.669 256.398 159.416C257.144 160.163 257.736 161.051 258.139 162.027C258.542 163.004 258.748 164.051 258.747 165.108Z" stroke="#263238" stroke-miterlimit="10"/>
<path d="M253.043 165.378C254.334 164.085 254.334 161.988 253.043 160.694C251.752 159.401 249.658 159.401 248.367 160.694C247.075 161.988 247.075 164.085 248.367 165.378C249.658 166.671 251.752 166.671 253.043 165.378Z" stroke="#263238" stroke-miterlimit="10"/>
<path d="M255.68 171.425C254.262 172.546 252.509 173.155 250.703 173.155C248.897 173.155 247.144 172.546 245.727 171.425C245.896 170.224 246.493 169.125 247.408 168.329C248.322 167.534 249.492 167.096 250.703 167.096C251.914 167.096 253.084 167.534 253.999 168.329C254.913 169.125 255.51 170.224 255.68 171.425Z" stroke="#263238" stroke-miterlimit="10"/>
<path d="M280.579 165.108C280.58 166.7 280.109 168.256 279.226 169.58C278.344 170.905 277.089 171.937 275.621 172.546C274.152 173.156 272.536 173.316 270.977 173.005C269.418 172.695 267.986 171.928 266.862 170.803C265.738 169.677 264.973 168.242 264.663 166.681C264.353 165.119 264.512 163.501 265.121 162.03C265.73 160.559 266.76 159.302 268.082 158.418C269.404 157.534 270.958 157.063 272.548 157.063C273.603 157.062 274.648 157.269 275.623 157.672C276.598 158.076 277.484 158.669 278.23 159.416C278.976 160.163 279.568 161.051 279.971 162.027C280.374 163.004 280.581 164.051 280.579 165.108Z" stroke="#263238" stroke-miterlimit="10"/>
<path d="M275.769 163.806C276.19 162.026 275.091 160.241 273.314 159.82C271.537 159.398 269.755 160.499 269.334 162.279C268.913 164.059 270.012 165.843 271.789 166.265C273.566 166.687 275.348 165.586 275.769 163.806Z" stroke="#263238" stroke-miterlimit="10"/>
<path d="M277.524 171.425C276.107 172.546 274.354 173.155 272.548 173.155C270.742 173.155 268.989 172.546 267.571 171.425C267.741 170.224 268.338 169.125 269.252 168.329C270.167 167.534 271.337 167.096 272.548 167.096C273.759 167.096 274.929 167.534 275.843 168.329C276.758 169.125 277.355 170.224 277.524 171.425Z" stroke="#263238" stroke-miterlimit="10"/>
<path d="M43.2305 77.1448C43.2297 78.7356 42.758 80.2904 41.875 81.6127C40.9921 82.935 39.7375 83.9654 38.27 84.5736C36.8024 85.1818 35.1878 85.3405 33.6301 85.0297C32.0725 84.7188 30.6419 83.9524 29.5192 82.8272C28.3964 81.7021 27.632 80.2688 27.3224 78.7085C27.0129 77.1482 27.1721 75.531 27.7801 74.0614C28.3881 72.5918 29.4175 71.3358 30.7381 70.4521C32.0587 69.5684 33.6112 69.0967 35.1995 69.0967C36.2548 69.0956 37.2999 69.3031 38.2751 69.7072C39.2502 70.1113 40.1362 70.7041 40.8822 71.4518C41.6282 72.1994 42.2196 73.0871 42.6226 74.064C43.0256 75.0409 43.2322 76.0878 43.2305 77.1448Z" stroke="#263238" stroke-miterlimit="10"/>
<path d="M38.4683 75.608C38.761 73.8025 37.5368 72.1012 35.7342 71.8082C33.9316 71.5151 32.2331 72.7412 31.9405 74.5467C31.6478 76.3522 32.872 78.0535 34.6746 78.3466C36.4772 78.6397 38.1757 77.4136 38.4683 75.608Z" stroke="#263238" stroke-miterlimit="10"/>
<path d="M40.176 83.4625C38.7592 84.5848 37.0058 85.1953 35.1995 85.1953C33.3932 85.1953 31.6397 84.5848 30.2229 83.4625C30.3926 82.2616 30.9895 81.1623 31.9039 80.367C32.8182 79.5717 33.9885 79.1338 35.1995 79.1338C36.4104 79.1338 37.5807 79.5717 38.495 80.367C39.4094 81.1623 40.0063 82.2616 40.176 83.4625Z" stroke="#263238" stroke-miterlimit="10"/>
<path d="M282.402 184.967H293.062" stroke="#263238" stroke-miterlimit="10"/>
<path d="M87.2588 184.967H278.76" stroke="#263238" stroke-miterlimit="10"/>
<path d="M14.9048 184.967H82.8899" stroke="#263238" stroke-miterlimit="10"/>
<path d="M131.692 72.9758C133.556 73.8038 138.111 73.6879 138.111 73.6879C138.111 73.6879 137.136 70.6988 137.049 70.5208C136.049 68.426 132.887 64.9691 130.316 65.3168C128.464 65.5652 127.422 67.4241 127.836 69.1712C128.249 70.9183 130.105 72.2803 131.692 72.9758Z" fill="#263238"/>
<path d="M133.263 86.1905C135.197 86.4721 139.26 85.2922 139.583 85.1928C140.258 87.5233 141.087 89.8067 142.063 92.0279C142.621 93.3238 143.224 94.6113 143.844 95.8947C143.476 95.3524 143.137 94.868 143.084 94.8059C141.571 93.0505 137.611 90.5541 135.23 91.5684C133.507 92.3012 133.007 94.3629 133.87 95.9361C134.734 97.5093 136.863 98.3414 138.574 98.5898C140.285 98.8382 143.799 97.9067 144.72 97.6459C144.96 98.1386 145.2 98.6312 145.444 99.1198C146.622 101.467 147.808 103.802 148.899 106.133C149.284 106.961 149.635 107.789 149.986 108.596C149.656 108.112 149.375 107.71 149.325 107.652C147.808 105.897 143.848 103.396 141.472 104.415C141.08 104.595 140.731 104.855 140.446 105.179C140.161 105.503 139.948 105.883 139.82 106.295C139.692 106.707 139.651 107.141 139.702 107.57C139.752 107.998 139.892 108.412 140.112 108.783C140.996 110.393 143.108 111.188 144.82 111.436C146.531 111.685 149.705 110.844 150.796 110.538C151.131 111.391 151.47 112.244 151.755 113.084C151.941 113.664 152.169 114.206 152.309 114.798C152.45 115.39 152.632 115.957 152.789 116.528C153.053 117.638 153.338 118.781 153.57 119.874C153.735 120.627 153.88 121.352 154.029 122.084C153.657 121.256 152.892 119.671 152.809 119.542C151.569 117.58 148.044 114.508 145.526 115.15C145.112 115.268 144.727 115.473 144.397 115.75C144.067 116.027 143.798 116.37 143.609 116.758C143.42 117.146 143.315 117.569 143.3 118C143.285 118.431 143.36 118.861 143.522 119.261C144.15 120.987 146.117 122.093 147.775 122.598C149.598 123.157 153.632 122.647 154.132 122.598C154.376 123.802 154.599 124.982 154.793 126.096C154.937 126.924 155.074 127.716 155.207 128.472H156.823C156.67 127.644 156.505 126.738 156.319 125.81C156.079 124.568 155.798 123.277 155.492 121.939C156.707 121.458 157.892 120.905 159.042 120.283C160.369 121.724 163.771 123.413 164.213 123.624C163.75 124.767 163.287 125.872 162.837 126.907C162.597 127.458 162.366 127.976 162.134 128.489H163.845L164.259 127.508C164.734 126.349 165.218 125.107 165.701 123.823C166.189 123.923 170.186 124.738 172.046 124.316C173.732 123.935 175.766 122.979 176.535 121.306C177.303 119.633 176.613 117.65 174.84 117.054C172.381 116.226 168.64 119.025 167.251 120.892C167.169 121.004 166.425 122.295 165.962 123.119C166.16 122.594 166.375 122.088 166.549 121.542C166.941 120.474 167.301 119.389 167.693 118.23L168.206 116.508C168.392 115.936 168.512 115.311 168.669 114.707C169.004 113.303 169.277 111.859 169.516 110.401C170.455 110.745 173.803 111.908 175.534 111.788C177.266 111.668 179.428 111.031 180.428 109.495C181.429 107.959 181.057 105.893 179.395 105.032C177.089 103.843 172.955 106.038 171.31 107.677C171.211 107.776 170.161 109.085 169.603 109.813C169.739 108.936 169.88 108.062 169.992 107.168C170.31 104.593 170.554 101.972 170.818 99.364C170.893 98.5609 170.979 97.766 171.066 96.967C171.397 97.0953 175.344 98.565 177.266 98.4284C178.994 98.3083 181.16 97.6749 182.16 96.1348C182.407 95.7812 182.578 95.3793 182.66 94.9555C182.742 94.5316 182.734 94.0952 182.636 93.6746C182.539 93.254 182.354 92.8587 182.094 92.5144C181.834 92.17 181.504 91.8844 181.127 91.676C178.82 90.4837 174.687 92.6821 173.046 94.3174C172.922 94.4416 171.418 96.3253 171.058 96.8014C171.244 95.046 171.447 93.2989 171.711 91.585C172.056 89.2635 172.549 86.9666 173.187 84.7084C173.344 84.7664 177.456 86.323 179.449 86.1823C181.172 86.0622 183.338 85.4246 184.338 83.8887C185.339 82.3528 184.967 80.2869 183.305 79.4299C180.999 78.2376 176.865 80.4318 175.224 82.0712C175.096 82.1996 173.48 84.2282 173.211 84.6132C173.249 84.4849 173.273 84.3441 173.315 84.1992C174.024 81.957 174.933 79.7831 176.03 77.7035C176.621 76.5485 177.27 75.4762 177.882 74.4454C178.622 74.8138 182.015 76.4615 183.809 76.5154C185.541 76.5857 187.761 76.1924 188.922 74.7724C189.209 74.4483 189.423 74.0673 189.553 73.6544C189.682 73.2414 189.723 72.8058 189.672 72.376C189.622 71.9462 189.482 71.5319 189.26 71.1601C189.039 70.7883 188.742 70.4674 188.389 70.2184C186.227 68.7818 181.875 70.5124 180.065 71.9572C179.965 72.0359 179.052 72.9467 178.411 73.6132C178.705 73.1537 179.002 72.6734 179.292 72.2387C180.375 70.5827 181.47 69.171 182.449 67.9083C183.016 67.1962 183.537 66.5628 184.033 65.9749C184.942 65.9749 188.616 65.8466 190.233 65.0931C191.849 64.3396 193.593 62.9817 193.953 61.1849C194.312 59.3882 193.246 57.5997 191.386 57.401C188.807 57.1236 185.74 60.6633 184.797 62.783C184.715 62.9651 183.772 65.9791 183.818 65.9791H183.875C183.384 66.5338 182.867 67.1341 182.317 67.8007C181.309 69.0427 180.176 70.4544 179.052 72.0773C177.821 73.8039 176.692 75.601 175.671 77.4593C174.515 79.5412 173.547 81.7219 172.777 83.9756C172.777 84.0046 172.777 84.0336 172.757 84.0584C172.757 83.2967 172.736 81.1604 172.715 81.0031C172.418 78.7013 170.492 74.4288 167.937 73.9651C166.098 73.6256 164.544 75.0664 164.395 76.8631C164.246 78.6599 165.569 80.5229 166.875 81.6779C168.33 82.9779 172.368 84.2406 172.691 84.34C171.969 86.646 171.398 88.9971 170.984 91.378C170.736 92.769 170.533 94.1807 170.343 95.5925C170.343 94.9342 170.318 94.3505 170.31 94.2635C170.008 91.9617 168.086 87.6892 165.532 87.2255C163.692 86.8861 162.138 88.3268 161.989 90.1235C161.841 91.9203 163.163 93.7833 164.469 94.9384C165.776 96.0934 169.202 97.2526 170.111 97.5424C170.045 98.0889 169.971 98.6312 169.905 99.1736C169.595 101.782 169.297 104.386 168.925 106.932C168.793 107.826 168.632 108.708 168.475 109.586C168.475 109.002 168.454 108.509 168.442 108.435C168.144 106.133 166.218 101.86 163.668 101.397C163.241 101.33 162.806 101.354 162.389 101.467C161.973 101.58 161.585 101.78 161.25 102.054C160.916 102.327 160.643 102.668 160.449 103.054C160.256 103.44 160.145 103.863 160.125 104.295C159.977 106.12 161.299 107.95 162.605 109.105C163.911 110.261 167.007 111.308 168.086 111.66C167.896 112.558 167.71 113.452 167.487 114.314C167.317 114.897 167.202 115.469 166.999 116.048C166.797 116.628 166.631 117.191 166.449 117.754C166.061 118.83 165.664 119.94 165.259 120.975C164.982 121.699 164.705 122.382 164.432 123.074C164.573 122.184 164.813 120.432 164.817 120.283C164.784 118.247 164.234 116.252 163.217 114.487C163.224 114.259 163.21 114.03 163.176 113.804C163.121 113.376 162.977 112.964 162.754 112.595C162.53 112.226 162.231 111.908 161.877 111.662C161.523 111.416 161.121 111.248 160.697 111.167C160.274 111.087 159.838 111.097 159.419 111.196C156.914 111.867 155.322 116.276 155.203 118.59C155.203 118.727 155.285 120.221 155.355 121.161C155.231 120.615 155.116 120.085 154.979 119.505C154.715 118.396 154.421 117.294 154.107 116.106C153.938 115.539 153.764 114.968 153.586 114.388C153.409 113.808 153.173 113.225 152.983 112.633C152.487 111.275 151.917 109.921 151.33 108.571C152.301 108.34 155.736 107.462 157.116 106.402C158.497 105.342 159.943 103.62 159.931 101.786C159.943 101.355 159.864 100.927 159.7 100.528C159.535 100.13 159.29 99.7706 158.978 99.4735C158.666 99.1765 158.295 98.9484 157.89 98.804C157.485 98.6596 157.053 98.6022 156.624 98.6354C154.045 98.9169 151.805 103.032 151.338 105.309C151.309 105.45 151.156 107.118 151.09 108.037C150.718 107.209 150.354 106.419 149.957 105.615C148.804 103.289 147.564 100.97 146.337 98.6519C145.96 97.9399 145.597 97.2278 145.225 96.5198C145.572 96.437 149.676 95.4848 151.222 94.2967C152.594 93.241 154.053 91.5146 154.037 89.6806C154.049 89.2499 153.97 88.8216 153.806 88.4234C153.641 88.0253 153.395 87.6662 153.083 87.3694C152.772 87.0727 152.401 86.845 151.996 86.7011C151.59 86.5572 151.159 86.5003 150.73 86.5342C148.151 86.8115 145.911 90.9308 145.444 93.2037C145.411 93.3734 145.192 95.7746 145.167 96.3874C144.34 94.8224 143.559 93.2534 142.84 91.676C141.853 89.5495 141.006 87.3602 140.306 85.1224C140.467 85.0852 144.753 84.1081 146.337 82.8951C147.713 81.8394 149.168 80.113 149.155 78.279C149.143 76.445 147.696 74.9256 145.849 75.1285C143.27 75.41 141.029 79.5251 140.562 81.798C140.525 81.976 140.294 84.5594 140.285 85.0313C140.248 84.903 140.19 84.7705 140.153 84.6422C139.511 82.3797 139.071 80.0647 138.839 77.7242C138.694 76.4326 138.628 75.1906 138.591 73.9982C139.417 73.8989 143.137 73.4021 144.683 72.4664C146.163 71.5681 147.8 70.0114 147.99 68.1857C148.049 67.758 148.017 67.3228 147.897 66.9082C147.776 66.4936 147.57 66.1091 147.292 65.7795C147.014 65.4499 146.669 65.1827 146.281 64.9953C145.893 64.8078 145.469 64.7043 145.039 64.6915C142.443 64.6915 139.769 68.5334 139.054 70.7401C139.012 70.8601 138.752 72.1228 138.578 73.046C138.578 72.4996 138.549 71.9365 138.553 71.4149C138.553 69.4484 138.677 67.6475 138.801 66.0577C138.88 65.1511 138.967 64.3355 139.058 63.5737C139.81 63.0562 142.811 60.9365 143.733 59.4337C144.654 57.9309 145.386 55.8195 144.696 54.1138C144.005 52.4081 142.129 51.5139 140.471 52.3709C138.165 53.5673 137.557 58.2124 137.942 60.5018C137.975 60.7006 138.843 63.7352 138.884 63.7103L138.93 63.6772C138.826 64.41 138.727 65.2007 138.636 66.0619C138.475 67.6558 138.314 69.4567 138.268 71.4439C138.193 73.5701 138.243 75.699 138.417 77.8195C138.602 80.1959 138.998 82.5511 139.599 84.8575C139.606 84.8842 139.614 84.9105 139.624 84.9361C139.211 84.2944 138.012 82.5349 137.905 82.4107C136.392 80.6554 132.432 78.1589 130.051 79.1732C128.332 79.906 127.827 81.9677 128.691 83.5451C129.555 85.1224 131.552 85.938 133.263 86.1905Z" fill="#263238"/>
<path d="M177.762 73.9775C177.804 74.0024 178.589 70.947 178.618 70.7483C178.936 68.4506 178.205 63.818 175.869 62.6877C174.187 61.8597 172.306 62.8533 171.69 64.5425C171.075 66.2316 171.86 68.3802 172.798 69.8375C173.902 71.5432 177.758 73.9775 177.762 73.9775Z" fill="#263238"/>
<path d="M228.722 158.976C227.218 159.286 224.448 161.336 224.448 161.34C224.448 161.344 226.35 162.756 226.482 162.83C228.011 163.687 231.467 164.445 232.905 163.108C233.137 162.879 233.319 162.604 233.439 162.3C233.558 161.996 233.612 161.671 233.598 161.345C233.583 161.019 233.5 160.7 233.355 160.408C233.209 160.116 233.004 159.858 232.752 159.651C231.711 158.736 230.008 158.715 228.722 158.976Z" fill="#263238"/>
<path d="M222.005 151.499C220.687 152.166 218.699 154.67 218.533 154.869C217.105 153.722 215.603 152.671 214.036 151.723C213.127 151.168 212.193 150.634 211.251 150.112C211.718 150.286 212.135 150.439 212.197 150.456C213.896 150.87 217.43 150.692 218.463 149.023C218.63 148.74 218.734 148.425 218.771 148.099C218.807 147.773 218.774 147.443 218.674 147.13C218.575 146.817 218.41 146.529 218.191 146.285C217.972 146.04 217.704 145.845 217.405 145.711C216.165 145.103 214.512 145.533 213.342 146.125C212.172 146.717 210.411 148.825 209.957 149.388C209.593 149.189 209.233 148.974 208.866 148.796C207.117 147.86 205.369 146.933 203.682 145.968C203.087 145.628 202.513 145.272 201.938 144.92C202.351 145.074 202.703 145.202 202.765 145.214C204.468 145.628 208.002 145.455 209.035 143.786C209.202 143.503 209.307 143.188 209.344 142.861C209.38 142.535 209.347 142.204 209.247 141.891C209.146 141.578 208.981 141.29 208.761 141.046C208.542 140.802 208.273 140.607 207.973 140.474C206.733 139.866 205.079 140.296 203.91 140.888C202.74 141.48 201.153 143.372 200.603 144.051C200.029 143.674 199.446 143.293 198.904 142.9C198.541 142.623 198.169 142.379 197.817 142.072L196.747 141.261C196.102 140.689 195.428 140.106 194.812 139.534C194.378 139.12 193.986 138.756 193.572 138.367C194.163 138.715 195.329 139.36 195.432 139.406C197.048 140.081 200.566 140.437 201.843 138.942C202.047 138.688 202.196 138.394 202.28 138.079C202.363 137.763 202.38 137.434 202.328 137.112C202.276 136.79 202.157 136.482 201.979 136.209C201.801 135.936 201.567 135.704 201.293 135.527C200.153 134.736 198.458 134.91 197.214 135.32C195.846 135.771 193.576 137.845 193.291 138.106C192.617 137.464 191.969 136.835 191.365 136.231C190.915 135.788 190.489 135.353 190.084 134.939L189.083 135.643C189.546 136.098 190.037 136.573 190.555 137.067C191.237 137.721 191.977 138.404 192.746 139.1C192.208 139.932 191.72 140.794 191.282 141.683C189.836 141.373 187 141.816 186.632 141.873C186.422 140.967 186.219 140.081 186.058 139.245C185.963 138.802 185.88 138.379 185.802 137.961L184.76 138.69C184.818 138.951 184.876 139.207 184.938 139.476C185.144 140.4 185.388 141.381 185.645 142.374C185.301 142.528 182.478 143.765 181.511 144.858C180.635 145.831 179.788 147.318 180.048 148.68C180.099 149.001 180.217 149.309 180.394 149.582C180.571 149.856 180.804 150.089 181.076 150.266C181.349 150.444 181.656 150.562 181.977 150.613C182.299 150.664 182.627 150.647 182.941 150.563C184.822 150.004 185.921 146.634 185.959 144.883C185.959 144.78 185.864 143.641 185.785 142.946C185.893 143.36 185.996 143.753 186.112 144.188C186.335 145.016 186.583 145.844 186.843 146.734C186.988 147.148 187.128 147.587 187.277 148.021C187.426 148.456 187.608 148.895 187.773 149.334C188.187 150.348 188.637 151.358 189.125 152.364C188.397 152.563 185.818 153.304 184.801 154.136C183.785 154.968 182.735 156.301 182.776 157.688C182.777 158.015 182.846 158.338 182.98 158.636C183.114 158.934 183.309 159.2 183.552 159.418C183.795 159.635 184.082 159.799 184.392 159.898C184.703 159.998 185.031 160.03 185.355 159.994C187.298 159.721 188.897 156.562 189.199 154.832C189.199 154.724 189.298 153.461 189.327 152.762C189.621 153.362 189.914 153.966 190.237 154.567C191.158 156.297 192.15 158.019 193.13 159.746C193.432 160.272 193.725 160.802 194.019 161.331C193.758 161.398 190.679 162.213 189.538 163.145C188.525 163.973 187.471 165.31 187.513 166.697C187.514 167.024 187.583 167.346 187.717 167.644C187.851 167.942 188.046 168.209 188.289 168.426C188.532 168.644 188.818 168.807 189.129 168.907C189.44 169.006 189.768 169.039 190.092 169.003C192.035 168.734 193.634 165.571 193.936 163.844C193.957 163.712 194.068 161.895 194.072 161.427C194.721 162.594 195.358 163.762 195.941 164.937C196.735 166.522 197.425 168.157 198.007 169.831C197.887 169.864 194.668 170.696 193.502 171.652C192.485 172.48 191.435 173.818 191.477 175.205C191.478 175.531 191.547 175.853 191.681 176.151C191.814 176.449 192.008 176.715 192.251 176.932C192.494 177.15 192.78 177.314 193.09 177.413C193.4 177.513 193.728 177.546 194.052 177.511C195.999 177.237 197.594 174.079 197.9 172.348C197.921 172.216 198.04 170.257 198.036 169.901C198.069 169.996 198.111 170.096 198.144 170.191C198.679 171.887 199.064 173.627 199.293 175.391C199.429 176.36 199.508 177.299 199.566 178.21C198.95 178.305 196.139 178.765 194.994 179.51C193.849 180.255 192.692 181.431 192.593 182.822C192.558 183.147 192.592 183.475 192.692 183.785C192.792 184.096 192.957 184.382 193.175 184.624C193.393 184.867 193.659 185.061 193.957 185.193C194.255 185.326 194.577 185.394 194.903 185.393C196.862 185.339 198.797 182.375 199.289 180.69C199.318 180.599 199.483 179.634 199.595 178.935C199.595 179.349 199.644 179.763 199.652 180.177C199.694 181.663 199.652 183.025 199.582 184.23C199.545 184.917 199.499 185.534 199.446 186.113C198.892 186.528 196.672 188.184 196.007 189.359C195.341 190.535 194.849 192.129 195.399 193.404C195.517 193.709 195.698 193.985 195.929 194.215C196.161 194.444 196.438 194.623 196.743 194.738C197.048 194.853 197.374 194.903 197.699 194.883C198.025 194.864 198.342 194.776 198.631 194.625C200.347 193.669 200.698 190.146 200.359 188.415C200.33 188.266 199.603 185.993 199.574 186.014L199.541 186.039C199.603 185.48 199.661 184.884 199.71 184.23C199.793 183.025 199.876 181.659 199.867 180.164C199.875 178.557 199.79 176.951 199.611 175.354C199.418 173.564 199.067 171.794 198.561 170.067C198.552 170.047 198.546 170.026 198.541 170.005C198.863 170.481 199.809 171.781 199.892 171.872C201.078 173.164 204.125 174.964 205.91 174.145C206.202 173.999 206.46 173.795 206.667 173.543C206.875 173.292 207.027 173 207.115 172.685C207.202 172.371 207.223 172.042 207.176 171.72C207.129 171.397 207.014 171.088 206.84 170.812C206.138 169.616 204.521 169.061 203.224 168.912C201.756 168.742 198.71 169.74 198.47 169.806C197.91 168.061 197.237 166.354 196.453 164.697C195.999 163.733 195.515 162.772 195.015 161.799C195.308 162.213 195.573 162.557 195.618 162.602C196.8 163.898 199.851 165.695 201.632 164.875C201.921 164.73 202.177 164.526 202.383 164.277C202.589 164.027 202.74 163.737 202.828 163.425C202.915 163.113 202.937 162.787 202.891 162.466C202.845 162.146 202.733 161.838 202.562 161.563C201.86 160.367 200.243 159.812 198.946 159.663C197.648 159.514 195.015 160.296 194.325 160.516C194.13 160.152 193.94 159.783 193.742 159.419C192.799 157.672 191.853 155.933 190.972 154.198C190.662 153.586 190.381 152.956 190.096 152.36C190.357 152.716 190.58 153.018 190.617 153.06C191.803 154.351 194.849 156.148 196.635 155.328C196.927 155.183 197.184 154.978 197.392 154.727C197.599 154.475 197.752 154.183 197.84 153.869C197.927 153.555 197.948 153.226 197.901 152.903C197.854 152.581 197.739 152.271 197.565 151.996C196.862 150.799 195.246 150.249 193.948 150.095C192.651 149.942 190.27 150.654 189.451 150.923C189.179 150.286 188.902 149.648 188.666 149.019C188.517 148.605 188.339 148.191 188.211 147.74C188.083 147.289 187.943 146.87 187.798 146.444C187.571 145.616 187.331 144.751 187.133 143.931C186.988 143.364 186.864 142.822 186.719 142.275C187.021 142.888 187.633 144.076 187.695 144.167C188.601 145.418 189.812 146.415 191.212 147.065C191.307 147.212 191.415 147.351 191.535 147.479C191.754 147.72 192.022 147.912 192.321 148.042C192.62 148.173 192.943 148.239 193.269 148.236C193.595 148.233 193.916 148.162 194.213 148.026C194.509 147.891 194.774 147.695 194.99 147.45C196.23 145.943 195.312 142.528 194.378 141.041C194.32 140.954 193.618 140.073 193.163 139.522L194.11 140.371C194.759 140.942 195.42 141.493 196.127 142.089L197.197 142.917C197.544 143.202 197.954 143.459 198.334 143.745C199.231 144.366 200.169 144.954 201.132 145.525C200.632 146.092 198.892 148.133 198.499 149.392C198.107 150.65 197.962 152.344 198.768 153.47C198.948 153.741 199.184 153.972 199.459 154.146C199.734 154.321 200.043 154.436 200.366 154.483C200.688 154.53 201.017 154.509 201.33 154.421C201.644 154.332 201.936 154.179 202.186 153.971C203.658 152.671 203.253 149.152 202.554 147.541C202.509 147.442 201.876 146.345 201.521 145.748C202.099 146.084 202.674 146.427 203.273 146.75C204.997 147.686 206.77 148.576 208.535 149.474C209.076 149.748 209.614 150.029 210.151 150.302C209.969 150.501 207.849 152.882 207.411 154.289C207.022 155.531 206.873 157.245 207.679 158.371C207.86 158.643 208.095 158.874 208.371 159.049C208.646 159.223 208.955 159.338 209.278 159.384C209.6 159.431 209.929 159.41 210.243 159.321C210.556 159.232 210.848 159.077 211.098 158.868C212.569 157.572 212.164 154.049 211.465 152.443C211.412 152.319 210.498 150.741 210.25 150.352C211.432 150.965 212.606 151.594 213.739 152.248C215.272 153.133 216.746 154.117 218.153 155.192C218.071 155.283 215.843 157.759 215.396 159.199C215.008 160.441 214.859 162.155 215.665 163.281C215.845 163.553 216.081 163.784 216.356 163.959C216.632 164.133 216.941 164.248 217.263 164.295C217.586 164.341 217.915 164.32 218.228 164.231C218.542 164.142 218.833 163.988 219.083 163.778C220.555 162.482 220.145 158.959 219.447 157.353C219.393 157.225 218.409 155.527 218.207 155.233C218.29 155.295 218.381 155.353 218.459 155.415C219.84 156.533 221.118 157.771 222.278 159.117C222.931 159.849 223.518 160.59 224.06 161.319C223.601 161.733 221.509 163.675 220.964 164.929C220.418 166.184 220.104 167.802 220.782 169.015C220.932 169.305 221.14 169.561 221.395 169.765C221.65 169.968 221.944 170.116 222.26 170.198C222.576 170.28 222.905 170.295 223.226 170.241C223.548 170.187 223.854 170.065 224.126 169.885C225.734 168.754 225.713 165.211 225.196 163.534C225.167 163.443 224.783 162.549 224.485 161.903C224.725 162.238 224.986 162.578 225.209 162.901C226.064 164.118 226.771 165.281 227.387 166.32C227.734 166.912 228.032 167.455 228.309 167.976C228.069 168.622 227.139 171.243 227.23 172.584C227.321 173.925 227.792 175.532 228.949 176.31C229.216 176.498 229.519 176.628 229.838 176.691C230.158 176.754 230.487 176.75 230.805 176.677C231.123 176.604 231.422 176.466 231.682 176.27C231.943 176.074 232.16 175.825 232.318 175.54C233.223 173.797 231.574 170.659 230.342 169.413C230.235 169.305 228.379 167.811 228.367 167.844V167.881C228.11 167.384 227.829 166.854 227.511 166.283C226.916 165.227 226.234 164.043 225.407 162.805C224.528 161.46 223.57 160.167 222.539 158.934C221.393 157.546 220.126 156.264 218.753 155.101L218.699 155.063C219.232 155.283 220.741 155.846 220.861 155.891C222.559 156.305 226.093 156.127 227.127 154.459C227.291 154.177 227.394 153.864 227.429 153.54C227.464 153.215 227.431 152.887 227.331 152.577C227.231 152.266 227.067 151.98 226.85 151.738C226.632 151.495 226.366 151.301 226.069 151.168C224.82 150.476 223.171 150.907 222.005 151.499Z" fill="#263238"/>
<path d="M199.822 178.463C199.789 178.463 200.649 180.694 200.698 180.831C201.5 182.392 203.968 184.929 205.902 184.611C206.222 184.548 206.525 184.419 206.792 184.232C207.059 184.045 207.284 183.803 207.451 183.523C207.619 183.243 207.726 182.931 207.765 182.607C207.804 182.283 207.775 181.954 207.679 181.642C207.316 180.305 205.906 179.34 204.691 178.852C203.265 178.281 199.826 178.463 199.822 178.463Z" fill="#263238"/>
<path d="M90.9333 158.976C92.4379 159.286 95.2072 161.336 95.2113 161.34C95.2155 161.344 93.3059 162.756 93.1736 162.83C91.6443 163.687 88.1888 164.445 86.7504 163.108C86.518 162.879 86.3362 162.604 86.2169 162.3C86.0976 161.996 86.0434 161.671 86.0578 161.345C86.0722 161.019 86.155 160.7 86.3006 160.408C86.4463 160.116 86.6516 159.858 86.9033 159.651C87.9243 158.736 89.6313 158.715 90.9333 158.976Z" fill="#263238"/>
<path d="M97.6334 151.499C98.9478 152.166 100.94 154.67 101.105 154.869C102.532 153.721 104.033 152.67 105.598 151.723C106.508 151.168 107.442 150.634 108.384 150.112C107.917 150.286 107.5 150.439 107.442 150.456C105.739 150.87 102.205 150.692 101.172 149.023C101.005 148.74 100.9 148.425 100.863 148.099C100.827 147.772 100.86 147.441 100.96 147.128C101.06 146.815 101.226 146.527 101.445 146.283C101.665 146.039 101.934 145.844 102.234 145.711C103.474 145.103 105.127 145.533 106.297 146.125C107.467 146.717 109.227 148.825 109.682 149.388L110.769 148.796C112.518 147.86 114.266 146.933 115.952 145.968C116.548 145.629 117.122 145.273 117.697 144.921C117.283 145.074 116.932 145.202 116.87 145.215C115.171 145.629 111.637 145.455 110.604 143.786C110.436 143.504 110.33 143.189 110.293 142.862C110.256 142.536 110.289 142.205 110.389 141.892C110.489 141.579 110.654 141.29 110.873 141.046C111.093 140.802 111.362 140.607 111.662 140.474C112.902 139.866 114.555 140.296 115.725 140.888C116.895 141.48 118.482 143.372 119.032 144.051C119.61 143.675 120.189 143.294 120.731 142.9C121.098 142.623 121.466 142.379 121.818 142.072L122.867 141.215C123.516 140.644 124.186 140.06 124.802 139.489C125.236 139.075 125.629 138.711 126.042 138.321C125.455 138.669 124.289 139.315 124.186 139.361C122.57 140.035 119.048 140.391 117.775 138.897C117.57 138.643 117.42 138.349 117.335 138.034C117.251 137.718 117.234 137.388 117.286 137.066C117.338 136.743 117.458 136.436 117.637 136.163C117.816 135.889 118.05 135.657 118.325 135.481C119.462 134.691 121.156 134.865 122.4 135.274C123.769 135.726 126.042 137.8 126.323 138.061C126.997 137.419 127.646 136.79 128.253 136.185C128.7 135.742 129.125 135.308 129.53 134.894L130.531 135.597C130.068 136.053 129.579 136.527 129.063 137.022C128.381 137.676 127.637 138.359 126.869 139.054C127.408 139.886 127.898 140.748 128.336 141.638C129.783 141.327 132.618 141.77 132.982 141.828C133.193 140.921 133.395 140.035 133.56 139.199C133.651 138.756 133.734 138.334 133.817 137.916L134.871 138.661C134.813 138.922 134.759 139.178 134.697 139.448C134.486 140.371 134.242 141.352 133.986 142.346C134.333 142.499 137.152 143.737 138.119 144.83C138.996 145.802 139.843 147.289 139.583 148.651C139.532 148.973 139.415 149.281 139.238 149.554C139.061 149.828 138.828 150.061 138.555 150.239C138.283 150.417 137.975 150.535 137.654 150.586C137.332 150.637 137.004 150.619 136.689 150.534C134.813 149.976 133.709 146.606 133.672 144.854C133.672 144.751 133.771 143.612 133.846 142.917C133.738 143.331 133.639 143.724 133.523 144.159C133.3 144.987 133.052 145.815 132.787 146.705L132.374 147.993C132.238 148.407 132.039 148.866 131.874 149.305C131.461 150.319 131.01 151.329 130.522 152.335C131.254 152.534 133.829 153.275 134.846 154.107C135.863 154.939 136.913 156.273 136.871 157.659C136.87 157.986 136.801 158.309 136.667 158.607C136.533 158.905 136.338 159.171 136.095 159.389C135.852 159.606 135.566 159.77 135.255 159.869C134.944 159.969 134.616 160.001 134.292 159.965C132.349 159.692 130.75 156.533 130.448 154.803C130.448 154.695 130.353 153.432 130.324 152.733C130.026 153.333 129.733 153.938 129.411 154.538C128.489 156.268 127.501 157.991 126.517 159.717C126.215 160.243 125.926 160.773 125.629 161.303C125.889 161.369 128.968 162.184 130.109 163.116C131.126 163.944 132.176 165.281 132.134 166.668C132.133 166.994 132.064 167.317 131.93 167.614C131.797 167.912 131.603 168.178 131.36 168.396C131.117 168.613 130.831 168.777 130.521 168.877C130.211 168.976 129.883 169.009 129.559 168.974C127.617 168.705 126.017 165.542 125.711 163.816C125.691 163.683 125.579 161.866 125.575 161.398C124.926 162.565 124.289 163.733 123.711 164.909C122.915 166.492 122.225 168.127 121.644 169.802C121.764 169.835 124.984 170.667 126.153 171.624C127.166 172.452 128.22 173.789 128.175 175.176C128.174 175.502 128.105 175.825 127.972 176.123C127.839 176.421 127.644 176.687 127.401 176.905C127.158 177.122 126.872 177.286 126.562 177.386C126.251 177.485 125.924 177.518 125.6 177.482C123.657 177.209 122.057 174.05 121.756 172.319C121.731 172.187 121.615 170.228 121.619 169.872C121.586 169.968 121.541 170.067 121.508 170.162C120.972 171.858 120.587 173.598 120.359 175.362C120.222 176.331 120.144 177.271 120.09 178.181C120.706 178.277 123.512 178.736 124.637 179.481C125.761 180.227 126.939 181.402 127.038 182.793C127.073 183.118 127.039 183.445 126.939 183.756C126.839 184.066 126.675 184.352 126.457 184.594C126.24 184.837 125.974 185.031 125.676 185.163C125.379 185.296 125.057 185.364 124.732 185.364C122.768 185.31 120.834 182.346 120.342 180.661C120.317 180.57 120.148 179.606 120.036 178.906C120.036 179.32 119.991 179.734 119.978 180.148C119.937 181.634 119.978 182.996 120.049 184.201C120.086 184.888 120.135 185.505 120.185 186.085C120.743 186.499 122.963 188.155 123.624 189.33C124.285 190.506 124.781 192.1 124.236 193.375C124.117 193.68 123.936 193.956 123.704 194.186C123.473 194.416 123.195 194.594 122.89 194.709C122.584 194.825 122.258 194.874 121.932 194.855C121.607 194.835 121.289 194.747 120.999 194.597C119.284 193.64 118.933 190.117 119.271 188.387C119.3 188.237 120.028 185.965 120.057 185.985L120.09 186.01C120.028 185.451 119.97 184.855 119.92 184.201C119.838 182.996 119.755 181.63 119.763 180.135C119.757 178.528 119.844 176.922 120.024 175.325C120.227 173.541 120.589 171.778 121.107 170.059C121.105 170.038 121.105 170.017 121.107 169.997C120.784 170.473 119.834 171.773 119.751 171.864C118.565 173.155 115.518 174.956 113.737 174.137C113.444 173.992 113.186 173.788 112.977 173.537C112.769 173.285 112.616 172.993 112.528 172.678C112.441 172.364 112.42 172.034 112.468 171.711C112.516 171.388 112.632 171.079 112.807 170.804C113.51 169.607 115.122 169.053 116.424 168.904C117.887 168.734 120.933 169.732 121.177 169.798C121.733 168.051 122.407 166.344 123.194 164.689C123.645 163.725 124.128 162.764 124.628 161.791C124.335 162.205 124.07 162.549 124.029 162.594C122.843 163.89 119.796 165.687 118.011 164.867C117.722 164.722 117.467 164.517 117.261 164.268C117.056 164.018 116.905 163.728 116.817 163.416C116.73 163.105 116.708 162.778 116.753 162.458C116.799 162.138 116.91 161.83 117.081 161.555C117.788 160.359 119.4 159.804 120.702 159.655C122.004 159.506 124.632 160.288 125.319 160.508C125.517 160.143 125.707 159.775 125.901 159.411C126.844 157.664 127.794 155.925 128.671 154.19C128.981 153.577 129.262 152.948 129.547 152.352C129.287 152.708 129.063 153.01 129.026 153.052C127.84 154.343 124.794 156.14 123.012 155.32C122.72 155.176 122.461 154.972 122.253 154.72C122.044 154.469 121.891 154.177 121.804 153.862C121.716 153.548 121.695 153.218 121.743 152.895C121.791 152.572 121.907 152.263 122.082 151.988C122.785 150.791 124.397 150.241 125.699 150.087C127.001 149.934 129.373 150.646 130.196 150.915C130.469 150.278 130.741 149.64 130.977 149.011C131.13 148.597 131.304 148.183 131.432 147.732C131.56 147.28 131.7 146.862 131.845 146.436C132.068 145.608 132.308 144.743 132.506 143.923C132.651 143.356 132.775 142.813 132.92 142.267C132.618 142.88 132.002 144.068 131.94 144.159C131.035 145.409 129.826 146.407 128.427 147.057C128.332 147.204 128.224 147.343 128.104 147.471C127.885 147.712 127.616 147.904 127.318 148.034C127.019 148.165 126.696 148.231 126.37 148.228C126.044 148.225 125.723 148.154 125.426 148.018C125.13 147.883 124.865 147.687 124.649 147.442C123.388 145.935 124.327 142.519 125.261 141.033C125.314 140.946 126.017 140.064 126.472 139.514L125.513 140.346C124.868 140.917 124.207 141.468 123.496 142.064L122.429 142.892C122.078 143.178 121.669 143.434 121.289 143.72C120.392 144.341 119.453 144.929 118.494 145.5C118.99 146.067 120.735 148.108 121.123 149.367C121.512 150.626 121.661 152.319 120.855 153.445C120.674 153.717 120.439 153.948 120.164 154.123C119.889 154.298 119.58 154.413 119.257 154.46C118.935 154.508 118.606 154.486 118.292 154.398C117.978 154.309 117.687 154.155 117.436 153.946C115.965 152.646 116.374 149.127 117.073 147.516C117.114 147.417 117.746 146.32 118.106 145.724C117.527 146.059 116.949 146.403 116.353 146.726C114.626 147.661 112.852 148.551 111.087 149.45C110.546 149.723 110.009 150.005 109.471 150.278C109.653 150.477 111.774 152.857 112.212 154.265C112.6 155.507 112.749 157.221 111.943 158.347C111.763 158.619 111.527 158.849 111.252 159.024C110.976 159.198 110.667 159.313 110.345 159.36C110.022 159.407 109.693 159.385 109.38 159.296C109.066 159.207 108.775 159.053 108.525 158.843C107.053 157.548 107.463 154.024 108.161 152.418C108.215 152.294 109.124 150.717 109.376 150.327C108.19 150.94 107.016 151.569 105.884 152.224C104.35 153.109 102.876 154.092 101.469 155.167C101.556 155.258 103.78 157.734 104.23 159.175C104.619 160.417 104.768 162.131 103.962 163.257C103.781 163.529 103.546 163.759 103.27 163.934C102.995 164.108 102.686 164.223 102.363 164.27C102.041 164.317 101.712 164.295 101.398 164.206C101.085 164.117 100.793 163.963 100.543 163.754C99.0677 162.458 99.4769 158.935 100.175 157.328C100.233 157.2 101.213 155.502 101.415 155.209C101.337 155.271 101.246 155.329 101.163 155.391C99.7828 156.508 98.5047 157.747 97.3441 159.092C96.691 159.825 96.1041 160.566 95.5626 161.294C96.0256 161.708 98.1129 163.65 98.6585 164.904C99.2041 166.159 99.5182 167.778 98.8404 168.991C98.6909 169.281 98.482 169.536 98.2273 169.74C97.9726 169.944 97.6779 170.092 97.3624 170.174C97.0468 170.256 96.7176 170.27 96.3961 170.216C96.0746 170.162 95.768 170.041 95.4965 169.86C93.8928 168.73 93.9093 165.186 94.4301 163.509C94.459 163.418 94.8434 162.524 95.141 161.878C94.8972 162.213 94.6409 162.553 94.4136 162.876C93.5621 164.093 92.8553 165.256 92.2394 166.295C91.8922 166.887 91.5905 167.43 91.3136 167.951C91.5533 168.597 92.4833 171.218 92.3965 172.559C92.3097 173.901 91.8344 175.507 90.677 176.285C90.4107 176.473 90.1079 176.603 89.7882 176.667C89.4685 176.73 89.1391 176.725 88.8214 176.652C88.5037 176.58 88.2048 176.441 87.9441 176.245C87.6834 176.049 87.4668 175.8 87.3084 175.515C86.4032 173.772 88.0482 170.634 89.28 169.388C89.3874 169.28 91.2433 167.786 91.2598 167.819V167.856C91.5161 167.359 91.7972 166.83 92.1154 166.258C92.7106 165.202 93.3926 164.018 94.2234 162.781C95.1015 161.435 96.0579 160.142 97.0878 158.91C98.2349 157.523 99.5019 156.24 100.874 155.076L100.928 155.039C100.395 155.258 98.89 155.821 98.7701 155.867C97.0672 156.281 93.5332 156.103 92.4998 154.434C92.3359 154.152 92.2331 153.839 92.1982 153.514C92.1633 153.19 92.197 152.862 92.2972 152.551C92.3975 152.241 92.5619 151.955 92.7799 151.712C92.9978 151.469 93.2643 151.276 93.5621 151.143C94.8145 150.477 96.4637 150.907 97.6334 151.499Z" fill="#263238"/>
<path d="M119.813 178.463C119.85 178.463 119.007 180.694 118.937 180.831C118.135 182.392 115.667 184.929 113.733 184.611C113.413 184.548 113.11 184.419 112.843 184.232C112.576 184.045 112.351 183.803 112.183 183.523C112.016 183.243 111.909 182.931 111.87 182.607C111.83 182.283 111.86 181.954 111.955 181.642C112.319 180.305 113.733 179.34 114.944 178.852C116.37 178.281 119.809 178.463 119.813 178.463Z" fill="#263238"/>
<path d="M272.759 50.9966C270.865 48.6659 269.926 45.7018 270.132 42.7041C270.337 39.7063 271.672 36.8986 273.866 34.8489C276.059 32.7992 278.948 31.6604 281.948 31.6631C284.948 31.6657 287.835 32.8095 290.025 34.8631C292.215 36.9167 293.545 39.7267 293.745 42.7249C293.945 45.723 293.001 48.6854 291.104 51.0128C289.206 53.3402 286.497 54.8589 283.524 55.2617C280.551 55.6646 277.537 54.9214 275.09 53.1826L269.82 55.7411L272.759 50.9966Z" fill="white" stroke="#263238" stroke-miterlimit="10"/>
<path d="M274.317 45.8589H277.343V41.4539H274.317V45.8589Z" fill="#263238"/>
<path d="M276.727 45.8591L281.778 49.5313V37.7778L276.727 41.45V45.8591Z" fill="#263238"/>
<path d="M286.188 38.916C286.862 39.4969 287.396 40.2237 287.749 41.0415C288.102 41.8594 288.265 42.7469 288.225 43.6369C288.185 44.527 287.944 45.3964 287.519 46.1794C287.095 46.9623 286.498 47.6384 285.775 48.1565" stroke="#263238" stroke-linecap="round" stroke-linejoin="round"/>
<path d="M283.518 40.6177C284.059 40.8467 284.521 41.2304 284.845 41.7207C285.17 42.2111 285.343 42.7865 285.343 43.3749C285.343 43.9633 285.17 44.5387 284.845 45.0291C284.521 45.5195 284.059 45.9032 283.518 46.1322" stroke="#263238" stroke-linecap="round" stroke-linejoin="round"/>
<path d="M63.0871 51.4521C64.9732 49.1251 65.9066 46.1675 65.6985 43.1775C65.4904 40.1875 64.1564 37.3882 61.9663 35.3458C59.7761 33.3034 56.8933 32.1704 53.9008 32.1758C50.9084 32.1812 48.0297 33.3248 45.847 35.3751C43.6642 37.4255 42.3404 40.2296 42.1431 43.2203C41.9459 46.2111 42.8901 49.1653 44.7846 51.4853C46.6791 53.8054 49.3826 55.3183 52.3484 55.7179C55.3141 56.1175 58.3207 55.3741 60.76 53.638L66.03 56.1965L63.0871 51.4521Z" fill="white" stroke="#263238" stroke-miterlimit="10"/>
<path d="M53.9111 46.7821C53.3107 46.781 52.7352 46.5417 52.3106 46.1164C51.8861 45.6912 51.6471 45.1148 51.646 44.5134V37.3388C51.6471 36.7378 51.8862 36.1618 52.3109 35.7372C52.7355 35.3127 53.311 35.0742 53.9111 35.0742C54.5107 35.0742 55.0858 35.3128 55.5098 35.7375C55.9338 36.1622 56.172 36.7382 56.172 37.3388V44.5258C56.1687 45.1247 55.9292 45.6979 55.5057 46.1206C55.0821 46.5433 54.5089 46.7811 53.9111 46.7821Z" fill="#263238"/>
<path d="M53.9276 48.4379C52.8668 48.4368 51.8497 48.0143 51.0996 47.2629C50.3495 46.5116 49.9276 45.4929 49.9265 44.4304V41.0439C49.9265 40.9341 49.9701 40.8288 50.0476 40.7511C50.1251 40.6735 50.2303 40.6299 50.3399 40.6299C50.4495 40.6299 50.5546 40.6735 50.6321 40.7511C50.7097 40.8288 50.7532 40.9341 50.7532 41.0439V44.4138C50.7378 44.8408 50.8085 45.2664 50.961 45.6654C51.1135 46.0643 51.3447 46.4284 51.6408 46.7359C51.9369 47.0434 52.2918 47.2879 52.6843 47.455C53.0769 47.622 53.499 47.7081 53.9255 47.7081C54.3521 47.7081 54.7742 47.622 55.1667 47.455C55.5593 47.2879 55.9142 47.0434 56.2103 46.7359C56.5064 46.4284 56.7376 46.0643 56.8901 45.6654C57.0426 45.2664 57.1133 44.8408 57.0979 44.4138V41.0439C57.0979 40.9341 57.1414 40.8288 57.2189 40.7511C57.2965 40.6735 57.4016 40.6299 57.5112 40.6299C57.6208 40.6299 57.726 40.6735 57.8035 40.7511C57.881 40.8288 57.9245 40.9341 57.9245 41.0439V44.4138C57.9262 44.941 57.8241 45.4633 57.624 45.9509C57.424 46.4386 57.13 46.8819 56.7588 47.2556C56.3876 47.6293 55.9465 47.9261 55.4607 48.129C54.9749 48.3319 54.4539 48.4368 53.9276 48.4379Z" fill="#263238"/>
<path d="M53.9276 52.7357C53.818 52.7357 53.7128 52.6921 53.6353 52.6144C53.5578 52.5368 53.5143 52.4315 53.5143 52.3217V48.0244C53.5143 47.9146 53.5578 47.8092 53.6353 47.7316C53.7128 47.654 53.818 47.6104 53.9276 47.6104C54.0372 47.6104 54.1423 47.654 54.2199 47.7316C54.2974 47.8092 54.3409 47.9146 54.3409 48.0244V52.3382C54.3366 52.4451 54.2912 52.5462 54.2142 52.6203C54.1371 52.6944 54.0344 52.7358 53.9276 52.7357Z" fill="#263238"/>
<path d="M56.6887 52.955H51.1707C51.061 52.955 50.9559 52.9113 50.8784 52.8337C50.8009 52.7561 50.7573 52.6508 50.7573 52.541C50.7573 52.4312 50.8009 52.3259 50.8784 52.2482C50.9559 52.1706 51.061 52.127 51.1707 52.127H56.6887C56.7983 52.127 56.9034 52.1706 56.9809 52.2482C57.0584 52.3259 57.102 52.4312 57.102 52.541C57.102 52.6508 57.0584 52.7561 56.9809 52.8337C56.9034 52.9113 56.7983 52.955 56.6887 52.955Z" fill="#263238"/>
<path d="M246.524 70.1023L248.657 68.4463C248.657 68.4463 248.835 64.534 249.19 64.0579C249.546 63.5818 251.377 61.6898 251.67 61.0357C251.964 60.3816 254.15 61.0978 254.63 61.0978C255.109 61.0978 255.87 60.7418 255.812 61.0978C255.754 61.4538 255.514 62.1618 254.985 62.3978C254.456 62.6337 253.092 62.2818 253.092 62.2818L252.857 64.592C252.857 64.592 257.887 63.2879 257.176 64.8279C256.465 66.368 255.283 69.0963 254.456 69.9243C253.63 70.7523 250.253 71.3484 250.253 71.3484L247.413 74.4907L246.524 70.1023Z" fill="white" stroke="#263238" stroke-miterlimit="10"/>
<path d="M258.536 61.806C258.536 61.806 259.9 61.7481 259.9 62.2821C259.9 62.8162 259.305 63.2882 258.536 63.6442C257.767 64.0002 257.234 63.8222 257.234 63.6442C257.234 63.4662 258.536 61.806 258.536 61.806Z" fill="white" stroke="#263238" stroke-miterlimit="10"/>
<path d="M258.536 63.644C258.734 63.8607 258.848 64.1405 258.86 64.4338C258.871 64.7271 258.778 65.0149 258.598 65.2462C257.945 66.1322 255.403 65.8962 255.403 65.8962L257.234 63.644C257.435 63.7486 257.658 63.8031 257.885 63.8031C258.111 63.8031 258.335 63.7486 258.536 63.644Z" fill="white" stroke="#263238" stroke-miterlimit="10"/>
<path d="M258.242 65.8257C258.242 65.8257 257.829 67.0097 257.354 67.2457C256.878 67.4817 254.692 67.0097 254.692 67.0097L255.403 65.8836C255.403 65.8836 257.945 65.8961 258.242 65.8257Z" fill="white" stroke="#263238" stroke-miterlimit="10"/>
<path d="M257.354 67.2583C257.087 67.7591 256.749 68.218 256.349 68.6204C255.936 68.9184 254.514 68.9184 254.217 68.7984C253.919 68.6783 254.039 67.8503 254.456 67.6723C255.136 67.5279 255.828 67.4489 256.523 67.4363L257.354 67.2583Z" fill="white" stroke="#263238" stroke-miterlimit="10"/>
<path d="M260.214 55.8898L252.774 65.1924C252.699 65.2871 252.663 65.4073 252.675 65.5277L252.902 67.6971C252.911 67.7856 252.946 67.8697 253.001 67.939C253.057 68.0083 253.132 68.06 253.216 68.0876C253.301 68.1152 253.391 68.1177 253.477 68.0946C253.563 68.0716 253.64 68.0241 253.7 67.9579L262.305 58.5601C262.375 58.4834 262.418 58.3856 262.426 58.2822C262.434 58.1788 262.408 58.0756 262.351 57.9888L260.95 55.9188C260.909 55.8596 260.856 55.8108 260.793 55.7761C260.73 55.7414 260.661 55.7219 260.589 55.7191C260.518 55.7163 260.446 55.7303 260.381 55.7599C260.316 55.7895 260.259 55.834 260.214 55.8898Z" fill="#263238" stroke="#263238" stroke-linecap="round" stroke-linejoin="round"/>
<path d="M252.501 65.4819C252.501 65.4819 251.732 67.436 250.786 67.85" stroke="#263238" stroke-miterlimit="10"/>
<path d="M241.912 71.9408L246.942 69.4526L248.182 75.0251L241.854 80.2373L241.912 71.9408Z" fill="#6EB6FF" stroke="#263238" stroke-miterlimit="10"/>
<path d="M244.28 51.2903L246.801 53.9647L246.653 56.7137L245.107 55.1529L242.515 56.9331L243.453 85.4536L235.6 86.3437L240.271 51.2903C240.271 51.2903 240.874 48.8518 244.28 51.2903Z" fill="#6EB6FF" stroke="#263238" stroke-miterlimit="10"/>
<path d="M241.387 54.5194C241.507 58.1002 241.369 61.6852 240.973 65.2461C240.32 70.4584 238.725 82.7873 238.783 83.5573C238.841 84.3274 238.903 85.5114 238.605 85.8674C238.307 86.2235 234.36 86.4015 234.36 86.4015C234.36 86.4015 237.791 62.9939 238.324 59.0775C238.857 55.1611 238.907 52.5032 239.605 52.5777C240.304 52.6522 241.387 54.5194 241.387 54.5194Z" fill="white" stroke="#263238" stroke-miterlimit="10"/>
<path d="M261.785 39.9259C261.785 39.9259 259.557 42.973 258.966 43.714C258.375 44.4551 256.816 44.956 256.593 45.4984C256.37 46.0407 255.853 48.0983 255.63 48.6903C255.407 49.2823 253.034 48.5413 253.034 48.5413C253.034 48.5413 249.104 51.1412 248.364 51.2902C247.624 51.4393 245.694 49.361 245.694 49.361L243.04 53.6666L236.662 45.0513L240.667 40.4476C240.667 40.4476 240.002 34.3576 240.444 31.3147C240.887 28.2718 244.896 25.0012 248.748 23.515C251.703 22.3765 256.837 25.556 259.081 27.1044C259.778 27.5928 260.353 28.2343 260.764 28.9798C261.714 30.6855 263.496 33.9478 264.07 35.6038C264.897 37.9222 263.785 39.4084 261.785 39.9259Z" fill="white" stroke="#263238" stroke-miterlimit="10"/>
<path d="M245.694 49.3608L244.135 47.502L243.693 52.5528L245.694 49.3608Z" fill="#263238" stroke="#263238" stroke-miterlimit="10"/>
<path d="M257.482 44.3849C257.482 44.3849 257.631 42.6751 255.998 42.6006" stroke="#263238" stroke-miterlimit="10"/>
<path d="M255.399 45.2419C254.985 45.5399 254.547 45.6559 254.427 45.4778C254.307 45.2998 254.551 44.9355 254.969 44.6498C255.386 44.3642 255.82 44.2358 255.94 44.418C256.06 44.6002 255.816 44.9479 255.399 45.2419Z" fill="#263238"/>
<path d="M250.141 46.9102C250.274 47.5879 250.61 48.2089 251.104 48.6904" stroke="#263238" stroke-miterlimit="10"/>
<path d="M264.083 35.6038C263.496 33.9478 261.714 30.6689 260.776 28.9798C260.358 28.2316 259.774 27.5899 259.069 27.1044C256.833 25.556 251.699 22.3765 248.736 23.515C244.883 25.0012 240.882 28.2677 240.432 31.3147C239.981 34.3618 240.655 40.4476 240.655 40.4476C241.433 40.7629 242.259 40.9449 243.098 40.9858C243.625 40.9484 244.127 40.7502 244.538 40.4178C244.949 40.0854 245.249 39.6349 245.396 39.1269C245.545 38.3859 248.806 37.5661 248.657 37.9387C248.522 38.5016 248.349 39.0548 248.141 39.5947C248.085 39.6807 248.054 39.7809 248.053 39.8835C248.052 39.9861 248.081 40.0869 248.135 40.1739C248.189 40.261 248.267 40.3306 248.36 40.3747C248.452 40.4188 248.556 40.4354 248.657 40.4227C249.104 40.3482 250.513 39.011 250.513 39.011C250.513 39.011 254.295 40.253 254.737 39.9756C255.18 39.6982 255.63 37.9719 255.63 37.9719C255.63 37.9719 255.705 40.5718 256.742 40.6463C257.536 40.6381 258.32 40.4603 259.04 40.1247C259.04 40.1247 258.668 41.6854 259.412 41.6109C260.156 41.5364 261.785 39.9549 261.785 39.9549C263.785 39.4084 264.897 37.9222 264.083 35.6038Z" fill="#263238" stroke="#263238" stroke-linecap="round" stroke-linejoin="round"/>
<path d="M248.141 39.9261C248.141 39.9261 248.141 36.2001 247.314 36.1422C246.487 36.0842 245.16 37.0323 245.16 38.7379C245.151 39.7395 245.493 40.7125 246.128 41.4869" fill="white"/>
<path d="M248.141 39.9261C248.141 39.9261 248.141 36.2001 247.314 36.1422C246.487 36.0842 245.16 37.0323 245.16 38.7379C245.151 39.7395 245.493 40.7125 246.128 41.4869" stroke="#263238" stroke-miterlimit="10"/>
<path d="M258.511 130.41L264.327 130.894C264.327 130.894 270.113 129.404 270.444 130.646C270.775 131.888 268.873 133.047 267.303 134.372C265.732 135.696 260.607 138.015 260.607 138.015C260.607 138.015 256.308 140.333 254.82 140.664C253.332 140.996 251.844 135.282 251.844 135.282L258.511 130.41Z" fill="white" stroke="#263238" stroke-miterlimit="10"/>
<path d="M270.444 130.633C270.419 130.56 270.378 130.492 270.323 130.437C270.269 130.381 270.203 130.338 270.13 130.311C269.092 131.884 264.657 135.411 261.863 136.347C259.582 137.108 255.312 138.748 253.439 139.468C253.853 140.23 254.353 140.76 254.837 140.652C256.325 140.321 260.623 138.003 260.623 138.003C260.623 138.003 265.749 135.684 267.319 134.359C268.89 133.035 270.775 131.875 270.444 130.633Z" fill="white" stroke="#263238" stroke-miterlimit="10"/>
<path d="M232.996 99.3347L242.916 99.1691C242.916 99.1691 248.289 127.984 249.033 129.308C249.356 129.969 249.806 130.56 250.356 131.047C250.356 131.047 249.529 131.875 249.777 132.62C250.025 133.366 251.596 134.773 251.844 135.27C252.092 135.767 256.721 133.2 256.721 133.2L258.511 130.397C258.511 130.397 257.932 127.002 257.602 126.754C257.171 126.488 256.849 126.077 256.692 125.595C256.61 125.098 257.023 124.27 256.775 123.608C256.527 122.945 255.866 122.531 255.783 121.952C255.7 121.372 257.217 95.2775 255.895 93.0419C254.572 90.8063 249.033 91.3859 249.033 91.3859C249.033 91.3859 224.729 97.1819 224.895 98.2583C225.06 99.3347 232.996 99.3347 232.996 99.3347Z" fill="#263238" stroke="#263238" stroke-linecap="round" stroke-linejoin="round"/>
<path d="M248.504 126.431C248.504 126.431 249.546 127.475 250.158 128C250.769 128.526 255.08 131.064 255.155 131.511C255.229 131.958 254.783 133.378 254.258 133.676C253.733 133.974 248.368 133.378 247.099 133.229C245.83 133.08 241.651 130.687 240.308 129.942C238.965 129.197 237.477 127.777 237.477 127.326C237.477 126.874 241.354 120.453 241.354 120.453L248.665 125.384L248.504 126.431Z" fill="white" stroke="#263238" stroke-miterlimit="10"/>
<path d="M252.456 132.857C250.294 132.559 246.562 132.331 244.4 130.915C242.747 129.835 239.382 127.5 237.865 126.444C237.692 126.72 237.554 127.016 237.452 127.326C237.452 127.777 238.944 129.193 240.283 129.942C241.622 130.691 245.805 133.08 247.074 133.229C248.343 133.378 253.712 133.979 254.233 133.676C254.442 133.525 254.607 133.321 254.713 133.084C254.316 133.068 253.613 133.014 252.456 132.857Z" fill="white" stroke="#263238" stroke-miterlimit="10"/>
<path d="M234.484 84.5136C234.484 84.5136 245.731 84.3604 253.084 85.2712C260.437 86.182 263.674 86.625 266.472 88.4052C269.683 90.4504 251.344 121.596 251.344 121.596L249.773 123.583C249.773 123.583 250.104 124.576 249.856 124.742C249.369 125.276 248.916 125.84 248.5 126.431L241.345 121.347V119.608L242.833 119.112C242.71 118.827 242.673 118.512 242.725 118.206C242.778 117.9 242.919 117.616 243.131 117.389C243.555 116.958 244.031 116.581 244.549 116.267L250.749 97.6622C250.749 97.6622 237.303 99.0864 233.004 99.3182C228.706 99.5501 213.656 99.3182 213.656 99.3182C213.656 99.3182 211.424 98.7387 211.589 94.6815C211.755 90.6243 213.16 87.1466 215.975 85.9874C218.79 84.8282 234.484 84.5136 234.484 84.5136Z" fill="#263238" stroke="#263238" stroke-linecap="round" stroke-linejoin="round"/>
<path d="M249.653 125.417C249.653 125.417 250.505 124.85 250.505 124.494C250.505 124.138 250.22 123.496 250.36 123.069C250.501 122.643 255.833 114.177 255.833 114.177" stroke="white" stroke-miterlimit="10"/>
<path d="M246.078 111.83L250.769 98.0269L244.16 99.1654" stroke="white" stroke-miterlimit="10"/>
<path d="M250.74 97.6621L258.428 95.9233" stroke="white" stroke-miterlimit="10"/>
<path d="M253.964 97.8282C253.964 97.8282 258.18 97.6626 260.247 96.5034" stroke="white" stroke-miterlimit="10"/>
<path d="M241.023 54.1884L235.6 86.3437L234.563 97.0374C234.563 97.0374 227.445 99.2688 220.923 98.3746C214.4 97.4804 212.619 95.9982 212.619 95.9982C212.619 95.9982 218.182 72.8142 218.182 72.6072C218.182 72.4002 221.295 58.643 222.555 55.745C223.816 52.847 235.236 44.9023 235.236 44.9023L241.023 54.1884Z" fill="#6EB6FF" stroke="#263238" stroke-miterlimit="10"/>
<path d="M237.39 42.7495L244.805 53.8157L241.321 55.9685L235.24 44.9023L237.39 42.7495Z" fill="white" stroke="#263238" stroke-miterlimit="10"/>
<path d="M208.531 93.9775L207.159 96.0475C207.159 96.0475 201.703 96.3001 201.269 96.5154C200.835 96.7306 198.921 99.0863 198.921 99.3016C198.921 99.5169 205.208 99.3016 205.208 99.3016L207.411 98.722C207.411 98.722 206.171 99.3388 206.435 99.4092C207.108 99.4468 207.783 99.4468 208.456 99.4092C208.456 99.4092 211.201 98.544 211.598 98.072C211.995 97.6 212.755 95.0705 212.755 95.0705L208.531 93.9775Z" fill="white" stroke="#263238" stroke-miterlimit="10"/>
<path d="M203.219 99.2853C203.219 99.2853 205.637 97.0042 205.782 96.8965C206.039 96.7998 206.307 96.7385 206.58 96.7144" stroke="#263238" stroke-miterlimit="10"/>
<path d="M204.447 96.499C204.1 96.5767 203.769 96.717 203.472 96.913C203.29 97.1283 201.628 99.3722 201.628 99.3722" stroke="#263238" stroke-miterlimit="10"/>
<path d="M202.604 96.644C202.604 96.644 201.884 96.7517 201.74 96.9338C201.595 97.116 200.148 99.2854 200.148 99.2854" stroke="#263238" stroke-miterlimit="10"/>
<path d="M227.912 53.5923C227.912 53.5923 213.164 67.896 212.867 69.0428C212.569 70.1895 208.051 94.2968 208.051 94.2968C208.753 94.6371 209.483 94.9142 210.234 95.1248C211.35 95.3526 212.482 95.5033 213.619 95.576L220.468 74.847C220.468 74.847 234.835 64.584 235.6 63.9961C236.365 63.4082 236.956 60.5268 236.956 59.5456" fill="#6EB6FF"/>
<path d="M227.912 53.5923C227.912 53.5923 213.164 67.896 212.867 69.0428C212.569 70.1895 208.051 94.2968 208.051 94.2968C208.753 94.6371 209.483 94.9142 210.234 95.1248C211.35 95.3526 212.482 95.5033 213.619 95.576L220.468 74.847C220.468 74.847 234.835 64.584 235.6 63.9961C236.365 63.4082 236.956 60.5268 236.956 59.5456" stroke="#263238" stroke-miterlimit="10"/>
<path d="M76.5907 47.1962C76.5907 47.1962 70.2873 52.1145 70.37 54.9008C70.4527 57.687 73.9701 59.7363 74.462 60.0675C74.9539 60.3987 80.7612 65.2301 80.2735 67.3622C79.7857 69.4943 74.9539 69.0844 74.1355 71.6222C73.3171 74.16 74.8712 75.2323 77.1611 75.8036C79.4509 76.3749 83.6256 74.1476 84.7747 74.5616C85.9237 74.9756 88.784 76.8593 91.0739 78.0061C93.3637 79.1529 94.922 79.3971 97.6211 76.8593C100.32 74.3215 98.8611 71.8582 98.8611 71.8582C98.8611 71.8582 103.693 73.5804 104.921 69.399C106.148 65.2176 104.429 62.361 102.056 61.856C100.872 61.5824 99.6657 61.4175 98.4519 61.3633C98.4519 61.3633 98.6172 55.2154 96.9804 53.0833C95.3436 50.9512 91.0863 46.5255 87.7341 45.296C84.382 44.0664 79.1244 45.5402 76.5907 47.1962Z" fill="#263238" stroke="#263238" stroke-linecap="round" stroke-linejoin="round"/>
<path d="M57.2756 94.806L55.8785 90.5584L58.9579 89.3164C58.9579 89.3164 58.0857 93.8 57.2756 94.806Z" fill="#263238" stroke="#263238" stroke-miterlimit="10"/>
<path d="M73.7635 155.126C73.7635 155.126 75.7599 156.712 75.6772 157.61C75.5945 158.509 74.5116 161.026 74.8505 162.777C75.1895 164.528 74.8505 166.859 74.1851 168.026C73.5196 169.194 72.8541 169.682 72.6061 169.442C72.1669 168.96 71.9033 168.343 71.858 167.691C71.858 166.942 72.3581 154.112 72.3581 154.112L73.7635 155.126Z" fill="white" stroke="#263238" stroke-miterlimit="10"/>
<path d="M64.6949 168.875L65.195 175.54C65.195 175.54 65.443 176.207 67.4394 175.954C69.4358 175.702 71.92 173.288 71.92 173.288L71.3372 167.124C71.3372 167.124 66.96 168.958 64.6949 168.875Z" fill="white" stroke="#263238" stroke-miterlimit="10"/>
<path d="M67.1915 174.207C67.1915 174.207 65.2777 170.792 64.1989 171.289C63.1201 171.785 63.6988 174.704 63.6988 175.371C63.6988 176.037 61.1196 180.703 60.0367 181.705C58.9537 182.707 57.3789 183.361 57.4616 184.189C57.5443 185.017 59.3712 185.274 60.7683 185.191C62.1653 185.108 65.5092 184.023 66.8401 183.274C68.1711 182.525 73.8255 178.525 74.1561 177.942C74.4868 177.358 74.0735 175.193 73.4907 174.526C72.9079 173.86 71.7464 172.113 71.7464 171.777C71.7464 171.442 71.7464 171.276 70.9197 171.86C70.0931 172.444 69.2664 173.359 68.9233 173.516C68.5803 173.673 67.1915 174.207 67.1915 174.207Z" fill="white" stroke="#263238" stroke-miterlimit="10"/>
<path d="M79.3352 106.216L78.7524 104.635C78.7524 104.635 66.1953 101.716 60.5368 98.3833C60.5368 98.3833 52.4685 106.634 48.8105 111.963C45.1525 117.291 40.6596 129.384 40.9903 130.969C41.3209 132.555 60.1235 152.547 60.1235 152.547C60.1235 152.547 62.6035 164.044 62.9507 166.54C63.2979 169.037 65.9432 170.457 68.1049 170.374C70.2667 170.291 72.5152 168.457 72.7632 167.79C73.0112 167.124 73.7635 151.545 74.0941 146.13C74.7112 138.406 75.9357 130.742 77.7563 123.211C79.5832 116.131 80.6 110.464 79.3352 106.216ZM59.8713 136.206L56.048 130.791L60.4541 122.702L59.8713 136.206Z" fill="#6EB6FF" stroke="#263238" stroke-miterlimit="10"/>
<path d="M60.4541 122.71C60.4541 122.71 61.0369 111.631 61.6197 109.131" stroke="#263238" stroke-miterlimit="10"/>
<path d="M59.8713 136.206C59.8713 136.206 59.7887 146.705 60.1235 152.538" stroke="#263238" stroke-miterlimit="10"/>
<path d="M56.048 130.799C56.048 130.799 54.0516 129.143 52.5512 128.887" stroke="#263238" stroke-miterlimit="10"/>
<path d="M68.1049 106.05C68.1049 106.05 67.0261 113.212 66.4516 117.295" stroke="#263238" stroke-miterlimit="10"/>
<path d="M69.0267 111.879C69.0267 111.879 69.192 118.88 69.1093 119.211" stroke="#263238" stroke-miterlimit="10"/>
<path d="M60.2061 101.716C60.2061 101.716 56.4613 106.299 54.7171 109.048" stroke="#263238" stroke-miterlimit="10"/>
<path d="M61.1196 102.217L58.5404 107.632" stroke="#263238" stroke-miterlimit="10"/>
<path d="M79.2071 73.7337C79.2071 73.7337 71.0231 75.2903 70.1137 76.1101C69.2044 76.9298 58.7388 85.7852 58.7388 85.7852L57.2756 94.8063L61.6115 93.2497C61.6115 93.2497 58.3379 96.9384 58.5032 97.5925C58.6685 98.2466 61.938 101.364 64.1493 102.759C66.3607 104.154 77.3264 106.448 80.0255 106.609C82.7245 106.771 82.4807 103.658 82.646 103.086C82.8113 102.515 84.444 96.3629 84.444 96.3629L97.2119 93.1503C97.2119 93.1503 95.0873 76.346 93.0413 73.477C90.9953 70.608 88.6187 71.1793 86.738 71.821C84.8573 72.4627 79.2071 73.7337 79.2071 73.7337Z" fill="#CCCCCC" stroke="#263238" stroke-miterlimit="10"/>
<path d="M85.3451 77.998L86.1635 93.9826" stroke="#263238" stroke-miterlimit="10"/>
<path d="M74.6232 55.8655C74.6232 55.8655 74.1355 59.7157 74.1355 62.0962C74.1355 64.4767 75.4416 68.2441 76.8345 69.7179C78.2275 71.1918 78.7979 71.2746 79.7816 70.9599L78.2275 78.1718C78.2275 78.1718 83.8736 74.6487 84.9359 73.829C85.6324 73.2685 86.24 72.6054 86.738 71.8625L87.7217 66.4515C88.2509 65.7148 88.6894 64.9169 89.0279 64.0751C89.4412 62.9283 89.6851 61.3675 88.6145 60.6306C87.544 59.8937 86.7339 59.2396 83.7868 55.9607C80.8397 52.6818 80.7571 52.272 80.7571 52.272L74.6232 55.8655Z" fill="white" stroke="#263238" stroke-miterlimit="10"/>
<path d="M86.9819 62.2577C86.9819 62.2577 88.7013 58.8174 89.7677 60.6017C90.8341 62.386 90.3381 63.7978 89.6024 64.7003C88.8667 65.6028 87.2299 65.3586 87.2299 65.3586" fill="white"/>
<path d="M86.9819 62.2577C86.9819 62.2577 88.7013 58.8174 89.7677 60.6017C90.8341 62.386 90.3381 63.7978 89.6024 64.7003C88.8667 65.6028 87.2299 65.3586 87.2299 65.3586" stroke="#263238" stroke-miterlimit="10"/>
<path d="M79.7816 70.9474L82.646 69.7178L79.2071 73.7336L79.7816 70.9474Z" fill="#263238" stroke="#263238" stroke-linecap="round" stroke-linejoin="round"/>
<path d="M77.6529 58.896C77.6529 58.896 76.9999 61.1937 76.5907 62.0962C76.1815 62.9987 75.2804 63.3382 75.764 63.5701C76.3109 63.8748 76.943 63.9898 77.562 63.8971" stroke="#263238" stroke-linecap="round" stroke-linejoin="round"/>
<path d="M76.7519 65.702C78.1619 65.8542 79.5748 65.442 80.6827 64.5552C80.6827 64.5552 80.0255 67.0143 78.9632 67.4242C77.9009 67.8341 76.7519 65.702 76.7519 65.702Z" stroke="#263238" stroke-linecap="round" stroke-linejoin="round"/>
<path d="M79.7733 56.685C79.7733 56.685 80.7529 55.9481 82.2285 57.099" stroke="#263238" stroke-linecap="round" stroke-linejoin="round"/>
<path d="M77.4876 56.8466C77.3669 56.697 77.217 56.5736 77.047 56.484C76.8771 56.3943 76.6907 56.3403 76.4993 56.3252C76.3078 56.3101 76.1153 56.3342 75.9334 56.3961C75.7516 56.458 75.5842 56.5563 75.4416 56.6852" stroke="#263238" stroke-linecap="round" stroke-linejoin="round"/>
<path d="M81.2531 59.6369C81.2531 60.1337 81.034 60.5353 80.7612 60.5353C80.4884 60.5353 80.2735 60.1213 80.2735 59.6369C80.2735 59.1525 80.4925 58.7344 80.7612 58.7344C81.0299 58.7344 81.2531 59.136 81.2531 59.6369Z" fill="#263238"/>
<path d="M76.6692 58.8959C76.6692 59.3969 76.4501 59.7985 76.1814 59.7985C75.9128 59.7985 75.6896 59.3845 75.6896 58.8959C75.6896 58.4074 75.9086 57.9976 76.1814 57.9976C76.4542 57.9976 76.6692 58.3991 76.6692 58.8959Z" fill="#263238"/>
<path d="M61.6115 93.2452L68.7332 81.0322" stroke="#263238" stroke-miterlimit="10"/>
<path d="M60.1648 63.7809L66.1995 75.7869C66.2709 75.9314 66.3829 76.0518 66.5216 76.1334C66.6604 76.2151 66.8199 76.2544 66.9807 76.2465L72.0233 76.0022C72.1584 75.9966 72.29 75.9579 72.4067 75.8894C72.5233 75.821 72.6214 75.725 72.6924 75.6097C72.7634 75.4945 72.8051 75.3636 72.8138 75.2285C72.8226 75.0934 72.7981 74.9582 72.7425 74.8347L67.1873 62.2574C67.1141 62.0911 66.9881 61.9535 66.829 61.8659C66.6699 61.7784 66.4864 61.7458 66.3069 61.7731L60.7889 62.5804C60.6577 62.5981 60.5325 62.6471 60.4241 62.7234C60.3157 62.7996 60.2272 62.9009 60.166 63.0185C60.1049 63.1362 60.0728 63.2669 60.0726 63.3996C60.0724 63.5323 60.104 63.6631 60.1648 63.7809Z" fill="#263238" stroke="#263238" stroke-miterlimit="10"/>
<path d="M60.3839 70.4549C60.3839 70.4549 63.3309 76.9299 63.2483 77.2611C63.1656 77.5923 51.0549 87.7519 50.9723 88.82C50.8896 89.8881 51.708 93.0801 52.9356 93.5727C54.1632 94.0654 55.8827 93.1587 56.3745 92.7447C56.8664 92.3307 65.5423 80.2005 66.03 79.6292C66.5177 79.0579 66.6045 77.4143 66.6045 77.4143C67.4224 76.46 68.3259 75.5828 69.3036 74.7937C70.6139 73.8084 70.1303 73.2329 69.2251 73.6428C68.5417 73.977 67.884 74.3617 67.2576 74.7937C66.6913 75.2077 66.6004 74.1892 68.6299 72.6574C70.4072 71.3161 70.0269 70.7572 70.122 70.5295C70.37 69.954 69.3863 70.3639 69.3863 70.3639C69.3863 70.3639 69.6343 69.5938 69.3077 69.4282C69.1895 69.3857 69.0636 69.3685 68.9383 69.3777C68.813 69.387 68.691 69.4225 68.5803 69.4821L64.232 71.7591L62.8267 71.1132C62.8267 71.1132 65.8564 68.9811 66.836 68.5713C67.8156 68.1614 68.2289 67.0146 67.2493 67.2589C66.2697 67.5031 61.0411 69.5524 60.3839 70.4549Z" fill="white" stroke="#263238" stroke-miterlimit="10"/>
<path d="M69.3863 70.3804C69.3863 70.3804 65.1331 73.0879 64.8024 73.5806C64.5827 74.0405 64.471 74.5446 64.4759 75.0544" stroke="#263238" stroke-miterlimit="10"/>
<path d="M64.232 71.7671C64.232 71.7671 62.8391 72.4212 62.7564 73.0091" stroke="#263238" stroke-miterlimit="10"/>
<path d="M96.8853 91.2212C96.8853 91.2212 71.0189 96.0484 70.5188 96.6363C70.0186 97.2242 66.96 106.465 67.0261 107.226C67.0922 107.988 68.9398 110.642 69.3532 111.06C69.7665 111.478 70.6841 111.644 71.2669 111.809C71.8497 111.975 74.0114 111.308 73.6808 110.642C73.3501 109.975 72.0274 110.145 72.0274 110.145L71.2008 108.146C71.6461 107.059 71.8992 105.903 71.9489 104.73C71.9489 103.074 72.3622 99.4805 72.3622 99.4805H96.8026C96.8026 99.4805 97.8856 99.1452 97.9682 98.5656C98.0509 97.986 96.8853 91.2212 96.8853 91.2212Z" fill="white" stroke="#263238" stroke-miterlimit="10"/>
<path d="M69.5226 107.88C69.5226 107.88 70.4361 110.364 70.6014 110.716C70.7668 111.068 71.2669 111.797 71.2669 111.797" stroke="#263238" stroke-miterlimit="10"/>
<path d="M68.1917 108.133L69.3532 111.047" stroke="#263238" stroke-miterlimit="10"/>
<path d="M235.98 101.562H80.7695C78.788 101.562 77.1817 103.171 77.1817 105.156V154.666C77.1817 156.651 78.788 158.26 80.7695 158.26H235.98C237.962 158.26 239.568 156.651 239.568 154.666V105.156C239.568 103.171 237.962 101.562 235.98 101.562Z" fill="#263238" stroke="#263238" stroke-linecap="round" stroke-linejoin="round"/>
<path d="M238.543 99.4219H83.3321C81.3507 99.4219 79.7444 101.031 79.7444 103.015V152.526C79.7444 154.51 81.3507 156.119 83.3321 156.119H238.543C240.524 156.119 242.131 154.51 242.131 152.526V103.015C242.131 101.031 240.524 99.4219 238.543 99.4219Z" fill="white" stroke="#263238" stroke-miterlimit="10"/>
<path d="M133.92 121.476C133.66 121.476 133.411 121.579 133.227 121.763C133.044 121.947 132.94 122.197 132.94 122.457V131.788C132.932 131.923 132.951 132.058 132.996 132.185C133.041 132.311 133.112 132.428 133.204 132.526C133.296 132.624 133.407 132.703 133.531 132.756C133.654 132.81 133.788 132.837 133.922 132.837C134.057 132.837 134.19 132.81 134.313 132.756C134.437 132.703 134.548 132.624 134.64 132.526C134.732 132.428 134.803 132.311 134.848 132.185C134.894 132.058 134.912 131.923 134.904 131.788V122.457C134.903 122.196 134.799 121.947 134.614 121.763C134.43 121.579 134.18 121.476 133.92 121.476Z" fill="#263238"/>
<path d="M145.907 121.476C145.646 121.476 145.397 121.579 145.213 121.763C145.028 121.947 144.924 122.196 144.923 122.457V131.788C144.914 131.923 144.933 132.058 144.979 132.185C145.024 132.311 145.095 132.428 145.187 132.526C145.279 132.624 145.39 132.703 145.513 132.756C145.637 132.81 145.77 132.837 145.905 132.837C146.039 132.837 146.172 132.81 146.296 132.756C146.419 132.703 146.53 132.624 146.622 132.526C146.714 132.428 146.785 132.311 146.831 132.185C146.876 132.058 146.895 131.923 146.886 131.788V122.457C146.886 122.197 146.783 121.947 146.599 121.763C146.416 121.579 146.166 121.476 145.907 121.476Z" fill="#263238"/>
<path d="M154.872 121.476C154.612 121.476 154.363 121.579 154.179 121.763C153.995 121.947 153.892 122.197 153.892 122.457V131.788C153.892 132.049 153.995 132.298 154.179 132.482C154.363 132.666 154.612 132.77 154.872 132.77C155.132 132.77 155.381 132.666 155.565 132.482C155.748 132.298 155.851 132.049 155.851 131.788V122.457C155.851 122.197 155.748 121.947 155.565 121.763C155.381 121.579 155.132 121.476 154.872 121.476Z" fill="#263238"/>
<path d="M160.857 121.476C160.597 121.476 160.348 121.579 160.164 121.763C159.981 121.947 159.877 122.197 159.877 122.457V131.788C159.877 132.049 159.981 132.298 160.164 132.482C160.348 132.666 160.597 132.77 160.857 132.77C161.117 132.77 161.366 132.666 161.55 132.482C161.733 132.298 161.837 132.049 161.837 131.788V122.457C161.837 122.197 161.733 121.947 161.55 121.763C161.366 121.579 161.117 121.476 160.857 121.476Z" fill="#263238"/>
<path d="M163.849 121.476C163.59 121.476 163.34 121.579 163.157 121.763C162.973 121.947 162.87 122.197 162.87 122.457V131.788C162.861 131.923 162.88 132.058 162.925 132.185C162.971 132.311 163.042 132.428 163.134 132.526C163.226 132.624 163.337 132.703 163.46 132.756C163.584 132.81 163.717 132.837 163.852 132.837C163.986 132.837 164.119 132.81 164.243 132.756C164.366 132.703 164.477 132.624 164.569 132.526C164.661 132.428 164.732 132.311 164.778 132.185C164.823 132.058 164.842 131.923 164.833 131.788V122.457C164.832 122.196 164.728 121.947 164.544 121.763C164.359 121.579 164.11 121.476 163.849 121.476Z" fill="#263238"/>
<path d="M178.816 121.476C178.556 121.476 178.306 121.579 178.122 121.763C177.938 121.947 177.834 122.196 177.833 122.457V131.788C177.824 131.923 177.843 132.058 177.888 132.185C177.934 132.311 178.004 132.428 178.096 132.526C178.188 132.624 178.3 132.703 178.423 132.756C178.547 132.81 178.68 132.837 178.814 132.837C178.949 132.837 179.082 132.81 179.205 132.756C179.329 132.703 179.44 132.624 179.532 132.526C179.624 132.428 179.695 132.311 179.74 132.185C179.786 132.058 179.805 131.923 179.796 131.788V122.457C179.796 122.197 179.693 121.947 179.509 121.763C179.325 121.579 179.076 121.476 178.816 121.476Z" fill="#263238"/>
<path d="M196.771 121.476C196.512 121.476 196.262 121.579 196.079 121.763C195.895 121.947 195.792 122.197 195.792 122.457V131.788C195.792 132.049 195.895 132.298 196.079 132.482C196.262 132.666 196.512 132.77 196.771 132.77C197.031 132.77 197.28 132.666 197.464 132.482C197.648 132.298 197.751 132.049 197.751 131.788V122.457C197.751 122.197 197.648 121.947 197.464 121.763C197.28 121.579 197.031 121.476 196.771 121.476Z" fill="#263238"/>
<path d="M205.749 121.476C205.489 121.476 205.24 121.579 205.056 121.763C204.873 121.947 204.769 122.197 204.769 122.457V131.788C204.761 131.923 204.78 132.058 204.825 132.185C204.87 132.311 204.941 132.428 205.033 132.526C205.125 132.624 205.237 132.703 205.36 132.756C205.483 132.81 205.617 132.837 205.751 132.837C205.886 132.837 206.019 132.81 206.142 132.756C206.266 132.703 206.377 132.624 206.469 132.526C206.561 132.428 206.632 132.311 206.677 132.185C206.723 132.058 206.742 131.923 206.733 131.788V122.457C206.732 122.196 206.628 121.947 206.443 121.763C206.259 121.579 206.009 121.476 205.749 121.476Z" fill="#263238"/>
<path d="M208.733 121.476C208.604 121.475 208.477 121.5 208.357 121.549C208.238 121.598 208.129 121.67 208.038 121.762C207.947 121.853 207.874 121.961 207.825 122.08C207.775 122.2 207.75 122.328 207.75 122.457V131.788C207.741 131.923 207.76 132.058 207.805 132.185C207.851 132.311 207.921 132.428 208.013 132.526C208.105 132.624 208.217 132.703 208.34 132.756C208.464 132.81 208.597 132.837 208.731 132.837C208.866 132.837 208.999 132.81 209.122 132.756C209.246 132.703 209.357 132.624 209.449 132.526C209.541 132.428 209.612 132.311 209.657 132.185C209.703 132.058 209.722 131.923 209.713 131.788V122.457C209.713 122.197 209.61 121.947 209.426 121.763C209.242 121.579 208.993 121.476 208.733 121.476Z" fill="#263238"/>
<path d="M220.72 121.476C220.46 121.476 220.211 121.579 220.027 121.763C219.844 121.947 219.74 122.197 219.74 122.457V131.788C219.74 132.049 219.844 132.298 220.027 132.482C220.211 132.666 220.46 132.77 220.72 132.77C220.98 132.77 221.229 132.666 221.413 132.482C221.596 132.298 221.7 132.049 221.7 131.788V122.457C221.7 122.197 221.596 121.947 221.413 121.763C221.229 121.579 220.98 121.476 220.72 121.476Z" fill="#263238"/>
<path d="M223.708 121.476C223.449 121.476 223.199 121.579 223.016 121.763C222.832 121.947 222.729 122.197 222.729 122.457V131.788C222.729 132.049 222.832 132.298 223.016 132.482C223.199 132.666 223.449 132.77 223.708 132.77C223.968 132.77 224.217 132.666 224.401 132.482C224.585 132.298 224.688 132.049 224.688 131.788V122.457C224.688 122.197 224.585 121.947 224.401 121.763C224.217 121.579 223.968 121.476 223.708 121.476Z" fill="#263238"/>
<path d="M226.701 121.476C226.441 121.476 226.192 121.579 226.008 121.763C225.825 121.947 225.721 122.197 225.721 122.457V131.788C225.721 132.049 225.825 132.298 226.008 132.482C226.192 132.666 226.441 132.77 226.701 132.77C226.961 132.77 227.21 132.666 227.394 132.482C227.577 132.298 227.681 132.049 227.681 131.788V122.457C227.681 122.197 227.577 121.947 227.394 121.763C227.21 121.579 226.961 121.476 226.701 121.476Z" fill="#263238"/>
<path d="M229.693 121.476C229.434 121.476 229.185 121.579 229.001 121.763C228.817 121.947 228.714 122.197 228.714 122.457V131.788C228.714 132.049 228.817 132.298 229.001 132.482C229.185 132.666 229.434 132.77 229.693 132.77C229.953 132.77 230.202 132.666 230.386 132.482C230.57 132.298 230.673 132.049 230.673 131.788V122.457C230.673 122.197 230.57 121.947 230.386 121.763C230.202 121.579 229.953 121.476 229.693 121.476Z" fill="#263238"/>
<path d="M125.029 121.476C124.769 121.476 124.52 121.579 124.337 121.763C124.153 121.947 124.05 122.197 124.05 122.457V131.788C124.05 132.049 124.153 132.298 124.337 132.482C124.52 132.666 124.769 132.77 125.029 132.77C125.289 132.77 125.538 132.666 125.722 132.482C125.906 132.298 126.009 132.049 126.009 131.788V122.457C126.009 122.197 125.906 121.947 125.722 121.763C125.538 121.579 125.289 121.476 125.029 121.476Z" fill="#263238"/>
<path d="M128.022 121.476C127.762 121.476 127.513 121.579 127.329 121.763C127.145 121.947 127.042 122.197 127.042 122.457V131.788C127.033 131.923 127.052 132.058 127.098 132.185C127.143 132.311 127.214 132.428 127.306 132.526C127.398 132.624 127.509 132.703 127.633 132.756C127.756 132.81 127.889 132.837 128.024 132.837C128.158 132.837 128.291 132.81 128.415 132.756C128.538 132.703 128.65 132.624 128.742 132.526C128.834 132.428 128.904 132.311 128.95 132.185C128.995 132.058 129.014 131.923 129.005 131.788V122.457C129.004 122.196 128.9 121.947 128.716 121.763C128.532 121.579 128.282 121.476 128.022 121.476Z" fill="#263238"/>
<path d="M131.027 121.476C130.767 121.476 130.518 121.579 130.334 121.763C130.15 121.947 130.047 122.197 130.047 122.457V131.788C130.038 131.923 130.057 132.058 130.103 132.185C130.148 132.311 130.219 132.428 130.311 132.526C130.403 132.624 130.514 132.703 130.638 132.756C130.761 132.81 130.894 132.837 131.029 132.837C131.163 132.837 131.296 132.81 131.42 132.756C131.543 132.703 131.655 132.624 131.747 132.526C131.839 132.428 131.909 132.311 131.955 132.185C132 132.058 132.019 131.923 132.01 131.788V122.457C132.009 122.196 131.905 121.947 131.721 121.763C131.536 121.579 131.287 121.476 131.027 121.476Z" fill="#263238"/>
<path d="M181.809 121.476C181.549 121.476 181.299 121.579 181.115 121.763C180.93 121.947 180.826 122.196 180.825 122.457V131.788C180.816 131.923 180.835 132.058 180.881 132.185C180.926 132.311 180.997 132.428 181.089 132.526C181.181 132.624 181.292 132.703 181.416 132.756C181.539 132.81 181.672 132.837 181.807 132.837C181.941 132.837 182.074 132.81 182.198 132.756C182.321 132.703 182.433 132.624 182.525 132.526C182.617 132.428 182.687 132.311 182.733 132.185C182.778 132.058 182.797 131.923 182.788 131.788V122.457C182.788 122.197 182.685 121.947 182.501 121.763C182.318 121.579 182.069 121.476 181.809 121.476Z" fill="#263238"/>
<path d="M166.842 121.476C166.582 121.476 166.333 121.579 166.149 121.763C165.966 121.947 165.862 122.197 165.862 122.457V131.788C165.854 131.923 165.873 132.058 165.918 132.185C165.963 132.311 166.034 132.428 166.126 132.526C166.218 132.624 166.329 132.703 166.453 132.756C166.576 132.81 166.71 132.837 166.844 132.837C166.979 132.837 167.112 132.81 167.235 132.756C167.359 132.703 167.47 132.624 167.562 132.526C167.654 132.428 167.725 132.311 167.77 132.185C167.816 132.058 167.834 131.923 167.826 131.788V122.457C167.825 122.196 167.72 121.947 167.536 121.763C167.352 121.579 167.102 121.476 166.842 121.476Z" fill="#263238"/>
<path d="M136.917 117.335H136.913C136.372 117.335 135.933 117.775 135.933 118.317V135.932C135.933 136.474 136.372 136.913 136.913 136.913H136.917C137.458 136.913 137.896 136.474 137.896 135.932V118.317C137.896 117.775 137.458 117.335 136.917 117.335Z" fill="#263238"/>
<path d="M142.902 117.335C142.642 117.335 142.392 117.439 142.208 117.623C142.023 117.806 141.919 118.056 141.918 118.317V135.928C141.909 136.063 141.928 136.198 141.974 136.324C142.019 136.451 142.09 136.567 142.182 136.666C142.274 136.764 142.385 136.843 142.509 136.896C142.632 136.95 142.765 136.977 142.9 136.977C143.034 136.977 143.167 136.95 143.291 136.896C143.414 136.843 143.525 136.764 143.617 136.666C143.709 136.567 143.78 136.451 143.826 136.324C143.871 136.198 143.89 136.063 143.881 135.928V118.317C143.881 118.056 143.778 117.807 143.594 117.623C143.411 117.439 143.162 117.335 142.902 117.335Z" fill="#263238"/>
<path d="M151.879 117.335C151.62 117.335 151.37 117.439 151.187 117.623C151.003 117.807 150.9 118.056 150.9 118.317V135.928C150.9 136.188 151.003 136.438 151.187 136.622C151.37 136.806 151.62 136.909 151.879 136.909C152.139 136.909 152.388 136.806 152.572 136.622C152.756 136.438 152.859 136.188 152.859 135.928V118.317C152.859 118.056 152.756 117.807 152.572 117.623C152.388 117.439 152.139 117.335 151.879 117.335Z" fill="#263238"/>
<path d="M157.864 117.335C157.605 117.335 157.355 117.439 157.172 117.623C156.988 117.807 156.885 118.056 156.885 118.317V135.928C156.885 136.188 156.988 136.438 157.172 136.622C157.355 136.806 157.605 136.909 157.864 136.909C158.124 136.909 158.373 136.806 158.557 136.622C158.741 136.438 158.844 136.188 158.844 135.928V118.317C158.844 118.056 158.741 117.807 158.557 117.623C158.373 117.439 158.124 117.335 157.864 117.335Z" fill="#263238"/>
<path d="M169.835 117.335C169.575 117.335 169.326 117.439 169.142 117.623C168.958 117.807 168.855 118.056 168.855 118.317V135.928C168.846 136.063 168.865 136.198 168.911 136.324C168.956 136.451 169.027 136.567 169.119 136.666C169.211 136.764 169.322 136.843 169.445 136.896C169.569 136.95 169.702 136.977 169.837 136.977C169.971 136.977 170.104 136.95 170.228 136.896C170.351 136.843 170.462 136.764 170.554 136.666C170.646 136.567 170.717 136.451 170.763 136.324C170.808 136.198 170.827 136.063 170.818 135.928V118.317C170.817 118.056 170.713 117.806 170.529 117.623C170.344 117.439 170.095 117.335 169.835 117.335Z" fill="#263238"/>
<path d="M184.801 117.335C184.673 117.335 184.545 117.361 184.426 117.41C184.308 117.459 184.2 117.532 184.109 117.623C184.018 117.714 183.946 117.822 183.896 117.941C183.847 118.06 183.822 118.188 183.822 118.317V135.928C183.822 136.188 183.925 136.438 184.109 136.622C184.292 136.806 184.542 136.909 184.801 136.909C185.061 136.909 185.31 136.806 185.494 136.622C185.678 136.438 185.781 136.188 185.781 135.928V118.317C185.781 118.056 185.678 117.807 185.494 117.623C185.31 117.439 185.061 117.335 184.801 117.335Z" fill="#263238"/>
<path d="M187.798 117.335H187.794C187.253 117.335 186.814 117.775 186.814 118.317V135.932C186.814 136.474 187.253 136.913 187.794 136.913H187.798C188.339 136.913 188.778 136.474 188.778 135.932V118.317C188.778 117.775 188.339 117.335 187.798 117.335Z" fill="#263238"/>
<path d="M190.786 117.335C190.527 117.335 190.277 117.439 190.094 117.623C189.91 117.807 189.807 118.056 189.807 118.317V135.928C189.807 136.188 189.91 136.438 190.094 136.622C190.277 136.806 190.527 136.909 190.786 136.909C191.046 136.909 191.295 136.806 191.479 136.622C191.663 136.438 191.766 136.188 191.766 135.928V118.317C191.766 118.056 191.663 117.807 191.479 117.623C191.295 117.439 191.046 117.335 190.786 117.335Z" fill="#263238"/>
<path d="M193.779 117.335C193.519 117.335 193.27 117.439 193.086 117.623C192.903 117.807 192.799 118.056 192.799 118.317V135.928C192.799 136.188 192.903 136.438 193.086 136.622C193.27 136.806 193.519 136.909 193.779 136.909C194.039 136.909 194.288 136.806 194.472 136.622C194.655 136.438 194.759 136.188 194.759 135.928V118.317C194.759 118.056 194.655 117.807 194.472 117.623C194.288 117.439 194.039 117.335 193.779 117.335Z" fill="#263238"/>
<path d="M211.738 117.335H211.734C211.193 117.335 210.755 117.775 210.755 118.317V135.932C210.755 136.474 211.193 136.913 211.734 136.913H211.738C212.279 136.913 212.718 136.474 212.718 135.932V118.317C212.718 117.775 212.279 117.335 211.738 117.335Z" fill="#263238"/>
<path d="M217.723 117.335C217.463 117.335 217.214 117.439 217.029 117.623C216.845 117.806 216.741 118.056 216.74 118.317V135.928C216.731 136.063 216.75 136.198 216.795 136.324C216.841 136.451 216.911 136.567 217.003 136.666C217.095 136.764 217.207 136.843 217.33 136.896C217.454 136.95 217.587 136.977 217.721 136.977C217.856 136.977 217.989 136.95 218.112 136.896C218.236 136.843 218.347 136.764 218.439 136.666C218.531 136.567 218.602 136.451 218.647 136.324C218.693 136.198 218.712 136.063 218.703 135.928V118.317C218.703 118.056 218.6 117.807 218.416 117.623C218.232 117.439 217.983 117.335 217.723 117.335Z" fill="#263238"/>
<path d="M139.909 113.196C139.649 113.196 139.399 113.299 139.215 113.483C139.031 113.667 138.927 113.916 138.925 114.177V140.069C138.917 140.203 138.936 140.338 138.981 140.465C139.026 140.592 139.097 140.708 139.189 140.806C139.281 140.904 139.393 140.983 139.516 141.036C139.639 141.09 139.773 141.118 139.907 141.118C140.042 141.118 140.175 141.09 140.298 141.036C140.422 140.983 140.533 140.904 140.625 140.806C140.717 140.708 140.788 140.592 140.833 140.465C140.879 140.338 140.898 140.203 140.889 140.069V114.177C140.889 113.917 140.786 113.667 140.602 113.483C140.418 113.299 140.169 113.196 139.909 113.196Z" fill="#263238"/>
<path d="M148.887 113.196C148.627 113.196 148.378 113.299 148.194 113.483C148.01 113.667 147.907 113.917 147.907 114.177V140.069C147.907 140.329 148.01 140.578 148.194 140.762C148.378 140.946 148.627 141.05 148.887 141.05C149.147 141.05 149.396 140.946 149.579 140.762C149.763 140.578 149.866 140.329 149.866 140.069V114.177C149.866 113.917 149.763 113.667 149.579 113.483C149.396 113.299 149.147 113.196 148.887 113.196Z" fill="#263238"/>
<path d="M172.827 113.196C172.567 113.196 172.318 113.299 172.134 113.483C171.951 113.667 171.847 113.917 171.847 114.177V140.069C171.839 140.203 171.858 140.338 171.903 140.465C171.948 140.592 172.019 140.708 172.111 140.806C172.203 140.904 172.315 140.983 172.438 141.036C172.561 141.09 172.695 141.118 172.829 141.118C172.964 141.118 173.097 141.09 173.22 141.036C173.344 140.983 173.455 140.904 173.547 140.806C173.639 140.708 173.71 140.592 173.755 140.465C173.801 140.338 173.82 140.203 173.811 140.069V114.177C173.811 114.048 173.785 113.92 173.736 113.801C173.686 113.681 173.614 113.573 173.522 113.482C173.431 113.391 173.323 113.318 173.203 113.269C173.084 113.22 172.956 113.195 172.827 113.196Z" fill="#263238"/>
<path d="M175.824 113.196C175.564 113.196 175.314 113.299 175.13 113.483C174.945 113.667 174.841 113.916 174.84 114.177V140.069C174.831 140.203 174.85 140.338 174.896 140.465C174.941 140.592 175.012 140.708 175.104 140.806C175.196 140.904 175.307 140.983 175.431 141.036C175.554 141.09 175.687 141.118 175.822 141.118C175.956 141.118 176.089 141.09 176.213 141.036C176.336 140.983 176.447 140.904 176.539 140.806C176.631 140.708 176.702 140.592 176.748 140.465C176.793 140.338 176.812 140.203 176.803 140.069V114.177C176.803 113.917 176.7 113.667 176.516 113.483C176.333 113.299 176.084 113.196 175.824 113.196Z" fill="#263238"/>
<path d="M199.764 113.196C199.635 113.196 199.508 113.221 199.389 113.27C199.27 113.32 199.162 113.392 199.071 113.483C198.98 113.574 198.908 113.682 198.859 113.801C198.81 113.921 198.784 114.048 198.784 114.177V140.069C198.776 140.203 198.795 140.338 198.84 140.465C198.885 140.592 198.956 140.708 199.048 140.806C199.14 140.904 199.251 140.983 199.375 141.036C199.498 141.09 199.632 141.118 199.766 141.118C199.901 141.118 200.034 141.09 200.157 141.036C200.281 140.983 200.392 140.904 200.484 140.806C200.576 140.708 200.647 140.592 200.692 140.465C200.738 140.338 200.756 140.203 200.748 140.069V114.177C200.747 113.916 200.643 113.667 200.458 113.483C200.274 113.299 200.024 113.196 199.764 113.196Z" fill="#263238"/>
<path d="M202.757 113.196C202.497 113.196 202.248 113.299 202.064 113.483C201.88 113.667 201.777 113.917 201.777 114.177V140.069C201.768 140.203 201.787 140.338 201.833 140.465C201.878 140.592 201.949 140.708 202.041 140.806C202.133 140.904 202.244 140.983 202.367 141.036C202.491 141.09 202.624 141.118 202.759 141.118C202.893 141.118 203.026 141.09 203.15 141.036C203.273 140.983 203.384 140.904 203.476 140.806C203.568 140.708 203.639 140.592 203.685 140.465C203.73 140.338 203.749 140.203 203.74 140.069V114.177C203.739 113.916 203.635 113.667 203.451 113.483C203.266 113.299 203.017 113.196 202.757 113.196Z" fill="#263238"/>
<path d="M214.731 113.196C214.471 113.196 214.221 113.299 214.037 113.483C213.852 113.667 213.748 113.916 213.747 114.177V140.069C213.738 140.203 213.757 140.338 213.803 140.465C213.848 140.592 213.919 140.708 214.011 140.806C214.103 140.904 214.214 140.983 214.338 141.036C214.461 141.09 214.594 141.118 214.729 141.118C214.863 141.118 214.996 141.09 215.12 141.036C215.243 140.983 215.355 140.904 215.447 140.806C215.539 140.708 215.609 140.592 215.655 140.465C215.7 140.338 215.719 140.203 215.71 140.069V114.177C215.71 113.917 215.607 113.667 215.423 113.483C215.24 113.299 214.991 113.196 214.731 113.196Z" fill="#263238"/>
<path d="M113 138.678C118.733 132.935 118.733 123.624 113 117.881C107.266 112.138 97.9705 112.138 92.237 117.881C86.5035 123.624 86.5035 132.935 92.237 138.678C97.9705 144.42 107.266 144.42 113 138.678Z" fill="#263238"/>
<path d="M113.497 128.278L95.9429 118.126V138.429L113.497 128.278Z" fill="#6EB6FF" stroke="#263238" stroke-miterlimit="10"/>
</svg>
